G04 EAGLE Gerber RS-274X export*
G75*
%MOMM*%
%FSLAX34Y34*%
%LPD*%
%INSoldermask Top*%
%IPPOS*%
%AMOC8*
5,1,8,0,0,1.08239X$1,22.5*%
G01*
%ADD10C,3.505200*%
%ADD11C,0.838200*%
%ADD12R,1.403200X2.203200*%
%ADD13R,0.803200X1.553200*%
%ADD14C,2.082800*%
%ADD15R,1.303200X1.203200*%
%ADD16R,1.203200X1.303200*%
%ADD17C,0.505344*%
%ADD18R,1.403200X0.753200*%
%ADD19R,1.203200X0.503200*%
%ADD20R,1.203200X0.803200*%
%ADD21C,0.853200*%
%ADD22R,0.813200X0.453200*%
%ADD23R,0.763200X0.453200*%
%ADD24R,1.473200X0.863600*%
%ADD25R,0.953200X0.903200*%
%ADD26R,1.103200X0.483200*%
%ADD27R,3.903200X3.903200*%
%ADD28R,0.483200X1.103200*%
%ADD29C,3.530600*%
%ADD30R,3.203200X1.103200*%
%ADD31R,3.003200X1.203200*%
%ADD32R,1.003200X1.103200*%
%ADD33R,1.473200X0.838200*%
%ADD34R,1.033200X0.833200*%
%ADD35C,1.203200*%
%ADD36C,1.270000*%
%ADD37C,1.703200*%

G36*
X60304Y443554D02*
X60304Y443554D01*
X60307Y443551D01*
X61429Y443706D01*
X61434Y443711D01*
X61438Y443708D01*
X62509Y444079D01*
X62513Y444085D01*
X62518Y444083D01*
X63495Y444656D01*
X63498Y444662D01*
X63503Y444661D01*
X64350Y445414D01*
X64352Y445421D01*
X64357Y445421D01*
X65041Y446324D01*
X65041Y446331D01*
X65046Y446332D01*
X65541Y447351D01*
X65539Y447358D01*
X65544Y447360D01*
X65831Y448457D01*
X65829Y448461D01*
X65831Y448462D01*
X65829Y448464D01*
X65832Y448466D01*
X65899Y449597D01*
X65897Y449601D01*
X65899Y449603D01*
X65832Y450734D01*
X65827Y450739D01*
X65831Y450743D01*
X65544Y451840D01*
X65538Y451844D01*
X65541Y451849D01*
X65046Y452868D01*
X65040Y452871D01*
X65041Y452876D01*
X64357Y453779D01*
X64350Y453781D01*
X64350Y453786D01*
X63503Y454539D01*
X63496Y454539D01*
X63495Y454544D01*
X62518Y455117D01*
X62511Y455116D01*
X62509Y455121D01*
X61438Y455492D01*
X61432Y455489D01*
X61429Y455494D01*
X60307Y455649D01*
X60302Y455646D01*
X60300Y455649D01*
X48300Y455649D01*
X48295Y455646D01*
X48292Y455649D01*
X47025Y455444D01*
X47019Y455438D01*
X47015Y455441D01*
X45825Y454959D01*
X45821Y454952D01*
X45815Y454954D01*
X44762Y454220D01*
X44760Y454212D01*
X44754Y454213D01*
X43891Y453263D01*
X43890Y453254D01*
X43885Y453254D01*
X43255Y452135D01*
X43256Y452127D01*
X43250Y452125D01*
X42885Y450895D01*
X42888Y450887D01*
X42883Y450884D01*
X42801Y449603D01*
X42804Y449599D01*
X42801Y449597D01*
X42883Y448316D01*
X42889Y448310D01*
X42885Y448305D01*
X43250Y447075D01*
X43257Y447070D01*
X43255Y447065D01*
X43885Y445946D01*
X43892Y445943D01*
X43891Y445937D01*
X44754Y444987D01*
X44762Y444986D01*
X44762Y444980D01*
X45815Y444246D01*
X45823Y444246D01*
X45825Y444241D01*
X47015Y443759D01*
X47022Y443761D01*
X47025Y443756D01*
X48292Y443551D01*
X48297Y443554D01*
X48300Y443551D01*
X60300Y443551D01*
X60304Y443554D01*
G37*
G36*
X593704Y443554D02*
X593704Y443554D01*
X593707Y443551D01*
X594829Y443706D01*
X594834Y443711D01*
X594838Y443708D01*
X595909Y444079D01*
X595913Y444085D01*
X595918Y444083D01*
X596895Y444656D01*
X596898Y444662D01*
X596903Y444661D01*
X597750Y445414D01*
X597752Y445421D01*
X597757Y445421D01*
X598441Y446324D01*
X598441Y446331D01*
X598446Y446332D01*
X598941Y447351D01*
X598939Y447358D01*
X598944Y447360D01*
X599231Y448457D01*
X599229Y448461D01*
X599231Y448462D01*
X599229Y448464D01*
X599232Y448466D01*
X599299Y449597D01*
X599297Y449601D01*
X599299Y449603D01*
X599232Y450734D01*
X599227Y450739D01*
X599231Y450743D01*
X598944Y451840D01*
X598938Y451844D01*
X598941Y451849D01*
X598446Y452868D01*
X598440Y452871D01*
X598441Y452876D01*
X597757Y453779D01*
X597750Y453781D01*
X597750Y453786D01*
X596903Y454539D01*
X596896Y454539D01*
X596895Y454544D01*
X595918Y455117D01*
X595911Y455116D01*
X595909Y455121D01*
X594838Y455492D01*
X594832Y455489D01*
X594829Y455494D01*
X593707Y455649D01*
X593702Y455646D01*
X593700Y455649D01*
X581700Y455649D01*
X581695Y455646D01*
X581692Y455649D01*
X580425Y455444D01*
X580419Y455438D01*
X580415Y455441D01*
X579225Y454959D01*
X579221Y454952D01*
X579215Y454954D01*
X578162Y454220D01*
X578160Y454212D01*
X578154Y454213D01*
X577291Y453263D01*
X577290Y453254D01*
X577285Y453254D01*
X576655Y452135D01*
X576656Y452127D01*
X576650Y452125D01*
X576285Y450895D01*
X576288Y450887D01*
X576283Y450884D01*
X576201Y449603D01*
X576204Y449599D01*
X576201Y449597D01*
X576283Y448316D01*
X576289Y448310D01*
X576285Y448305D01*
X576650Y447075D01*
X576657Y447070D01*
X576655Y447065D01*
X577285Y445946D01*
X577292Y445943D01*
X577291Y445937D01*
X578154Y444987D01*
X578162Y444986D01*
X578162Y444980D01*
X579215Y444246D01*
X579223Y444246D01*
X579225Y444241D01*
X580415Y443759D01*
X580422Y443761D01*
X580425Y443756D01*
X581692Y443551D01*
X581697Y443554D01*
X581700Y443551D01*
X593700Y443551D01*
X593704Y443554D01*
G37*
G36*
X1127104Y443554D02*
X1127104Y443554D01*
X1127107Y443551D01*
X1128229Y443706D01*
X1128234Y443711D01*
X1128238Y443708D01*
X1129309Y444079D01*
X1129313Y444085D01*
X1129318Y444083D01*
X1130295Y444656D01*
X1130298Y444662D01*
X1130303Y444661D01*
X1131150Y445414D01*
X1131152Y445421D01*
X1131157Y445421D01*
X1131841Y446324D01*
X1131841Y446331D01*
X1131846Y446332D01*
X1132341Y447351D01*
X1132339Y447358D01*
X1132344Y447360D01*
X1132631Y448457D01*
X1132629Y448461D01*
X1132631Y448462D01*
X1132629Y448464D01*
X1132632Y448466D01*
X1132699Y449597D01*
X1132697Y449601D01*
X1132699Y449603D01*
X1132632Y450734D01*
X1132627Y450739D01*
X1132631Y450743D01*
X1132344Y451840D01*
X1132338Y451844D01*
X1132341Y451849D01*
X1131846Y452868D01*
X1131840Y452871D01*
X1131841Y452876D01*
X1131157Y453779D01*
X1131150Y453781D01*
X1131150Y453786D01*
X1130303Y454539D01*
X1130296Y454539D01*
X1130295Y454544D01*
X1129318Y455117D01*
X1129311Y455116D01*
X1129309Y455121D01*
X1128238Y455492D01*
X1128232Y455489D01*
X1128229Y455494D01*
X1127107Y455649D01*
X1127102Y455646D01*
X1127100Y455649D01*
X1115100Y455649D01*
X1115095Y455646D01*
X1115092Y455649D01*
X1113825Y455444D01*
X1113819Y455438D01*
X1113815Y455441D01*
X1112625Y454959D01*
X1112621Y454952D01*
X1112615Y454954D01*
X1111562Y454220D01*
X1111560Y454212D01*
X1111554Y454213D01*
X1110691Y453263D01*
X1110690Y453254D01*
X1110685Y453254D01*
X1110055Y452135D01*
X1110056Y452127D01*
X1110050Y452125D01*
X1109685Y450895D01*
X1109688Y450887D01*
X1109683Y450884D01*
X1109601Y449603D01*
X1109604Y449599D01*
X1109601Y449597D01*
X1109683Y448316D01*
X1109689Y448310D01*
X1109685Y448305D01*
X1110050Y447075D01*
X1110057Y447070D01*
X1110055Y447065D01*
X1110685Y445946D01*
X1110692Y445943D01*
X1110691Y445937D01*
X1111554Y444987D01*
X1111562Y444986D01*
X1111562Y444980D01*
X1112615Y444246D01*
X1112623Y444246D01*
X1112625Y444241D01*
X1113815Y443759D01*
X1113822Y443761D01*
X1113825Y443756D01*
X1115092Y443551D01*
X1115097Y443554D01*
X1115100Y443551D01*
X1127100Y443551D01*
X1127104Y443554D01*
G37*
G36*
X60304Y357154D02*
X60304Y357154D01*
X60307Y357151D01*
X61429Y357306D01*
X61434Y357311D01*
X61438Y357308D01*
X62509Y357679D01*
X62513Y357685D01*
X62518Y357683D01*
X63495Y358256D01*
X63498Y358262D01*
X63503Y358261D01*
X64350Y359014D01*
X64352Y359021D01*
X64357Y359021D01*
X65041Y359924D01*
X65041Y359931D01*
X65046Y359932D01*
X65541Y360951D01*
X65539Y360958D01*
X65544Y360960D01*
X65831Y362057D01*
X65829Y362061D01*
X65831Y362062D01*
X65829Y362064D01*
X65832Y362066D01*
X65899Y363197D01*
X65897Y363201D01*
X65899Y363203D01*
X65832Y364334D01*
X65827Y364339D01*
X65831Y364343D01*
X65544Y365440D01*
X65538Y365444D01*
X65541Y365449D01*
X65046Y366468D01*
X65040Y366471D01*
X65041Y366476D01*
X64357Y367379D01*
X64350Y367381D01*
X64350Y367386D01*
X63503Y368139D01*
X63496Y368139D01*
X63495Y368144D01*
X62518Y368717D01*
X62511Y368716D01*
X62509Y368721D01*
X61438Y369092D01*
X61432Y369089D01*
X61429Y369094D01*
X60307Y369249D01*
X60302Y369246D01*
X60300Y369249D01*
X48300Y369249D01*
X48295Y369246D01*
X48292Y369249D01*
X47025Y369044D01*
X47019Y369038D01*
X47015Y369041D01*
X45825Y368559D01*
X45821Y368552D01*
X45815Y368554D01*
X44762Y367820D01*
X44760Y367812D01*
X44754Y367813D01*
X43891Y366863D01*
X43890Y366854D01*
X43885Y366854D01*
X43255Y365735D01*
X43256Y365727D01*
X43250Y365725D01*
X42885Y364495D01*
X42888Y364487D01*
X42883Y364484D01*
X42801Y363203D01*
X42804Y363199D01*
X42801Y363197D01*
X42883Y361916D01*
X42889Y361910D01*
X42885Y361905D01*
X43250Y360675D01*
X43257Y360670D01*
X43255Y360665D01*
X43885Y359546D01*
X43892Y359543D01*
X43891Y359537D01*
X44754Y358587D01*
X44762Y358586D01*
X44762Y358580D01*
X45815Y357846D01*
X45823Y357846D01*
X45825Y357841D01*
X47015Y357359D01*
X47022Y357361D01*
X47025Y357356D01*
X48292Y357151D01*
X48297Y357154D01*
X48300Y357151D01*
X60300Y357151D01*
X60304Y357154D01*
G37*
G36*
X593704Y357154D02*
X593704Y357154D01*
X593707Y357151D01*
X594829Y357306D01*
X594834Y357311D01*
X594838Y357308D01*
X595909Y357679D01*
X595913Y357685D01*
X595918Y357683D01*
X596895Y358256D01*
X596898Y358262D01*
X596903Y358261D01*
X597750Y359014D01*
X597752Y359021D01*
X597757Y359021D01*
X598441Y359924D01*
X598441Y359931D01*
X598446Y359932D01*
X598941Y360951D01*
X598939Y360958D01*
X598944Y360960D01*
X599231Y362057D01*
X599229Y362061D01*
X599231Y362062D01*
X599229Y362064D01*
X599232Y362066D01*
X599299Y363197D01*
X599297Y363201D01*
X599299Y363203D01*
X599232Y364334D01*
X599227Y364339D01*
X599231Y364343D01*
X598944Y365440D01*
X598938Y365444D01*
X598941Y365449D01*
X598446Y366468D01*
X598440Y366471D01*
X598441Y366476D01*
X597757Y367379D01*
X597750Y367381D01*
X597750Y367386D01*
X596903Y368139D01*
X596896Y368139D01*
X596895Y368144D01*
X595918Y368717D01*
X595911Y368716D01*
X595909Y368721D01*
X594838Y369092D01*
X594832Y369089D01*
X594829Y369094D01*
X593707Y369249D01*
X593702Y369246D01*
X593700Y369249D01*
X581700Y369249D01*
X581695Y369246D01*
X581692Y369249D01*
X580425Y369044D01*
X580419Y369038D01*
X580415Y369041D01*
X579225Y368559D01*
X579221Y368552D01*
X579215Y368554D01*
X578162Y367820D01*
X578160Y367812D01*
X578154Y367813D01*
X577291Y366863D01*
X577290Y366854D01*
X577285Y366854D01*
X576655Y365735D01*
X576656Y365727D01*
X576650Y365725D01*
X576285Y364495D01*
X576288Y364487D01*
X576283Y364484D01*
X576201Y363203D01*
X576204Y363199D01*
X576201Y363197D01*
X576283Y361916D01*
X576289Y361910D01*
X576285Y361905D01*
X576650Y360675D01*
X576657Y360670D01*
X576655Y360665D01*
X577285Y359546D01*
X577292Y359543D01*
X577291Y359537D01*
X578154Y358587D01*
X578162Y358586D01*
X578162Y358580D01*
X579215Y357846D01*
X579223Y357846D01*
X579225Y357841D01*
X580415Y357359D01*
X580422Y357361D01*
X580425Y357356D01*
X581692Y357151D01*
X581697Y357154D01*
X581700Y357151D01*
X593700Y357151D01*
X593704Y357154D01*
G37*
G36*
X1127104Y357154D02*
X1127104Y357154D01*
X1127107Y357151D01*
X1128229Y357306D01*
X1128234Y357311D01*
X1128238Y357308D01*
X1129309Y357679D01*
X1129313Y357685D01*
X1129318Y357683D01*
X1130295Y358256D01*
X1130298Y358262D01*
X1130303Y358261D01*
X1131150Y359014D01*
X1131152Y359021D01*
X1131157Y359021D01*
X1131841Y359924D01*
X1131841Y359931D01*
X1131846Y359932D01*
X1132341Y360951D01*
X1132339Y360958D01*
X1132344Y360960D01*
X1132631Y362057D01*
X1132629Y362061D01*
X1132631Y362062D01*
X1132629Y362064D01*
X1132632Y362066D01*
X1132699Y363197D01*
X1132697Y363201D01*
X1132699Y363203D01*
X1132632Y364334D01*
X1132627Y364339D01*
X1132631Y364343D01*
X1132344Y365440D01*
X1132338Y365444D01*
X1132341Y365449D01*
X1131846Y366468D01*
X1131840Y366471D01*
X1131841Y366476D01*
X1131157Y367379D01*
X1131150Y367381D01*
X1131150Y367386D01*
X1130303Y368139D01*
X1130296Y368139D01*
X1130295Y368144D01*
X1129318Y368717D01*
X1129311Y368716D01*
X1129309Y368721D01*
X1128238Y369092D01*
X1128232Y369089D01*
X1128229Y369094D01*
X1127107Y369249D01*
X1127102Y369246D01*
X1127100Y369249D01*
X1115100Y369249D01*
X1115095Y369246D01*
X1115092Y369249D01*
X1113825Y369044D01*
X1113819Y369038D01*
X1113815Y369041D01*
X1112625Y368559D01*
X1112621Y368552D01*
X1112615Y368554D01*
X1111562Y367820D01*
X1111560Y367812D01*
X1111554Y367813D01*
X1110691Y366863D01*
X1110690Y366854D01*
X1110685Y366854D01*
X1110055Y365735D01*
X1110056Y365727D01*
X1110050Y365725D01*
X1109685Y364495D01*
X1109688Y364487D01*
X1109683Y364484D01*
X1109601Y363203D01*
X1109604Y363199D01*
X1109601Y363197D01*
X1109683Y361916D01*
X1109689Y361910D01*
X1109685Y361905D01*
X1110050Y360675D01*
X1110057Y360670D01*
X1110055Y360665D01*
X1110685Y359546D01*
X1110692Y359543D01*
X1110691Y359537D01*
X1111554Y358587D01*
X1111562Y358586D01*
X1111562Y358580D01*
X1112615Y357846D01*
X1112623Y357846D01*
X1112625Y357841D01*
X1113815Y357359D01*
X1113822Y357361D01*
X1113825Y357356D01*
X1115092Y357151D01*
X1115097Y357154D01*
X1115100Y357151D01*
X1127100Y357151D01*
X1127104Y357154D01*
G37*
G36*
X15503Y443553D02*
X15503Y443553D01*
X15505Y443551D01*
X16681Y443662D01*
X16686Y443667D01*
X16690Y443664D01*
X17822Y444002D01*
X17826Y444008D01*
X17831Y444006D01*
X18875Y444558D01*
X18878Y444565D01*
X18883Y444563D01*
X19799Y445309D01*
X19800Y445316D01*
X19806Y445316D01*
X20559Y446226D01*
X20559Y446233D01*
X20564Y446234D01*
X21125Y447273D01*
X21124Y447278D01*
X21128Y447280D01*
X21127Y447281D01*
X21129Y447282D01*
X21476Y448411D01*
X21476Y448412D01*
X21477Y448413D01*
X21474Y448417D01*
X21478Y448420D01*
X21599Y449595D01*
X21595Y449602D01*
X21599Y449606D01*
X21442Y450946D01*
X21437Y450952D01*
X21440Y450957D01*
X20989Y452228D01*
X20982Y452233D01*
X20984Y452238D01*
X20262Y453377D01*
X20254Y453380D01*
X20255Y453386D01*
X19297Y454336D01*
X19289Y454337D01*
X19288Y454343D01*
X18143Y455056D01*
X18135Y455055D01*
X18133Y455061D01*
X16857Y455501D01*
X16850Y455499D01*
X16847Y455503D01*
X15505Y455649D01*
X15502Y455647D01*
X15500Y455649D01*
X9500Y455649D01*
X9497Y455647D01*
X9494Y455649D01*
X8165Y455494D01*
X8159Y455488D01*
X8155Y455491D01*
X6894Y455044D01*
X6889Y455037D01*
X6884Y455039D01*
X5754Y454322D01*
X5751Y454315D01*
X5745Y454316D01*
X4803Y453366D01*
X4802Y453357D01*
X4796Y453357D01*
X4089Y452221D01*
X4090Y452213D01*
X4084Y452211D01*
X3648Y450946D01*
X3650Y450938D01*
X3645Y450936D01*
X3501Y449605D01*
X3505Y449599D01*
X3501Y449595D01*
X3611Y448429D01*
X3616Y448424D01*
X3613Y448420D01*
X3948Y447297D01*
X3954Y447293D01*
X3952Y447289D01*
X4500Y446253D01*
X4506Y446250D01*
X4505Y446245D01*
X5244Y445337D01*
X5251Y445335D01*
X5251Y445330D01*
X6153Y444583D01*
X6161Y444583D01*
X6161Y444578D01*
X7192Y444021D01*
X7199Y444022D01*
X7201Y444017D01*
X8320Y443673D01*
X8327Y443675D01*
X8330Y443671D01*
X9495Y443551D01*
X9498Y443553D01*
X9500Y443551D01*
X15500Y443551D01*
X15503Y443553D01*
G37*
G36*
X1082303Y443553D02*
X1082303Y443553D01*
X1082305Y443551D01*
X1083481Y443662D01*
X1083486Y443667D01*
X1083490Y443664D01*
X1084622Y444002D01*
X1084626Y444008D01*
X1084631Y444006D01*
X1085675Y444558D01*
X1085678Y444565D01*
X1085683Y444563D01*
X1086599Y445309D01*
X1086600Y445316D01*
X1086606Y445316D01*
X1087359Y446226D01*
X1087359Y446233D01*
X1087364Y446234D01*
X1087925Y447273D01*
X1087924Y447278D01*
X1087928Y447280D01*
X1087927Y447281D01*
X1087929Y447282D01*
X1088276Y448411D01*
X1088276Y448412D01*
X1088277Y448413D01*
X1088274Y448417D01*
X1088278Y448420D01*
X1088399Y449595D01*
X1088395Y449602D01*
X1088399Y449606D01*
X1088242Y450946D01*
X1088237Y450952D01*
X1088240Y450957D01*
X1087789Y452228D01*
X1087782Y452233D01*
X1087784Y452238D01*
X1087062Y453377D01*
X1087054Y453380D01*
X1087055Y453386D01*
X1086097Y454336D01*
X1086089Y454337D01*
X1086088Y454343D01*
X1084943Y455056D01*
X1084935Y455055D01*
X1084933Y455061D01*
X1083657Y455501D01*
X1083650Y455499D01*
X1083647Y455503D01*
X1082305Y455649D01*
X1082302Y455647D01*
X1082300Y455649D01*
X1076300Y455649D01*
X1076297Y455647D01*
X1076294Y455649D01*
X1074965Y455494D01*
X1074959Y455488D01*
X1074955Y455491D01*
X1073694Y455044D01*
X1073689Y455037D01*
X1073684Y455039D01*
X1072554Y454322D01*
X1072551Y454315D01*
X1072545Y454316D01*
X1071603Y453366D01*
X1071602Y453357D01*
X1071596Y453357D01*
X1070889Y452221D01*
X1070890Y452213D01*
X1070884Y452211D01*
X1070448Y450946D01*
X1070450Y450938D01*
X1070445Y450936D01*
X1070301Y449605D01*
X1070305Y449599D01*
X1070301Y449595D01*
X1070411Y448429D01*
X1070416Y448424D01*
X1070413Y448420D01*
X1070748Y447297D01*
X1070754Y447293D01*
X1070752Y447289D01*
X1071300Y446253D01*
X1071306Y446250D01*
X1071305Y446245D01*
X1072044Y445337D01*
X1072051Y445335D01*
X1072051Y445330D01*
X1072953Y444583D01*
X1072961Y444583D01*
X1072961Y444578D01*
X1073992Y444021D01*
X1073999Y444022D01*
X1074001Y444017D01*
X1075120Y443673D01*
X1075127Y443675D01*
X1075130Y443671D01*
X1076295Y443551D01*
X1076298Y443553D01*
X1076300Y443551D01*
X1082300Y443551D01*
X1082303Y443553D01*
G37*
G36*
X548903Y443553D02*
X548903Y443553D01*
X548905Y443551D01*
X550081Y443662D01*
X550086Y443667D01*
X550090Y443664D01*
X551222Y444002D01*
X551226Y444008D01*
X551231Y444006D01*
X552275Y444558D01*
X552278Y444565D01*
X552283Y444563D01*
X553199Y445309D01*
X553200Y445316D01*
X553206Y445316D01*
X553959Y446226D01*
X553959Y446233D01*
X553964Y446234D01*
X554525Y447273D01*
X554524Y447278D01*
X554528Y447280D01*
X554527Y447281D01*
X554529Y447282D01*
X554876Y448411D01*
X554876Y448412D01*
X554877Y448413D01*
X554874Y448417D01*
X554878Y448420D01*
X554999Y449595D01*
X554995Y449602D01*
X554999Y449606D01*
X554842Y450946D01*
X554837Y450952D01*
X554840Y450957D01*
X554389Y452228D01*
X554382Y452233D01*
X554384Y452238D01*
X553662Y453377D01*
X553654Y453380D01*
X553655Y453386D01*
X552697Y454336D01*
X552689Y454337D01*
X552688Y454343D01*
X551543Y455056D01*
X551535Y455055D01*
X551533Y455061D01*
X550257Y455501D01*
X550250Y455499D01*
X550247Y455503D01*
X548905Y455649D01*
X548902Y455647D01*
X548900Y455649D01*
X542900Y455649D01*
X542897Y455647D01*
X542894Y455649D01*
X541565Y455494D01*
X541559Y455488D01*
X541555Y455491D01*
X540294Y455044D01*
X540289Y455037D01*
X540284Y455039D01*
X539154Y454322D01*
X539151Y454315D01*
X539145Y454316D01*
X538203Y453366D01*
X538202Y453357D01*
X538196Y453357D01*
X537489Y452221D01*
X537490Y452213D01*
X537484Y452211D01*
X537048Y450946D01*
X537050Y450938D01*
X537045Y450936D01*
X536901Y449605D01*
X536905Y449599D01*
X536901Y449595D01*
X537011Y448429D01*
X537016Y448424D01*
X537013Y448420D01*
X537348Y447297D01*
X537354Y447293D01*
X537352Y447289D01*
X537900Y446253D01*
X537906Y446250D01*
X537905Y446245D01*
X538644Y445337D01*
X538651Y445335D01*
X538651Y445330D01*
X539553Y444583D01*
X539561Y444583D01*
X539561Y444578D01*
X540592Y444021D01*
X540599Y444022D01*
X540601Y444017D01*
X541720Y443673D01*
X541727Y443675D01*
X541730Y443671D01*
X542895Y443551D01*
X542898Y443553D01*
X542900Y443551D01*
X548900Y443551D01*
X548903Y443553D01*
G37*
G36*
X1082303Y357153D02*
X1082303Y357153D01*
X1082305Y357151D01*
X1083481Y357262D01*
X1083486Y357267D01*
X1083490Y357264D01*
X1084622Y357602D01*
X1084626Y357608D01*
X1084631Y357606D01*
X1085675Y358158D01*
X1085678Y358165D01*
X1085683Y358163D01*
X1086599Y358909D01*
X1086600Y358916D01*
X1086606Y358916D01*
X1087359Y359826D01*
X1087359Y359833D01*
X1087364Y359834D01*
X1087925Y360873D01*
X1087924Y360878D01*
X1087928Y360880D01*
X1087927Y360881D01*
X1087929Y360882D01*
X1088276Y362011D01*
X1088276Y362012D01*
X1088277Y362013D01*
X1088274Y362017D01*
X1088278Y362020D01*
X1088399Y363195D01*
X1088395Y363202D01*
X1088399Y363206D01*
X1088242Y364546D01*
X1088237Y364552D01*
X1088240Y364557D01*
X1087789Y365828D01*
X1087782Y365833D01*
X1087784Y365838D01*
X1087062Y366977D01*
X1087054Y366980D01*
X1087055Y366986D01*
X1086097Y367936D01*
X1086089Y367937D01*
X1086088Y367943D01*
X1084943Y368656D01*
X1084935Y368655D01*
X1084933Y368661D01*
X1083657Y369101D01*
X1083650Y369099D01*
X1083647Y369103D01*
X1082305Y369249D01*
X1082302Y369247D01*
X1082300Y369249D01*
X1076300Y369249D01*
X1076297Y369247D01*
X1076294Y369249D01*
X1074965Y369094D01*
X1074959Y369088D01*
X1074955Y369091D01*
X1073694Y368644D01*
X1073689Y368637D01*
X1073684Y368639D01*
X1072554Y367922D01*
X1072551Y367915D01*
X1072545Y367916D01*
X1071603Y366966D01*
X1071602Y366957D01*
X1071596Y366957D01*
X1070889Y365821D01*
X1070890Y365813D01*
X1070884Y365811D01*
X1070448Y364546D01*
X1070450Y364538D01*
X1070445Y364536D01*
X1070301Y363205D01*
X1070305Y363199D01*
X1070301Y363195D01*
X1070411Y362029D01*
X1070416Y362024D01*
X1070413Y362020D01*
X1070748Y360897D01*
X1070754Y360893D01*
X1070752Y360889D01*
X1071300Y359853D01*
X1071306Y359850D01*
X1071305Y359845D01*
X1072044Y358937D01*
X1072051Y358935D01*
X1072051Y358930D01*
X1072953Y358183D01*
X1072961Y358183D01*
X1072961Y358178D01*
X1073992Y357621D01*
X1073999Y357622D01*
X1074001Y357617D01*
X1075120Y357273D01*
X1075127Y357275D01*
X1075130Y357271D01*
X1076295Y357151D01*
X1076298Y357153D01*
X1076300Y357151D01*
X1082300Y357151D01*
X1082303Y357153D01*
G37*
G36*
X15503Y357153D02*
X15503Y357153D01*
X15505Y357151D01*
X16681Y357262D01*
X16686Y357267D01*
X16690Y357264D01*
X17822Y357602D01*
X17826Y357608D01*
X17831Y357606D01*
X18875Y358158D01*
X18878Y358165D01*
X18883Y358163D01*
X19799Y358909D01*
X19800Y358916D01*
X19806Y358916D01*
X20559Y359826D01*
X20559Y359833D01*
X20564Y359834D01*
X21125Y360873D01*
X21124Y360878D01*
X21128Y360880D01*
X21127Y360881D01*
X21129Y360882D01*
X21476Y362011D01*
X21476Y362012D01*
X21477Y362013D01*
X21474Y362017D01*
X21478Y362020D01*
X21599Y363195D01*
X21595Y363202D01*
X21599Y363206D01*
X21442Y364546D01*
X21437Y364552D01*
X21440Y364557D01*
X20989Y365828D01*
X20982Y365833D01*
X20984Y365838D01*
X20262Y366977D01*
X20254Y366980D01*
X20255Y366986D01*
X19297Y367936D01*
X19289Y367937D01*
X19288Y367943D01*
X18143Y368656D01*
X18135Y368655D01*
X18133Y368661D01*
X16857Y369101D01*
X16850Y369099D01*
X16847Y369103D01*
X15505Y369249D01*
X15502Y369247D01*
X15500Y369249D01*
X9500Y369249D01*
X9497Y369247D01*
X9494Y369249D01*
X8165Y369094D01*
X8159Y369088D01*
X8155Y369091D01*
X6894Y368644D01*
X6889Y368637D01*
X6884Y368639D01*
X5754Y367922D01*
X5751Y367915D01*
X5745Y367916D01*
X4803Y366966D01*
X4802Y366957D01*
X4796Y366957D01*
X4089Y365821D01*
X4090Y365813D01*
X4084Y365811D01*
X3648Y364546D01*
X3650Y364538D01*
X3645Y364536D01*
X3501Y363205D01*
X3505Y363199D01*
X3501Y363195D01*
X3611Y362029D01*
X3616Y362024D01*
X3613Y362020D01*
X3948Y360897D01*
X3954Y360893D01*
X3952Y360889D01*
X4500Y359853D01*
X4506Y359850D01*
X4505Y359845D01*
X5244Y358937D01*
X5251Y358935D01*
X5251Y358930D01*
X6153Y358183D01*
X6161Y358183D01*
X6161Y358178D01*
X7192Y357621D01*
X7199Y357622D01*
X7201Y357617D01*
X8320Y357273D01*
X8327Y357275D01*
X8330Y357271D01*
X9495Y357151D01*
X9498Y357153D01*
X9500Y357151D01*
X15500Y357151D01*
X15503Y357153D01*
G37*
G36*
X548903Y357153D02*
X548903Y357153D01*
X548905Y357151D01*
X550081Y357262D01*
X550086Y357267D01*
X550090Y357264D01*
X551222Y357602D01*
X551226Y357608D01*
X551231Y357606D01*
X552275Y358158D01*
X552278Y358165D01*
X552283Y358163D01*
X553199Y358909D01*
X553200Y358916D01*
X553206Y358916D01*
X553959Y359826D01*
X553959Y359833D01*
X553964Y359834D01*
X554525Y360873D01*
X554524Y360878D01*
X554528Y360880D01*
X554527Y360881D01*
X554529Y360882D01*
X554876Y362011D01*
X554876Y362012D01*
X554877Y362013D01*
X554874Y362017D01*
X554878Y362020D01*
X554999Y363195D01*
X554995Y363202D01*
X554999Y363206D01*
X554842Y364546D01*
X554837Y364552D01*
X554840Y364557D01*
X554389Y365828D01*
X554382Y365833D01*
X554384Y365838D01*
X553662Y366977D01*
X553654Y366980D01*
X553655Y366986D01*
X552697Y367936D01*
X552689Y367937D01*
X552688Y367943D01*
X551543Y368656D01*
X551535Y368655D01*
X551533Y368661D01*
X550257Y369101D01*
X550250Y369099D01*
X550247Y369103D01*
X548905Y369249D01*
X548902Y369247D01*
X548900Y369249D01*
X542900Y369249D01*
X542897Y369247D01*
X542894Y369249D01*
X541565Y369094D01*
X541559Y369088D01*
X541555Y369091D01*
X540294Y368644D01*
X540289Y368637D01*
X540284Y368639D01*
X539154Y367922D01*
X539151Y367915D01*
X539145Y367916D01*
X538203Y366966D01*
X538202Y366957D01*
X538196Y366957D01*
X537489Y365821D01*
X537490Y365813D01*
X537484Y365811D01*
X537048Y364546D01*
X537050Y364538D01*
X537045Y364536D01*
X536901Y363205D01*
X536905Y363199D01*
X536901Y363195D01*
X537011Y362029D01*
X537016Y362024D01*
X537013Y362020D01*
X537348Y360897D01*
X537354Y360893D01*
X537352Y360889D01*
X537900Y359853D01*
X537906Y359850D01*
X537905Y359845D01*
X538644Y358937D01*
X538651Y358935D01*
X538651Y358930D01*
X539553Y358183D01*
X539561Y358183D01*
X539561Y358178D01*
X540592Y357621D01*
X540599Y357622D01*
X540601Y357617D01*
X541720Y357273D01*
X541727Y357275D01*
X541730Y357271D01*
X542895Y357151D01*
X542898Y357153D01*
X542900Y357151D01*
X548900Y357151D01*
X548903Y357153D01*
G37*
G36*
X1195135Y276872D02*
X1195135Y276872D01*
X1195201Y276874D01*
X1195244Y276892D01*
X1195291Y276900D01*
X1195348Y276934D01*
X1195408Y276959D01*
X1195443Y276990D01*
X1195484Y277015D01*
X1195526Y277066D01*
X1195574Y277110D01*
X1195596Y277152D01*
X1195625Y277189D01*
X1195646Y277251D01*
X1195677Y277310D01*
X1195685Y277364D01*
X1195697Y277401D01*
X1195696Y277441D01*
X1195704Y277495D01*
X1195704Y281305D01*
X1195693Y281370D01*
X1195691Y281436D01*
X1195673Y281479D01*
X1195665Y281526D01*
X1195631Y281583D01*
X1195606Y281643D01*
X1195575Y281678D01*
X1195550Y281719D01*
X1195499Y281761D01*
X1195455Y281809D01*
X1195413Y281831D01*
X1195376Y281860D01*
X1195314Y281881D01*
X1195255Y281912D01*
X1195201Y281920D01*
X1195164Y281932D01*
X1195124Y281931D01*
X1195070Y281939D01*
X1192530Y281939D01*
X1192465Y281928D01*
X1192399Y281926D01*
X1192356Y281908D01*
X1192309Y281900D01*
X1192252Y281866D01*
X1192192Y281841D01*
X1192157Y281810D01*
X1192116Y281785D01*
X1192075Y281734D01*
X1192026Y281690D01*
X1192004Y281648D01*
X1191975Y281611D01*
X1191954Y281549D01*
X1191923Y281490D01*
X1191915Y281436D01*
X1191903Y281399D01*
X1191903Y281395D01*
X1191903Y281394D01*
X1191904Y281359D01*
X1191896Y281305D01*
X1191896Y277495D01*
X1191907Y277430D01*
X1191909Y277364D01*
X1191927Y277321D01*
X1191935Y277274D01*
X1191969Y277217D01*
X1191994Y277157D01*
X1192025Y277122D01*
X1192050Y277081D01*
X1192101Y277040D01*
X1192145Y276991D01*
X1192187Y276969D01*
X1192224Y276940D01*
X1192286Y276919D01*
X1192345Y276888D01*
X1192399Y276880D01*
X1192436Y276868D01*
X1192476Y276869D01*
X1192530Y276861D01*
X1195070Y276861D01*
X1195135Y276872D01*
G37*
G36*
X128335Y276872D02*
X128335Y276872D01*
X128401Y276874D01*
X128444Y276892D01*
X128491Y276900D01*
X128548Y276934D01*
X128608Y276959D01*
X128643Y276990D01*
X128684Y277015D01*
X128726Y277066D01*
X128774Y277110D01*
X128796Y277152D01*
X128825Y277189D01*
X128846Y277251D01*
X128877Y277310D01*
X128885Y277364D01*
X128897Y277401D01*
X128896Y277441D01*
X128904Y277495D01*
X128904Y281305D01*
X128893Y281370D01*
X128891Y281436D01*
X128873Y281479D01*
X128865Y281526D01*
X128831Y281583D01*
X128806Y281643D01*
X128775Y281678D01*
X128750Y281719D01*
X128699Y281761D01*
X128655Y281809D01*
X128613Y281831D01*
X128576Y281860D01*
X128514Y281881D01*
X128455Y281912D01*
X128401Y281920D01*
X128364Y281932D01*
X128324Y281931D01*
X128270Y281939D01*
X125730Y281939D01*
X125665Y281928D01*
X125599Y281926D01*
X125556Y281908D01*
X125509Y281900D01*
X125452Y281866D01*
X125392Y281841D01*
X125357Y281810D01*
X125316Y281785D01*
X125275Y281734D01*
X125226Y281690D01*
X125204Y281648D01*
X125175Y281611D01*
X125154Y281549D01*
X125123Y281490D01*
X125115Y281436D01*
X125103Y281399D01*
X125103Y281395D01*
X125103Y281394D01*
X125104Y281359D01*
X125096Y281305D01*
X125096Y277495D01*
X125107Y277430D01*
X125109Y277364D01*
X125127Y277321D01*
X125135Y277274D01*
X125169Y277217D01*
X125194Y277157D01*
X125225Y277122D01*
X125250Y277081D01*
X125301Y277040D01*
X125345Y276991D01*
X125387Y276969D01*
X125424Y276940D01*
X125486Y276919D01*
X125545Y276888D01*
X125599Y276880D01*
X125636Y276868D01*
X125676Y276869D01*
X125730Y276861D01*
X128270Y276861D01*
X128335Y276872D01*
G37*
G36*
X661735Y276872D02*
X661735Y276872D01*
X661801Y276874D01*
X661844Y276892D01*
X661891Y276900D01*
X661948Y276934D01*
X662008Y276959D01*
X662043Y276990D01*
X662084Y277015D01*
X662126Y277066D01*
X662174Y277110D01*
X662196Y277152D01*
X662225Y277189D01*
X662246Y277251D01*
X662277Y277310D01*
X662285Y277364D01*
X662297Y277401D01*
X662296Y277441D01*
X662304Y277495D01*
X662304Y281305D01*
X662293Y281370D01*
X662291Y281436D01*
X662273Y281479D01*
X662265Y281526D01*
X662231Y281583D01*
X662206Y281643D01*
X662175Y281678D01*
X662150Y281719D01*
X662099Y281761D01*
X662055Y281809D01*
X662013Y281831D01*
X661976Y281860D01*
X661914Y281881D01*
X661855Y281912D01*
X661801Y281920D01*
X661764Y281932D01*
X661724Y281931D01*
X661670Y281939D01*
X659130Y281939D01*
X659065Y281928D01*
X658999Y281926D01*
X658956Y281908D01*
X658909Y281900D01*
X658852Y281866D01*
X658792Y281841D01*
X658757Y281810D01*
X658716Y281785D01*
X658675Y281734D01*
X658626Y281690D01*
X658604Y281648D01*
X658575Y281611D01*
X658554Y281549D01*
X658523Y281490D01*
X658515Y281436D01*
X658503Y281399D01*
X658503Y281395D01*
X658503Y281394D01*
X658504Y281359D01*
X658496Y281305D01*
X658496Y277495D01*
X658507Y277430D01*
X658509Y277364D01*
X658527Y277321D01*
X658535Y277274D01*
X658569Y277217D01*
X658594Y277157D01*
X658625Y277122D01*
X658650Y277081D01*
X658701Y277040D01*
X658745Y276991D01*
X658787Y276969D01*
X658824Y276940D01*
X658886Y276919D01*
X658945Y276888D01*
X658999Y276880D01*
X659036Y276868D01*
X659076Y276869D01*
X659130Y276861D01*
X661670Y276861D01*
X661735Y276872D01*
G37*
D10*
X25400Y25400D03*
X25400Y787400D03*
D11*
X425450Y806450D03*
X6350Y6350D03*
D12*
X60900Y14050D03*
X116900Y14050D03*
D13*
X73900Y50800D03*
X83900Y50800D03*
X93900Y50800D03*
X103900Y50800D03*
D14*
X139700Y12700D03*
X165100Y12700D03*
X190500Y12700D03*
X215900Y12700D03*
D12*
X116900Y798750D03*
X60900Y798750D03*
D13*
X103900Y762000D03*
X93900Y762000D03*
X83900Y762000D03*
X73900Y762000D03*
D10*
X406400Y25400D03*
X406400Y787400D03*
D15*
X182000Y254000D03*
X199000Y254000D03*
D16*
X152400Y287900D03*
X152400Y270900D03*
D17*
X79690Y284680D02*
X72710Y284680D01*
X72710Y291660D01*
X79690Y291660D01*
X79690Y284680D01*
X79690Y289480D02*
X72710Y289480D01*
X72710Y267140D02*
X79690Y267140D01*
X72710Y267140D02*
X72710Y274120D01*
X79690Y274120D01*
X79690Y267140D01*
X79690Y271940D02*
X72710Y271940D01*
D16*
X101600Y270900D03*
X101600Y287900D03*
D18*
X203501Y269900D03*
X203501Y279400D03*
X203501Y288900D03*
X177499Y288900D03*
X177499Y269900D03*
D16*
X222250Y287900D03*
X222250Y270900D03*
D15*
X29600Y342900D03*
X46600Y342900D03*
X29600Y469900D03*
X46600Y469900D03*
D19*
X60100Y398900D03*
X60100Y403900D03*
D20*
X60100Y374150D03*
X60100Y381900D03*
D19*
X60100Y388900D03*
X60100Y393900D03*
X60100Y413900D03*
X60100Y408900D03*
D20*
X60100Y438650D03*
X60100Y430900D03*
D19*
X60100Y423900D03*
X60100Y418900D03*
D21*
X49050Y435300D03*
X49050Y377500D03*
D22*
X84850Y411400D03*
D23*
X84600Y406400D03*
X84600Y401400D03*
X93200Y401400D03*
X93200Y406400D03*
X93200Y411400D03*
D24*
X127000Y284607D03*
X127000Y274193D03*
D16*
X241300Y338700D03*
X241300Y321700D03*
D25*
X183750Y335200D03*
X197250Y335200D03*
X197250Y325200D03*
X183750Y325200D03*
D26*
X218000Y386400D03*
D27*
X190500Y406400D03*
D26*
X218000Y391400D03*
X218000Y396400D03*
X218000Y401400D03*
X218000Y406400D03*
X218000Y411400D03*
X218000Y416400D03*
X218000Y421400D03*
X218000Y426400D03*
D28*
X210500Y433900D03*
X205500Y433900D03*
X200500Y433900D03*
X195500Y433900D03*
X190500Y433900D03*
X185500Y433900D03*
X180500Y433900D03*
X175500Y433900D03*
X170500Y433900D03*
D26*
X163000Y426400D03*
X163000Y421400D03*
X163000Y416400D03*
X163000Y411400D03*
X163000Y406400D03*
X163000Y401400D03*
X163000Y396400D03*
X163000Y391400D03*
X163000Y386400D03*
D28*
X170500Y378900D03*
X175500Y378900D03*
X180500Y378900D03*
X185500Y378900D03*
X190500Y378900D03*
X195500Y378900D03*
X200500Y378900D03*
X205500Y378900D03*
X210500Y378900D03*
D15*
X182000Y304800D03*
X199000Y304800D03*
D16*
X215900Y321700D03*
X215900Y338700D03*
X165100Y321700D03*
X165100Y338700D03*
X152400Y321700D03*
X152400Y338700D03*
D15*
X118500Y457200D03*
X135500Y457200D03*
D16*
X228600Y338700D03*
X228600Y321700D03*
D15*
X182000Y469900D03*
X199000Y469900D03*
X135500Y419100D03*
X118500Y419100D03*
X135500Y406400D03*
X118500Y406400D03*
D29*
X406400Y205359D03*
X406400Y74041D03*
D30*
X364280Y129700D03*
X364280Y104700D03*
X364280Y149700D03*
X364280Y174700D03*
D29*
X406400Y383159D03*
X406400Y251841D03*
D30*
X364280Y307500D03*
X364280Y282500D03*
X364280Y327500D03*
X364280Y352500D03*
D29*
X406400Y560959D03*
X406400Y429641D03*
D30*
X364280Y485300D03*
X364280Y460300D03*
X364280Y505300D03*
X364280Y530300D03*
D29*
X406400Y738759D03*
X406400Y607441D03*
D30*
X364280Y663100D03*
X364280Y638100D03*
X364280Y683100D03*
X364280Y708100D03*
D15*
X118500Y355600D03*
X135500Y355600D03*
X135500Y342900D03*
X118500Y342900D03*
D31*
X88900Y467600D03*
X88900Y497600D03*
D32*
X301600Y124300D03*
X282600Y124300D03*
X292100Y103300D03*
D15*
X283600Y139700D03*
X300600Y139700D03*
D32*
X301600Y302100D03*
X282600Y302100D03*
X292100Y281100D03*
D15*
X283600Y317500D03*
X300600Y317500D03*
D32*
X301600Y479900D03*
X282600Y479900D03*
X292100Y458900D03*
D15*
X283600Y495300D03*
X300600Y495300D03*
D32*
X301600Y657700D03*
X282600Y657700D03*
X292100Y636700D03*
D15*
X283600Y673100D03*
X300600Y673100D03*
D33*
X63500Y478536D03*
X63500Y486664D03*
D15*
X80400Y228600D03*
X97400Y228600D03*
X80400Y203200D03*
X97400Y203200D03*
D33*
X127000Y207772D03*
X127000Y215900D03*
X127000Y224028D03*
D15*
X135500Y330200D03*
X118500Y330200D03*
X118500Y381000D03*
X135500Y381000D03*
X118500Y368300D03*
X135500Y368300D03*
D34*
X76200Y125800D03*
X76200Y102800D03*
D14*
X139700Y800100D03*
X165100Y800100D03*
X190500Y800100D03*
X215900Y800100D03*
X241300Y800100D03*
X266700Y800100D03*
X292100Y800100D03*
X317500Y800100D03*
X342900Y800100D03*
X368300Y800100D03*
D10*
X558800Y25400D03*
X558800Y787400D03*
D11*
X958850Y806450D03*
X539750Y6350D03*
D12*
X594300Y14050D03*
X650300Y14050D03*
D13*
X607300Y50800D03*
X617300Y50800D03*
X627300Y50800D03*
X637300Y50800D03*
D14*
X673100Y12700D03*
X698500Y12700D03*
X723900Y12700D03*
X749300Y12700D03*
D12*
X650300Y798750D03*
X594300Y798750D03*
D13*
X637300Y762000D03*
X627300Y762000D03*
X617300Y762000D03*
X607300Y762000D03*
D10*
X939800Y25400D03*
X939800Y787400D03*
D15*
X715400Y254000D03*
X732400Y254000D03*
D16*
X685800Y287900D03*
X685800Y270900D03*
D17*
X613090Y284680D02*
X606110Y284680D01*
X606110Y291660D01*
X613090Y291660D01*
X613090Y284680D01*
X613090Y289480D02*
X606110Y289480D01*
X606110Y267140D02*
X613090Y267140D01*
X606110Y267140D02*
X606110Y274120D01*
X613090Y274120D01*
X613090Y267140D01*
X613090Y271940D02*
X606110Y271940D01*
D16*
X635000Y270900D03*
X635000Y287900D03*
D18*
X736901Y269900D03*
X736901Y279400D03*
X736901Y288900D03*
X710899Y288900D03*
X710899Y269900D03*
D16*
X755650Y287900D03*
X755650Y270900D03*
D15*
X563000Y342900D03*
X580000Y342900D03*
X563000Y469900D03*
X580000Y469900D03*
D19*
X593500Y398900D03*
X593500Y403900D03*
D20*
X593500Y374150D03*
X593500Y381900D03*
D19*
X593500Y388900D03*
X593500Y393900D03*
X593500Y413900D03*
X593500Y408900D03*
D20*
X593500Y438650D03*
X593500Y430900D03*
D19*
X593500Y423900D03*
X593500Y418900D03*
D21*
X582450Y435300D03*
X582450Y377500D03*
D22*
X618250Y411400D03*
D23*
X618000Y406400D03*
X618000Y401400D03*
X626600Y401400D03*
X626600Y406400D03*
X626600Y411400D03*
D24*
X660400Y284607D03*
X660400Y274193D03*
D16*
X774700Y338700D03*
X774700Y321700D03*
D25*
X717150Y335200D03*
X730650Y335200D03*
X730650Y325200D03*
X717150Y325200D03*
D26*
X751400Y386400D03*
D27*
X723900Y406400D03*
D26*
X751400Y391400D03*
X751400Y396400D03*
X751400Y401400D03*
X751400Y406400D03*
X751400Y411400D03*
X751400Y416400D03*
X751400Y421400D03*
X751400Y426400D03*
D28*
X743900Y433900D03*
X738900Y433900D03*
X733900Y433900D03*
X728900Y433900D03*
X723900Y433900D03*
X718900Y433900D03*
X713900Y433900D03*
X708900Y433900D03*
X703900Y433900D03*
D26*
X696400Y426400D03*
X696400Y421400D03*
X696400Y416400D03*
X696400Y411400D03*
X696400Y406400D03*
X696400Y401400D03*
X696400Y396400D03*
X696400Y391400D03*
X696400Y386400D03*
D28*
X703900Y378900D03*
X708900Y378900D03*
X713900Y378900D03*
X718900Y378900D03*
X723900Y378900D03*
X728900Y378900D03*
X733900Y378900D03*
X738900Y378900D03*
X743900Y378900D03*
D15*
X715400Y304800D03*
X732400Y304800D03*
D16*
X749300Y321700D03*
X749300Y338700D03*
X698500Y321700D03*
X698500Y338700D03*
X685800Y321700D03*
X685800Y338700D03*
D15*
X651900Y457200D03*
X668900Y457200D03*
D16*
X762000Y338700D03*
X762000Y321700D03*
D15*
X715400Y469900D03*
X732400Y469900D03*
X668900Y419100D03*
X651900Y419100D03*
X668900Y406400D03*
X651900Y406400D03*
D29*
X939800Y205359D03*
X939800Y74041D03*
D30*
X897680Y129700D03*
X897680Y104700D03*
X897680Y149700D03*
X897680Y174700D03*
D29*
X939800Y383159D03*
X939800Y251841D03*
D30*
X897680Y307500D03*
X897680Y282500D03*
X897680Y327500D03*
X897680Y352500D03*
D29*
X939800Y560959D03*
X939800Y429641D03*
D30*
X897680Y485300D03*
X897680Y460300D03*
X897680Y505300D03*
X897680Y530300D03*
D29*
X939800Y738759D03*
X939800Y607441D03*
D30*
X897680Y663100D03*
X897680Y638100D03*
X897680Y683100D03*
X897680Y708100D03*
D15*
X651900Y355600D03*
X668900Y355600D03*
X668900Y342900D03*
X651900Y342900D03*
D31*
X622300Y467600D03*
X622300Y497600D03*
D32*
X835000Y124300D03*
X816000Y124300D03*
X825500Y103300D03*
D15*
X817000Y139700D03*
X834000Y139700D03*
D32*
X835000Y302100D03*
X816000Y302100D03*
X825500Y281100D03*
D15*
X817000Y317500D03*
X834000Y317500D03*
D32*
X835000Y479900D03*
X816000Y479900D03*
X825500Y458900D03*
D15*
X817000Y495300D03*
X834000Y495300D03*
D32*
X835000Y657700D03*
X816000Y657700D03*
X825500Y636700D03*
D15*
X817000Y673100D03*
X834000Y673100D03*
D33*
X596900Y478536D03*
X596900Y486664D03*
D15*
X613800Y228600D03*
X630800Y228600D03*
X613800Y203200D03*
X630800Y203200D03*
D33*
X660400Y207772D03*
X660400Y215900D03*
X660400Y224028D03*
D15*
X668900Y330200D03*
X651900Y330200D03*
X651900Y381000D03*
X668900Y381000D03*
X651900Y368300D03*
X668900Y368300D03*
D34*
X609600Y125800D03*
X609600Y102800D03*
D14*
X673100Y800100D03*
X698500Y800100D03*
X723900Y800100D03*
X749300Y800100D03*
X774700Y800100D03*
X800100Y800100D03*
X825500Y800100D03*
X850900Y800100D03*
X876300Y800100D03*
X901700Y800100D03*
D10*
X1092200Y25400D03*
X1092200Y787400D03*
D11*
X1492250Y806450D03*
X1073150Y6350D03*
D12*
X1127700Y14050D03*
X1183700Y14050D03*
D13*
X1140700Y50800D03*
X1150700Y50800D03*
X1160700Y50800D03*
X1170700Y50800D03*
D14*
X1206500Y12700D03*
X1231900Y12700D03*
X1257300Y12700D03*
X1282700Y12700D03*
D12*
X1183700Y798750D03*
X1127700Y798750D03*
D13*
X1170700Y762000D03*
X1160700Y762000D03*
X1150700Y762000D03*
X1140700Y762000D03*
D10*
X1473200Y25400D03*
X1473200Y787400D03*
D15*
X1248800Y254000D03*
X1265800Y254000D03*
D16*
X1219200Y287900D03*
X1219200Y270900D03*
D17*
X1146490Y284680D02*
X1139510Y284680D01*
X1139510Y291660D01*
X1146490Y291660D01*
X1146490Y284680D01*
X1146490Y289480D02*
X1139510Y289480D01*
X1139510Y267140D02*
X1146490Y267140D01*
X1139510Y267140D02*
X1139510Y274120D01*
X1146490Y274120D01*
X1146490Y267140D01*
X1146490Y271940D02*
X1139510Y271940D01*
D16*
X1168400Y270900D03*
X1168400Y287900D03*
D18*
X1270301Y269900D03*
X1270301Y279400D03*
X1270301Y288900D03*
X1244299Y288900D03*
X1244299Y269900D03*
D16*
X1289050Y287900D03*
X1289050Y270900D03*
D15*
X1096400Y342900D03*
X1113400Y342900D03*
X1096400Y469900D03*
X1113400Y469900D03*
D19*
X1126900Y398900D03*
X1126900Y403900D03*
D20*
X1126900Y374150D03*
X1126900Y381900D03*
D19*
X1126900Y388900D03*
X1126900Y393900D03*
X1126900Y413900D03*
X1126900Y408900D03*
D20*
X1126900Y438650D03*
X1126900Y430900D03*
D19*
X1126900Y423900D03*
X1126900Y418900D03*
D21*
X1115850Y435300D03*
X1115850Y377500D03*
D22*
X1151650Y411400D03*
D23*
X1151400Y406400D03*
X1151400Y401400D03*
X1160000Y401400D03*
X1160000Y406400D03*
X1160000Y411400D03*
D24*
X1193800Y284607D03*
X1193800Y274193D03*
D16*
X1308100Y338700D03*
X1308100Y321700D03*
D25*
X1250550Y335200D03*
X1264050Y335200D03*
X1264050Y325200D03*
X1250550Y325200D03*
D26*
X1284800Y386400D03*
D27*
X1257300Y406400D03*
D26*
X1284800Y391400D03*
X1284800Y396400D03*
X1284800Y401400D03*
X1284800Y406400D03*
X1284800Y411400D03*
X1284800Y416400D03*
X1284800Y421400D03*
X1284800Y426400D03*
D28*
X1277300Y433900D03*
X1272300Y433900D03*
X1267300Y433900D03*
X1262300Y433900D03*
X1257300Y433900D03*
X1252300Y433900D03*
X1247300Y433900D03*
X1242300Y433900D03*
X1237300Y433900D03*
D26*
X1229800Y426400D03*
X1229800Y421400D03*
X1229800Y416400D03*
X1229800Y411400D03*
X1229800Y406400D03*
X1229800Y401400D03*
X1229800Y396400D03*
X1229800Y391400D03*
X1229800Y386400D03*
D28*
X1237300Y378900D03*
X1242300Y378900D03*
X1247300Y378900D03*
X1252300Y378900D03*
X1257300Y378900D03*
X1262300Y378900D03*
X1267300Y378900D03*
X1272300Y378900D03*
X1277300Y378900D03*
D15*
X1248800Y304800D03*
X1265800Y304800D03*
D16*
X1282700Y321700D03*
X1282700Y338700D03*
X1231900Y321700D03*
X1231900Y338700D03*
X1219200Y321700D03*
X1219200Y338700D03*
D15*
X1185300Y457200D03*
X1202300Y457200D03*
D16*
X1295400Y338700D03*
X1295400Y321700D03*
D15*
X1248800Y469900D03*
X1265800Y469900D03*
X1202300Y419100D03*
X1185300Y419100D03*
X1202300Y406400D03*
X1185300Y406400D03*
D29*
X1473200Y205359D03*
X1473200Y74041D03*
D30*
X1431080Y129700D03*
X1431080Y104700D03*
X1431080Y149700D03*
X1431080Y174700D03*
D29*
X1473200Y383159D03*
X1473200Y251841D03*
D30*
X1431080Y307500D03*
X1431080Y282500D03*
X1431080Y327500D03*
X1431080Y352500D03*
D29*
X1473200Y560959D03*
X1473200Y429641D03*
D30*
X1431080Y485300D03*
X1431080Y460300D03*
X1431080Y505300D03*
X1431080Y530300D03*
D29*
X1473200Y738759D03*
X1473200Y607441D03*
D30*
X1431080Y663100D03*
X1431080Y638100D03*
X1431080Y683100D03*
X1431080Y708100D03*
D15*
X1185300Y355600D03*
X1202300Y355600D03*
X1202300Y342900D03*
X1185300Y342900D03*
D31*
X1155700Y467600D03*
X1155700Y497600D03*
D32*
X1368400Y124300D03*
X1349400Y124300D03*
X1358900Y103300D03*
D15*
X1350400Y139700D03*
X1367400Y139700D03*
D32*
X1368400Y302100D03*
X1349400Y302100D03*
X1358900Y281100D03*
D15*
X1350400Y317500D03*
X1367400Y317500D03*
D32*
X1368400Y479900D03*
X1349400Y479900D03*
X1358900Y458900D03*
D15*
X1350400Y495300D03*
X1367400Y495300D03*
D32*
X1368400Y657700D03*
X1349400Y657700D03*
X1358900Y636700D03*
D15*
X1350400Y673100D03*
X1367400Y673100D03*
D33*
X1130300Y478536D03*
X1130300Y486664D03*
D15*
X1147200Y228600D03*
X1164200Y228600D03*
X1147200Y203200D03*
X1164200Y203200D03*
D33*
X1193800Y207772D03*
X1193800Y215900D03*
X1193800Y224028D03*
D15*
X1202300Y330200D03*
X1185300Y330200D03*
X1185300Y381000D03*
X1202300Y381000D03*
X1185300Y368300D03*
X1202300Y368300D03*
D34*
X1143000Y125800D03*
X1143000Y102800D03*
D14*
X1206500Y800100D03*
X1231900Y800100D03*
X1257300Y800100D03*
X1282700Y800100D03*
X1308100Y800100D03*
X1333500Y800100D03*
X1358900Y800100D03*
X1384300Y800100D03*
X1409700Y800100D03*
X1435100Y800100D03*
D35*
X-122758Y786130D03*
X1621358Y786130D03*
D36*
X-131813Y63500D02*
X-131810Y63722D01*
X-131802Y63944D01*
X-131788Y64166D01*
X-131769Y64388D01*
X-131745Y64608D01*
X-131715Y64829D01*
X-131680Y65048D01*
X-131639Y65267D01*
X-131593Y65484D01*
X-131542Y65700D01*
X-131485Y65915D01*
X-131423Y66129D01*
X-131356Y66340D01*
X-131284Y66551D01*
X-131206Y66759D01*
X-131124Y66965D01*
X-131036Y67169D01*
X-130944Y67372D01*
X-130846Y67571D01*
X-130744Y67768D01*
X-130637Y67963D01*
X-130525Y68155D01*
X-130408Y68344D01*
X-130287Y68531D01*
X-130161Y68714D01*
X-130031Y68894D01*
X-129896Y69071D01*
X-129758Y69244D01*
X-129615Y69414D01*
X-129467Y69581D01*
X-129316Y69744D01*
X-129161Y69903D01*
X-129002Y70058D01*
X-128839Y70209D01*
X-128672Y70357D01*
X-128502Y70500D01*
X-128329Y70638D01*
X-128152Y70773D01*
X-127972Y70903D01*
X-127789Y71029D01*
X-127602Y71150D01*
X-127413Y71267D01*
X-127221Y71379D01*
X-127026Y71486D01*
X-126829Y71588D01*
X-126630Y71686D01*
X-126427Y71778D01*
X-126223Y71866D01*
X-126017Y71948D01*
X-125809Y72026D01*
X-125598Y72098D01*
X-125387Y72165D01*
X-125173Y72227D01*
X-124958Y72284D01*
X-124742Y72335D01*
X-124525Y72381D01*
X-124306Y72422D01*
X-124087Y72457D01*
X-123866Y72487D01*
X-123646Y72511D01*
X-123424Y72530D01*
X-123202Y72544D01*
X-122980Y72552D01*
X-122758Y72555D01*
X-122536Y72552D01*
X-122314Y72544D01*
X-122092Y72530D01*
X-121870Y72511D01*
X-121650Y72487D01*
X-121429Y72457D01*
X-121210Y72422D01*
X-120991Y72381D01*
X-120774Y72335D01*
X-120558Y72284D01*
X-120343Y72227D01*
X-120129Y72165D01*
X-119918Y72098D01*
X-119707Y72026D01*
X-119499Y71948D01*
X-119293Y71866D01*
X-119089Y71778D01*
X-118886Y71686D01*
X-118687Y71588D01*
X-118490Y71486D01*
X-118295Y71379D01*
X-118103Y71267D01*
X-117914Y71150D01*
X-117727Y71029D01*
X-117544Y70903D01*
X-117364Y70773D01*
X-117187Y70638D01*
X-117014Y70500D01*
X-116844Y70357D01*
X-116677Y70209D01*
X-116514Y70058D01*
X-116355Y69903D01*
X-116200Y69744D01*
X-116049Y69581D01*
X-115901Y69414D01*
X-115758Y69244D01*
X-115620Y69071D01*
X-115485Y68894D01*
X-115355Y68714D01*
X-115229Y68531D01*
X-115108Y68344D01*
X-114991Y68155D01*
X-114879Y67963D01*
X-114772Y67768D01*
X-114670Y67571D01*
X-114572Y67372D01*
X-114480Y67169D01*
X-114392Y66965D01*
X-114310Y66759D01*
X-114232Y66551D01*
X-114160Y66340D01*
X-114093Y66129D01*
X-114031Y65915D01*
X-113974Y65700D01*
X-113923Y65484D01*
X-113877Y65267D01*
X-113836Y65048D01*
X-113801Y64829D01*
X-113771Y64608D01*
X-113747Y64388D01*
X-113728Y64166D01*
X-113714Y63944D01*
X-113706Y63722D01*
X-113703Y63500D01*
X-113706Y63278D01*
X-113714Y63056D01*
X-113728Y62834D01*
X-113747Y62612D01*
X-113771Y62392D01*
X-113801Y62171D01*
X-113836Y61952D01*
X-113877Y61733D01*
X-113923Y61516D01*
X-113974Y61300D01*
X-114031Y61085D01*
X-114093Y60871D01*
X-114160Y60660D01*
X-114232Y60449D01*
X-114310Y60241D01*
X-114392Y60035D01*
X-114480Y59831D01*
X-114572Y59628D01*
X-114670Y59429D01*
X-114772Y59232D01*
X-114879Y59037D01*
X-114991Y58845D01*
X-115108Y58656D01*
X-115229Y58469D01*
X-115355Y58286D01*
X-115485Y58106D01*
X-115620Y57929D01*
X-115758Y57756D01*
X-115901Y57586D01*
X-116049Y57419D01*
X-116200Y57256D01*
X-116355Y57097D01*
X-116514Y56942D01*
X-116677Y56791D01*
X-116844Y56643D01*
X-117014Y56500D01*
X-117187Y56362D01*
X-117364Y56227D01*
X-117544Y56097D01*
X-117727Y55971D01*
X-117914Y55850D01*
X-118103Y55733D01*
X-118295Y55621D01*
X-118490Y55514D01*
X-118687Y55412D01*
X-118886Y55314D01*
X-119089Y55222D01*
X-119293Y55134D01*
X-119499Y55052D01*
X-119707Y54974D01*
X-119918Y54902D01*
X-120129Y54835D01*
X-120343Y54773D01*
X-120558Y54716D01*
X-120774Y54665D01*
X-120991Y54619D01*
X-121210Y54578D01*
X-121429Y54543D01*
X-121650Y54513D01*
X-121870Y54489D01*
X-122092Y54470D01*
X-122314Y54456D01*
X-122536Y54448D01*
X-122758Y54445D01*
X-122980Y54448D01*
X-123202Y54456D01*
X-123424Y54470D01*
X-123646Y54489D01*
X-123866Y54513D01*
X-124087Y54543D01*
X-124306Y54578D01*
X-124525Y54619D01*
X-124742Y54665D01*
X-124958Y54716D01*
X-125173Y54773D01*
X-125387Y54835D01*
X-125598Y54902D01*
X-125809Y54974D01*
X-126017Y55052D01*
X-126223Y55134D01*
X-126427Y55222D01*
X-126630Y55314D01*
X-126829Y55412D01*
X-127026Y55514D01*
X-127221Y55621D01*
X-127413Y55733D01*
X-127602Y55850D01*
X-127789Y55971D01*
X-127972Y56097D01*
X-128152Y56227D01*
X-128329Y56362D01*
X-128502Y56500D01*
X-128672Y56643D01*
X-128839Y56791D01*
X-129002Y56942D01*
X-129161Y57097D01*
X-129316Y57256D01*
X-129467Y57419D01*
X-129615Y57586D01*
X-129758Y57756D01*
X-129896Y57929D01*
X-130031Y58106D01*
X-130161Y58286D01*
X-130287Y58469D01*
X-130408Y58656D01*
X-130525Y58845D01*
X-130637Y59037D01*
X-130744Y59232D01*
X-130846Y59429D01*
X-130944Y59628D01*
X-131036Y59831D01*
X-131124Y60035D01*
X-131206Y60241D01*
X-131284Y60449D01*
X-131356Y60660D01*
X-131423Y60871D01*
X-131485Y61085D01*
X-131542Y61300D01*
X-131593Y61516D01*
X-131639Y61733D01*
X-131680Y61952D01*
X-131715Y62171D01*
X-131745Y62392D01*
X-131769Y62612D01*
X-131788Y62834D01*
X-131802Y63056D01*
X-131810Y63278D01*
X-131813Y63500D01*
D37*
X-122758Y63500D03*
M02*
