G04 EAGLE Gerber RS-274X export*
G75*
%MOMM*%
%FSLAX34Y34*%
%LPD*%
%IN*%
%IPPOS*%
%AMOC8*
5,1,8,0,0,1.08239X$1,22.5*%
G01*
%ADD10C,0.203200*%
%ADD11C,0.279400*%
%ADD12C,0.381000*%
%ADD13C,0.254000*%
%ADD14C,0.000000*%
%ADD15C,0.600000*%


D10*
X431800Y0D02*
X0Y0D01*
X0Y812800D01*
X431800Y812800D01*
X431800Y0D01*
D11*
X-43307Y351904D02*
X-58293Y351904D01*
X-58293Y356067D01*
X-58291Y356195D01*
X-58285Y356323D01*
X-58275Y356451D01*
X-58261Y356579D01*
X-58244Y356706D01*
X-58222Y356832D01*
X-58197Y356958D01*
X-58167Y357082D01*
X-58134Y357206D01*
X-58097Y357329D01*
X-58056Y357451D01*
X-58012Y357571D01*
X-57964Y357690D01*
X-57912Y357807D01*
X-57857Y357923D01*
X-57798Y358036D01*
X-57735Y358149D01*
X-57669Y358259D01*
X-57600Y358366D01*
X-57528Y358472D01*
X-57452Y358576D01*
X-57373Y358677D01*
X-57291Y358776D01*
X-57206Y358872D01*
X-57119Y358965D01*
X-57028Y359056D01*
X-56935Y359143D01*
X-56839Y359228D01*
X-56740Y359310D01*
X-56639Y359389D01*
X-56535Y359465D01*
X-56429Y359537D01*
X-56322Y359606D01*
X-56211Y359672D01*
X-56099Y359735D01*
X-55986Y359794D01*
X-55870Y359849D01*
X-55753Y359901D01*
X-55634Y359949D01*
X-55514Y359993D01*
X-55392Y360034D01*
X-55269Y360071D01*
X-55145Y360104D01*
X-55021Y360134D01*
X-54895Y360159D01*
X-54769Y360181D01*
X-54642Y360198D01*
X-54514Y360212D01*
X-54386Y360222D01*
X-54258Y360228D01*
X-54130Y360230D01*
X-54002Y360228D01*
X-53874Y360222D01*
X-53746Y360212D01*
X-53618Y360198D01*
X-53491Y360181D01*
X-53365Y360159D01*
X-53239Y360134D01*
X-53115Y360104D01*
X-52991Y360071D01*
X-52868Y360034D01*
X-52746Y359993D01*
X-52626Y359949D01*
X-52507Y359901D01*
X-52390Y359849D01*
X-52274Y359794D01*
X-52161Y359735D01*
X-52049Y359672D01*
X-51938Y359606D01*
X-51831Y359537D01*
X-51725Y359465D01*
X-51621Y359389D01*
X-51520Y359310D01*
X-51421Y359228D01*
X-51325Y359143D01*
X-51232Y359056D01*
X-51141Y358965D01*
X-51054Y358872D01*
X-50969Y358776D01*
X-50887Y358677D01*
X-50808Y358576D01*
X-50732Y358472D01*
X-50660Y358366D01*
X-50591Y358259D01*
X-50525Y358149D01*
X-50462Y358036D01*
X-50403Y357923D01*
X-50348Y357807D01*
X-50296Y357690D01*
X-50248Y357571D01*
X-50204Y357451D01*
X-50163Y357329D01*
X-50126Y357206D01*
X-50093Y357082D01*
X-50063Y356958D01*
X-50038Y356832D01*
X-50016Y356706D01*
X-49999Y356579D01*
X-49985Y356451D01*
X-49975Y356323D01*
X-49969Y356195D01*
X-49967Y356067D01*
X-49967Y351904D01*
X-49967Y356899D02*
X-43307Y360229D01*
X-46637Y367188D02*
X-49967Y367188D01*
X-50081Y367190D01*
X-50194Y367196D01*
X-50308Y367205D01*
X-50420Y367219D01*
X-50533Y367236D01*
X-50645Y367258D01*
X-50755Y367283D01*
X-50865Y367311D01*
X-50974Y367344D01*
X-51082Y367380D01*
X-51189Y367420D01*
X-51294Y367464D01*
X-51397Y367511D01*
X-51499Y367561D01*
X-51599Y367615D01*
X-51697Y367673D01*
X-51793Y367734D01*
X-51887Y367797D01*
X-51979Y367865D01*
X-52069Y367935D01*
X-52155Y368008D01*
X-52240Y368084D01*
X-52322Y368163D01*
X-52401Y368245D01*
X-52477Y368330D01*
X-52550Y368416D01*
X-52620Y368506D01*
X-52688Y368598D01*
X-52751Y368692D01*
X-52812Y368788D01*
X-52870Y368886D01*
X-52924Y368986D01*
X-52974Y369088D01*
X-53021Y369191D01*
X-53065Y369296D01*
X-53105Y369403D01*
X-53141Y369511D01*
X-53174Y369620D01*
X-53202Y369730D01*
X-53227Y369840D01*
X-53249Y369952D01*
X-53266Y370065D01*
X-53280Y370177D01*
X-53289Y370291D01*
X-53295Y370404D01*
X-53297Y370518D01*
X-53295Y370632D01*
X-53289Y370745D01*
X-53280Y370859D01*
X-53266Y370971D01*
X-53249Y371084D01*
X-53227Y371196D01*
X-53202Y371306D01*
X-53174Y371416D01*
X-53141Y371525D01*
X-53105Y371633D01*
X-53065Y371740D01*
X-53021Y371845D01*
X-52974Y371948D01*
X-52924Y372050D01*
X-52870Y372150D01*
X-52812Y372248D01*
X-52751Y372344D01*
X-52688Y372438D01*
X-52620Y372530D01*
X-52550Y372620D01*
X-52477Y372706D01*
X-52401Y372791D01*
X-52322Y372873D01*
X-52240Y372952D01*
X-52155Y373028D01*
X-52069Y373101D01*
X-51979Y373171D01*
X-51887Y373239D01*
X-51793Y373302D01*
X-51697Y373363D01*
X-51599Y373421D01*
X-51499Y373475D01*
X-51397Y373525D01*
X-51294Y373572D01*
X-51189Y373616D01*
X-51082Y373656D01*
X-50974Y373692D01*
X-50865Y373725D01*
X-50755Y373753D01*
X-50645Y373778D01*
X-50533Y373800D01*
X-50420Y373817D01*
X-50308Y373831D01*
X-50194Y373840D01*
X-50081Y373846D01*
X-49967Y373848D01*
X-46637Y373848D01*
X-46523Y373846D01*
X-46410Y373840D01*
X-46296Y373831D01*
X-46184Y373817D01*
X-46071Y373800D01*
X-45959Y373778D01*
X-45849Y373753D01*
X-45739Y373725D01*
X-45630Y373692D01*
X-45522Y373656D01*
X-45415Y373616D01*
X-45310Y373572D01*
X-45207Y373525D01*
X-45105Y373475D01*
X-45005Y373421D01*
X-44907Y373363D01*
X-44811Y373302D01*
X-44717Y373239D01*
X-44625Y373171D01*
X-44535Y373101D01*
X-44449Y373028D01*
X-44364Y372952D01*
X-44282Y372873D01*
X-44203Y372791D01*
X-44127Y372706D01*
X-44054Y372620D01*
X-43984Y372530D01*
X-43916Y372438D01*
X-43853Y372344D01*
X-43792Y372248D01*
X-43734Y372150D01*
X-43680Y372050D01*
X-43630Y371948D01*
X-43583Y371845D01*
X-43539Y371740D01*
X-43499Y371633D01*
X-43463Y371525D01*
X-43430Y371416D01*
X-43402Y371306D01*
X-43377Y371196D01*
X-43355Y371084D01*
X-43338Y370971D01*
X-43324Y370859D01*
X-43315Y370745D01*
X-43309Y370632D01*
X-43307Y370518D01*
X-43309Y370404D01*
X-43315Y370291D01*
X-43324Y370177D01*
X-43338Y370065D01*
X-43355Y369952D01*
X-43377Y369840D01*
X-43402Y369730D01*
X-43430Y369620D01*
X-43463Y369511D01*
X-43499Y369403D01*
X-43539Y369296D01*
X-43583Y369191D01*
X-43630Y369088D01*
X-43680Y368986D01*
X-43734Y368886D01*
X-43792Y368788D01*
X-43853Y368692D01*
X-43916Y368598D01*
X-43984Y368506D01*
X-44054Y368416D01*
X-44127Y368330D01*
X-44203Y368245D01*
X-44282Y368163D01*
X-44364Y368084D01*
X-44449Y368008D01*
X-44535Y367935D01*
X-44625Y367865D01*
X-44717Y367797D01*
X-44811Y367734D01*
X-44907Y367673D01*
X-45005Y367615D01*
X-45105Y367561D01*
X-45207Y367511D01*
X-45310Y367464D01*
X-45415Y367420D01*
X-45522Y367380D01*
X-45630Y367344D01*
X-45739Y367311D01*
X-45849Y367283D01*
X-45959Y367258D01*
X-46071Y367236D01*
X-46184Y367219D01*
X-46296Y367205D01*
X-46410Y367196D01*
X-46523Y367190D01*
X-46637Y367188D01*
X-45805Y381256D02*
X-53298Y381256D01*
X-45805Y381255D02*
X-45707Y381257D01*
X-45609Y381263D01*
X-45511Y381272D01*
X-45414Y381286D01*
X-45318Y381303D01*
X-45222Y381324D01*
X-45127Y381349D01*
X-45033Y381377D01*
X-44940Y381409D01*
X-44849Y381445D01*
X-44759Y381484D01*
X-44671Y381527D01*
X-44584Y381574D01*
X-44500Y381623D01*
X-44417Y381676D01*
X-44337Y381732D01*
X-44259Y381791D01*
X-44183Y381854D01*
X-44109Y381919D01*
X-44039Y381987D01*
X-43971Y382057D01*
X-43906Y382131D01*
X-43843Y382207D01*
X-43784Y382285D01*
X-43728Y382365D01*
X-43675Y382448D01*
X-43626Y382532D01*
X-43579Y382619D01*
X-43536Y382707D01*
X-43497Y382797D01*
X-43461Y382888D01*
X-43429Y382981D01*
X-43401Y383075D01*
X-43376Y383170D01*
X-43355Y383266D01*
X-43338Y383362D01*
X-43324Y383459D01*
X-43315Y383557D01*
X-43309Y383655D01*
X-43307Y383753D01*
X-43307Y387916D01*
X-53298Y387916D01*
X-53298Y393897D02*
X-53298Y398892D01*
X-58293Y395562D02*
X-45805Y395562D01*
X-45707Y395564D01*
X-45609Y395570D01*
X-45511Y395579D01*
X-45414Y395593D01*
X-45318Y395610D01*
X-45222Y395631D01*
X-45127Y395656D01*
X-45033Y395684D01*
X-44940Y395716D01*
X-44849Y395752D01*
X-44759Y395791D01*
X-44671Y395834D01*
X-44584Y395881D01*
X-44500Y395930D01*
X-44417Y395983D01*
X-44337Y396039D01*
X-44259Y396098D01*
X-44183Y396161D01*
X-44109Y396226D01*
X-44039Y396294D01*
X-43971Y396364D01*
X-43906Y396438D01*
X-43843Y396514D01*
X-43784Y396592D01*
X-43728Y396672D01*
X-43675Y396755D01*
X-43626Y396839D01*
X-43579Y396926D01*
X-43536Y397014D01*
X-43497Y397104D01*
X-43461Y397195D01*
X-43429Y397288D01*
X-43401Y397382D01*
X-43376Y397477D01*
X-43355Y397573D01*
X-43338Y397669D01*
X-43324Y397766D01*
X-43315Y397864D01*
X-43309Y397962D01*
X-43307Y398060D01*
X-43307Y398892D01*
X-43307Y407721D02*
X-43307Y411884D01*
X-43307Y407721D02*
X-43309Y407623D01*
X-43315Y407525D01*
X-43324Y407427D01*
X-43338Y407330D01*
X-43355Y407234D01*
X-43376Y407138D01*
X-43401Y407043D01*
X-43429Y406949D01*
X-43461Y406856D01*
X-43497Y406765D01*
X-43536Y406675D01*
X-43579Y406587D01*
X-43626Y406500D01*
X-43675Y406416D01*
X-43728Y406333D01*
X-43784Y406253D01*
X-43843Y406175D01*
X-43906Y406099D01*
X-43971Y406025D01*
X-44039Y405955D01*
X-44109Y405887D01*
X-44183Y405822D01*
X-44259Y405759D01*
X-44337Y405700D01*
X-44417Y405644D01*
X-44500Y405591D01*
X-44584Y405542D01*
X-44671Y405495D01*
X-44759Y405452D01*
X-44849Y405413D01*
X-44940Y405377D01*
X-45033Y405345D01*
X-45127Y405317D01*
X-45222Y405292D01*
X-45318Y405271D01*
X-45414Y405254D01*
X-45511Y405240D01*
X-45609Y405231D01*
X-45707Y405225D01*
X-45805Y405223D01*
X-45805Y405224D02*
X-49967Y405224D01*
X-50081Y405226D01*
X-50194Y405232D01*
X-50308Y405241D01*
X-50420Y405255D01*
X-50533Y405272D01*
X-50645Y405294D01*
X-50755Y405319D01*
X-50865Y405347D01*
X-50974Y405380D01*
X-51082Y405416D01*
X-51189Y405456D01*
X-51294Y405500D01*
X-51397Y405547D01*
X-51499Y405597D01*
X-51599Y405651D01*
X-51697Y405709D01*
X-51793Y405770D01*
X-51887Y405833D01*
X-51979Y405901D01*
X-52069Y405971D01*
X-52155Y406044D01*
X-52240Y406120D01*
X-52322Y406199D01*
X-52401Y406281D01*
X-52477Y406366D01*
X-52550Y406452D01*
X-52620Y406542D01*
X-52688Y406634D01*
X-52751Y406728D01*
X-52812Y406824D01*
X-52870Y406922D01*
X-52924Y407022D01*
X-52974Y407124D01*
X-53021Y407227D01*
X-53065Y407332D01*
X-53105Y407439D01*
X-53141Y407547D01*
X-53174Y407656D01*
X-53202Y407766D01*
X-53227Y407876D01*
X-53249Y407988D01*
X-53266Y408101D01*
X-53280Y408213D01*
X-53289Y408327D01*
X-53295Y408440D01*
X-53297Y408554D01*
X-53295Y408668D01*
X-53289Y408781D01*
X-53280Y408895D01*
X-53266Y409007D01*
X-53249Y409120D01*
X-53227Y409232D01*
X-53202Y409342D01*
X-53174Y409452D01*
X-53141Y409561D01*
X-53105Y409669D01*
X-53065Y409776D01*
X-53021Y409881D01*
X-52974Y409984D01*
X-52924Y410086D01*
X-52870Y410186D01*
X-52812Y410284D01*
X-52751Y410380D01*
X-52688Y410474D01*
X-52620Y410566D01*
X-52550Y410656D01*
X-52477Y410742D01*
X-52401Y410827D01*
X-52322Y410909D01*
X-52240Y410988D01*
X-52155Y411064D01*
X-52069Y411137D01*
X-51979Y411207D01*
X-51887Y411275D01*
X-51793Y411338D01*
X-51697Y411399D01*
X-51599Y411457D01*
X-51499Y411511D01*
X-51397Y411561D01*
X-51294Y411608D01*
X-51189Y411652D01*
X-51082Y411692D01*
X-50974Y411728D01*
X-50865Y411761D01*
X-50755Y411789D01*
X-50645Y411814D01*
X-50533Y411836D01*
X-50420Y411853D01*
X-50308Y411867D01*
X-50194Y411876D01*
X-50081Y411882D01*
X-49967Y411884D01*
X-48302Y411884D01*
X-48302Y405224D01*
X-47470Y427317D02*
X-54130Y427317D01*
X-54258Y427319D01*
X-54386Y427325D01*
X-54514Y427335D01*
X-54642Y427349D01*
X-54769Y427366D01*
X-54895Y427388D01*
X-55021Y427413D01*
X-55145Y427443D01*
X-55269Y427476D01*
X-55392Y427513D01*
X-55514Y427554D01*
X-55634Y427598D01*
X-55753Y427646D01*
X-55870Y427698D01*
X-55986Y427753D01*
X-56099Y427812D01*
X-56212Y427875D01*
X-56322Y427941D01*
X-56429Y428010D01*
X-56535Y428082D01*
X-56639Y428158D01*
X-56740Y428237D01*
X-56839Y428319D01*
X-56935Y428404D01*
X-57028Y428491D01*
X-57119Y428582D01*
X-57206Y428675D01*
X-57291Y428771D01*
X-57373Y428870D01*
X-57452Y428971D01*
X-57528Y429075D01*
X-57600Y429181D01*
X-57669Y429288D01*
X-57735Y429399D01*
X-57798Y429511D01*
X-57857Y429624D01*
X-57912Y429740D01*
X-57964Y429857D01*
X-58012Y429976D01*
X-58056Y430096D01*
X-58097Y430218D01*
X-58134Y430341D01*
X-58167Y430465D01*
X-58197Y430589D01*
X-58222Y430715D01*
X-58244Y430841D01*
X-58261Y430968D01*
X-58275Y431096D01*
X-58285Y431224D01*
X-58291Y431352D01*
X-58293Y431480D01*
X-58291Y431608D01*
X-58285Y431736D01*
X-58275Y431864D01*
X-58261Y431992D01*
X-58244Y432119D01*
X-58222Y432245D01*
X-58197Y432371D01*
X-58167Y432495D01*
X-58134Y432619D01*
X-58097Y432742D01*
X-58056Y432864D01*
X-58012Y432984D01*
X-57964Y433103D01*
X-57912Y433220D01*
X-57857Y433336D01*
X-57798Y433449D01*
X-57735Y433562D01*
X-57669Y433672D01*
X-57600Y433779D01*
X-57528Y433885D01*
X-57452Y433989D01*
X-57373Y434090D01*
X-57291Y434189D01*
X-57206Y434285D01*
X-57119Y434378D01*
X-57028Y434469D01*
X-56935Y434556D01*
X-56839Y434641D01*
X-56740Y434723D01*
X-56639Y434802D01*
X-56535Y434878D01*
X-56429Y434950D01*
X-56322Y435019D01*
X-56211Y435085D01*
X-56099Y435148D01*
X-55986Y435207D01*
X-55870Y435262D01*
X-55753Y435314D01*
X-55634Y435362D01*
X-55514Y435406D01*
X-55392Y435447D01*
X-55269Y435484D01*
X-55145Y435517D01*
X-55021Y435547D01*
X-54895Y435572D01*
X-54769Y435594D01*
X-54642Y435611D01*
X-54514Y435625D01*
X-54386Y435635D01*
X-54258Y435641D01*
X-54130Y435643D01*
X-54130Y435642D02*
X-47470Y435642D01*
X-47470Y435643D02*
X-47342Y435641D01*
X-47214Y435635D01*
X-47086Y435625D01*
X-46958Y435611D01*
X-46831Y435594D01*
X-46705Y435572D01*
X-46579Y435547D01*
X-46455Y435517D01*
X-46331Y435484D01*
X-46208Y435447D01*
X-46086Y435406D01*
X-45966Y435362D01*
X-45847Y435314D01*
X-45730Y435262D01*
X-45614Y435207D01*
X-45501Y435148D01*
X-45388Y435085D01*
X-45278Y435019D01*
X-45171Y434950D01*
X-45065Y434878D01*
X-44961Y434802D01*
X-44860Y434723D01*
X-44761Y434641D01*
X-44665Y434556D01*
X-44572Y434469D01*
X-44481Y434378D01*
X-44394Y434285D01*
X-44309Y434189D01*
X-44227Y434090D01*
X-44148Y433989D01*
X-44072Y433885D01*
X-44000Y433779D01*
X-43931Y433672D01*
X-43865Y433562D01*
X-43802Y433449D01*
X-43743Y433336D01*
X-43688Y433220D01*
X-43636Y433103D01*
X-43588Y432984D01*
X-43544Y432864D01*
X-43503Y432742D01*
X-43466Y432619D01*
X-43433Y432495D01*
X-43403Y432371D01*
X-43378Y432245D01*
X-43356Y432119D01*
X-43339Y431992D01*
X-43325Y431864D01*
X-43315Y431736D01*
X-43309Y431608D01*
X-43307Y431480D01*
X-43309Y431352D01*
X-43315Y431224D01*
X-43325Y431096D01*
X-43339Y430968D01*
X-43356Y430841D01*
X-43378Y430715D01*
X-43403Y430589D01*
X-43433Y430465D01*
X-43466Y430341D01*
X-43503Y430218D01*
X-43544Y430096D01*
X-43588Y429976D01*
X-43636Y429857D01*
X-43688Y429740D01*
X-43743Y429624D01*
X-43802Y429511D01*
X-43865Y429399D01*
X-43931Y429288D01*
X-44000Y429181D01*
X-44072Y429075D01*
X-44148Y428971D01*
X-44227Y428870D01*
X-44309Y428771D01*
X-44394Y428675D01*
X-44481Y428582D01*
X-44572Y428491D01*
X-44665Y428404D01*
X-44761Y428319D01*
X-44860Y428237D01*
X-44961Y428158D01*
X-45065Y428082D01*
X-45171Y428010D01*
X-45278Y427941D01*
X-45389Y427875D01*
X-45501Y427812D01*
X-45614Y427753D01*
X-45730Y427698D01*
X-45847Y427646D01*
X-45966Y427598D01*
X-46086Y427554D01*
X-46208Y427513D01*
X-46331Y427476D01*
X-46455Y427443D01*
X-46579Y427413D01*
X-46705Y427388D01*
X-46831Y427366D01*
X-46958Y427349D01*
X-47086Y427335D01*
X-47214Y427325D01*
X-47342Y427319D01*
X-47470Y427317D01*
X-45805Y443259D02*
X-53298Y443259D01*
X-45805Y443259D02*
X-45707Y443261D01*
X-45609Y443267D01*
X-45511Y443276D01*
X-45414Y443290D01*
X-45318Y443307D01*
X-45222Y443328D01*
X-45127Y443353D01*
X-45033Y443381D01*
X-44940Y443413D01*
X-44849Y443449D01*
X-44759Y443488D01*
X-44671Y443531D01*
X-44584Y443578D01*
X-44500Y443627D01*
X-44417Y443680D01*
X-44337Y443736D01*
X-44259Y443795D01*
X-44183Y443858D01*
X-44109Y443923D01*
X-44039Y443991D01*
X-43971Y444061D01*
X-43906Y444135D01*
X-43843Y444211D01*
X-43784Y444289D01*
X-43728Y444369D01*
X-43675Y444452D01*
X-43626Y444536D01*
X-43579Y444623D01*
X-43536Y444711D01*
X-43497Y444801D01*
X-43461Y444892D01*
X-43429Y444985D01*
X-43401Y445079D01*
X-43376Y445174D01*
X-43355Y445270D01*
X-43338Y445366D01*
X-43324Y445463D01*
X-43315Y445561D01*
X-43309Y445659D01*
X-43307Y445757D01*
X-43307Y449920D01*
X-53298Y449920D01*
X-53298Y455901D02*
X-53298Y460896D01*
X-58293Y457566D02*
X-45805Y457566D01*
X-45707Y457568D01*
X-45609Y457574D01*
X-45511Y457583D01*
X-45414Y457597D01*
X-45318Y457614D01*
X-45222Y457635D01*
X-45127Y457660D01*
X-45033Y457688D01*
X-44940Y457720D01*
X-44849Y457756D01*
X-44759Y457795D01*
X-44671Y457838D01*
X-44584Y457885D01*
X-44500Y457934D01*
X-44417Y457987D01*
X-44337Y458043D01*
X-44259Y458102D01*
X-44183Y458165D01*
X-44109Y458230D01*
X-44039Y458298D01*
X-43971Y458368D01*
X-43906Y458442D01*
X-43843Y458518D01*
X-43784Y458596D01*
X-43728Y458676D01*
X-43675Y458759D01*
X-43626Y458843D01*
X-43579Y458930D01*
X-43536Y459018D01*
X-43497Y459108D01*
X-43461Y459199D01*
X-43429Y459292D01*
X-43401Y459386D01*
X-43376Y459481D01*
X-43355Y459577D01*
X-43338Y459673D01*
X-43324Y459770D01*
X-43315Y459868D01*
X-43309Y459966D01*
X-43307Y460064D01*
X-43307Y460896D01*
D10*
X533400Y0D02*
X965200Y0D01*
X533400Y0D02*
X533400Y812800D01*
X965200Y812800D01*
X965200Y0D01*
D11*
X490093Y351904D02*
X475107Y351904D01*
X475107Y356067D01*
X475109Y356195D01*
X475115Y356323D01*
X475125Y356451D01*
X475139Y356579D01*
X475156Y356706D01*
X475178Y356832D01*
X475203Y356958D01*
X475233Y357082D01*
X475266Y357206D01*
X475303Y357329D01*
X475344Y357451D01*
X475388Y357571D01*
X475436Y357690D01*
X475488Y357807D01*
X475543Y357923D01*
X475602Y358036D01*
X475665Y358149D01*
X475731Y358259D01*
X475800Y358366D01*
X475872Y358472D01*
X475948Y358576D01*
X476027Y358677D01*
X476109Y358776D01*
X476194Y358872D01*
X476281Y358965D01*
X476372Y359056D01*
X476465Y359143D01*
X476561Y359228D01*
X476660Y359310D01*
X476761Y359389D01*
X476865Y359465D01*
X476971Y359537D01*
X477078Y359606D01*
X477189Y359672D01*
X477301Y359735D01*
X477414Y359794D01*
X477530Y359849D01*
X477647Y359901D01*
X477766Y359949D01*
X477886Y359993D01*
X478008Y360034D01*
X478131Y360071D01*
X478255Y360104D01*
X478379Y360134D01*
X478505Y360159D01*
X478631Y360181D01*
X478758Y360198D01*
X478886Y360212D01*
X479014Y360222D01*
X479142Y360228D01*
X479270Y360230D01*
X479398Y360228D01*
X479526Y360222D01*
X479654Y360212D01*
X479782Y360198D01*
X479909Y360181D01*
X480035Y360159D01*
X480161Y360134D01*
X480285Y360104D01*
X480409Y360071D01*
X480532Y360034D01*
X480654Y359993D01*
X480774Y359949D01*
X480893Y359901D01*
X481010Y359849D01*
X481126Y359794D01*
X481239Y359735D01*
X481352Y359672D01*
X481462Y359606D01*
X481569Y359537D01*
X481675Y359465D01*
X481779Y359389D01*
X481880Y359310D01*
X481979Y359228D01*
X482075Y359143D01*
X482168Y359056D01*
X482259Y358965D01*
X482346Y358872D01*
X482431Y358776D01*
X482513Y358677D01*
X482592Y358576D01*
X482668Y358472D01*
X482740Y358366D01*
X482809Y358259D01*
X482875Y358149D01*
X482938Y358036D01*
X482997Y357923D01*
X483052Y357807D01*
X483104Y357690D01*
X483152Y357571D01*
X483196Y357451D01*
X483237Y357329D01*
X483274Y357206D01*
X483307Y357082D01*
X483337Y356958D01*
X483362Y356832D01*
X483384Y356706D01*
X483401Y356579D01*
X483415Y356451D01*
X483425Y356323D01*
X483431Y356195D01*
X483433Y356067D01*
X483433Y351904D01*
X483433Y356899D02*
X490093Y360229D01*
X486763Y367188D02*
X483433Y367188D01*
X483319Y367190D01*
X483206Y367196D01*
X483092Y367205D01*
X482980Y367219D01*
X482867Y367236D01*
X482755Y367258D01*
X482645Y367283D01*
X482535Y367311D01*
X482426Y367344D01*
X482318Y367380D01*
X482211Y367420D01*
X482106Y367464D01*
X482003Y367511D01*
X481901Y367561D01*
X481801Y367615D01*
X481703Y367673D01*
X481607Y367734D01*
X481513Y367797D01*
X481421Y367865D01*
X481331Y367935D01*
X481245Y368008D01*
X481160Y368084D01*
X481078Y368163D01*
X480999Y368245D01*
X480923Y368330D01*
X480850Y368416D01*
X480780Y368506D01*
X480712Y368598D01*
X480649Y368692D01*
X480588Y368788D01*
X480530Y368886D01*
X480476Y368986D01*
X480426Y369088D01*
X480379Y369191D01*
X480335Y369296D01*
X480295Y369403D01*
X480259Y369511D01*
X480226Y369620D01*
X480198Y369730D01*
X480173Y369840D01*
X480151Y369952D01*
X480134Y370065D01*
X480120Y370177D01*
X480111Y370291D01*
X480105Y370404D01*
X480103Y370518D01*
X480105Y370632D01*
X480111Y370745D01*
X480120Y370859D01*
X480134Y370971D01*
X480151Y371084D01*
X480173Y371196D01*
X480198Y371306D01*
X480226Y371416D01*
X480259Y371525D01*
X480295Y371633D01*
X480335Y371740D01*
X480379Y371845D01*
X480426Y371948D01*
X480476Y372050D01*
X480530Y372150D01*
X480588Y372248D01*
X480649Y372344D01*
X480712Y372438D01*
X480780Y372530D01*
X480850Y372620D01*
X480923Y372706D01*
X480999Y372791D01*
X481078Y372873D01*
X481160Y372952D01*
X481245Y373028D01*
X481331Y373101D01*
X481421Y373171D01*
X481513Y373239D01*
X481607Y373302D01*
X481703Y373363D01*
X481801Y373421D01*
X481901Y373475D01*
X482003Y373525D01*
X482106Y373572D01*
X482211Y373616D01*
X482318Y373656D01*
X482426Y373692D01*
X482535Y373725D01*
X482645Y373753D01*
X482755Y373778D01*
X482867Y373800D01*
X482980Y373817D01*
X483092Y373831D01*
X483206Y373840D01*
X483319Y373846D01*
X483433Y373848D01*
X486763Y373848D01*
X486877Y373846D01*
X486990Y373840D01*
X487104Y373831D01*
X487216Y373817D01*
X487329Y373800D01*
X487441Y373778D01*
X487551Y373753D01*
X487661Y373725D01*
X487770Y373692D01*
X487878Y373656D01*
X487985Y373616D01*
X488090Y373572D01*
X488193Y373525D01*
X488295Y373475D01*
X488395Y373421D01*
X488493Y373363D01*
X488589Y373302D01*
X488683Y373239D01*
X488775Y373171D01*
X488865Y373101D01*
X488951Y373028D01*
X489036Y372952D01*
X489118Y372873D01*
X489197Y372791D01*
X489273Y372706D01*
X489346Y372620D01*
X489416Y372530D01*
X489484Y372438D01*
X489547Y372344D01*
X489608Y372248D01*
X489666Y372150D01*
X489720Y372050D01*
X489770Y371948D01*
X489817Y371845D01*
X489861Y371740D01*
X489901Y371633D01*
X489937Y371525D01*
X489970Y371416D01*
X489998Y371306D01*
X490023Y371196D01*
X490045Y371084D01*
X490062Y370971D01*
X490076Y370859D01*
X490085Y370745D01*
X490091Y370632D01*
X490093Y370518D01*
X490091Y370404D01*
X490085Y370291D01*
X490076Y370177D01*
X490062Y370065D01*
X490045Y369952D01*
X490023Y369840D01*
X489998Y369730D01*
X489970Y369620D01*
X489937Y369511D01*
X489901Y369403D01*
X489861Y369296D01*
X489817Y369191D01*
X489770Y369088D01*
X489720Y368986D01*
X489666Y368886D01*
X489608Y368788D01*
X489547Y368692D01*
X489484Y368598D01*
X489416Y368506D01*
X489346Y368416D01*
X489273Y368330D01*
X489197Y368245D01*
X489118Y368163D01*
X489036Y368084D01*
X488951Y368008D01*
X488865Y367935D01*
X488775Y367865D01*
X488683Y367797D01*
X488589Y367734D01*
X488493Y367673D01*
X488395Y367615D01*
X488295Y367561D01*
X488193Y367511D01*
X488090Y367464D01*
X487985Y367420D01*
X487878Y367380D01*
X487770Y367344D01*
X487661Y367311D01*
X487551Y367283D01*
X487441Y367258D01*
X487329Y367236D01*
X487216Y367219D01*
X487104Y367205D01*
X486990Y367196D01*
X486877Y367190D01*
X486763Y367188D01*
X487595Y381256D02*
X480102Y381256D01*
X487595Y381255D02*
X487693Y381257D01*
X487791Y381263D01*
X487889Y381272D01*
X487986Y381286D01*
X488082Y381303D01*
X488178Y381324D01*
X488273Y381349D01*
X488367Y381377D01*
X488460Y381409D01*
X488551Y381445D01*
X488641Y381484D01*
X488729Y381527D01*
X488816Y381574D01*
X488900Y381623D01*
X488983Y381676D01*
X489063Y381732D01*
X489142Y381791D01*
X489217Y381854D01*
X489291Y381919D01*
X489361Y381987D01*
X489429Y382057D01*
X489495Y382131D01*
X489557Y382207D01*
X489616Y382285D01*
X489672Y382365D01*
X489725Y382448D01*
X489775Y382532D01*
X489821Y382619D01*
X489864Y382707D01*
X489903Y382797D01*
X489939Y382888D01*
X489971Y382981D01*
X489999Y383075D01*
X490024Y383170D01*
X490045Y383266D01*
X490062Y383362D01*
X490076Y383459D01*
X490085Y383557D01*
X490091Y383655D01*
X490093Y383753D01*
X490093Y387916D01*
X480102Y387916D01*
X480102Y393897D02*
X480102Y398892D01*
X475107Y395562D02*
X487595Y395562D01*
X487693Y395564D01*
X487791Y395570D01*
X487889Y395579D01*
X487986Y395593D01*
X488082Y395610D01*
X488178Y395631D01*
X488273Y395656D01*
X488367Y395684D01*
X488460Y395716D01*
X488551Y395752D01*
X488641Y395791D01*
X488729Y395834D01*
X488816Y395881D01*
X488900Y395930D01*
X488983Y395983D01*
X489063Y396039D01*
X489142Y396098D01*
X489217Y396161D01*
X489291Y396226D01*
X489361Y396294D01*
X489429Y396364D01*
X489495Y396438D01*
X489557Y396514D01*
X489616Y396592D01*
X489672Y396672D01*
X489725Y396755D01*
X489775Y396839D01*
X489821Y396926D01*
X489864Y397014D01*
X489903Y397104D01*
X489939Y397195D01*
X489971Y397288D01*
X489999Y397382D01*
X490024Y397477D01*
X490045Y397573D01*
X490062Y397669D01*
X490076Y397766D01*
X490085Y397864D01*
X490091Y397962D01*
X490093Y398060D01*
X490093Y398892D01*
X490093Y407721D02*
X490093Y411884D01*
X490093Y407721D02*
X490091Y407623D01*
X490085Y407525D01*
X490076Y407427D01*
X490062Y407330D01*
X490045Y407234D01*
X490024Y407138D01*
X489999Y407043D01*
X489971Y406949D01*
X489939Y406856D01*
X489903Y406765D01*
X489864Y406675D01*
X489821Y406587D01*
X489774Y406500D01*
X489725Y406416D01*
X489672Y406333D01*
X489616Y406253D01*
X489557Y406175D01*
X489495Y406099D01*
X489429Y406025D01*
X489361Y405955D01*
X489291Y405887D01*
X489217Y405822D01*
X489142Y405759D01*
X489063Y405700D01*
X488983Y405644D01*
X488900Y405591D01*
X488816Y405542D01*
X488729Y405495D01*
X488641Y405452D01*
X488551Y405413D01*
X488460Y405377D01*
X488367Y405345D01*
X488273Y405317D01*
X488178Y405292D01*
X488082Y405271D01*
X487986Y405254D01*
X487889Y405240D01*
X487791Y405231D01*
X487693Y405225D01*
X487595Y405223D01*
X487595Y405224D02*
X483433Y405224D01*
X483319Y405226D01*
X483206Y405232D01*
X483092Y405241D01*
X482980Y405255D01*
X482867Y405272D01*
X482755Y405294D01*
X482645Y405319D01*
X482535Y405347D01*
X482426Y405380D01*
X482318Y405416D01*
X482211Y405456D01*
X482106Y405500D01*
X482003Y405547D01*
X481901Y405597D01*
X481801Y405651D01*
X481703Y405709D01*
X481607Y405770D01*
X481513Y405833D01*
X481421Y405901D01*
X481331Y405971D01*
X481245Y406044D01*
X481160Y406120D01*
X481078Y406199D01*
X480999Y406281D01*
X480923Y406366D01*
X480850Y406452D01*
X480780Y406542D01*
X480712Y406634D01*
X480649Y406728D01*
X480588Y406824D01*
X480530Y406922D01*
X480476Y407022D01*
X480426Y407124D01*
X480379Y407227D01*
X480335Y407332D01*
X480295Y407439D01*
X480259Y407547D01*
X480226Y407656D01*
X480198Y407766D01*
X480173Y407876D01*
X480151Y407988D01*
X480134Y408101D01*
X480120Y408213D01*
X480111Y408327D01*
X480105Y408440D01*
X480103Y408554D01*
X480105Y408668D01*
X480111Y408781D01*
X480120Y408895D01*
X480134Y409007D01*
X480151Y409120D01*
X480173Y409232D01*
X480198Y409342D01*
X480226Y409452D01*
X480259Y409561D01*
X480295Y409669D01*
X480335Y409776D01*
X480379Y409881D01*
X480426Y409984D01*
X480476Y410086D01*
X480530Y410186D01*
X480588Y410284D01*
X480649Y410380D01*
X480712Y410474D01*
X480780Y410566D01*
X480850Y410656D01*
X480923Y410742D01*
X480999Y410827D01*
X481078Y410909D01*
X481160Y410988D01*
X481245Y411064D01*
X481331Y411137D01*
X481421Y411207D01*
X481513Y411275D01*
X481607Y411338D01*
X481703Y411399D01*
X481801Y411457D01*
X481901Y411511D01*
X482003Y411561D01*
X482106Y411608D01*
X482211Y411652D01*
X482318Y411692D01*
X482426Y411728D01*
X482535Y411761D01*
X482645Y411789D01*
X482755Y411814D01*
X482867Y411836D01*
X482980Y411853D01*
X483092Y411867D01*
X483206Y411876D01*
X483319Y411882D01*
X483433Y411884D01*
X485098Y411884D01*
X485098Y405224D01*
X485930Y427317D02*
X479270Y427317D01*
X479142Y427319D01*
X479014Y427325D01*
X478886Y427335D01*
X478758Y427349D01*
X478631Y427366D01*
X478505Y427388D01*
X478379Y427413D01*
X478255Y427443D01*
X478131Y427476D01*
X478008Y427513D01*
X477886Y427554D01*
X477766Y427598D01*
X477647Y427646D01*
X477530Y427698D01*
X477414Y427753D01*
X477301Y427812D01*
X477189Y427875D01*
X477078Y427941D01*
X476971Y428010D01*
X476865Y428082D01*
X476761Y428158D01*
X476660Y428237D01*
X476561Y428319D01*
X476465Y428404D01*
X476372Y428491D01*
X476281Y428582D01*
X476194Y428675D01*
X476109Y428771D01*
X476027Y428870D01*
X475948Y428971D01*
X475872Y429075D01*
X475800Y429181D01*
X475731Y429288D01*
X475665Y429399D01*
X475602Y429511D01*
X475543Y429624D01*
X475488Y429740D01*
X475436Y429857D01*
X475388Y429976D01*
X475344Y430096D01*
X475303Y430218D01*
X475266Y430341D01*
X475233Y430465D01*
X475203Y430589D01*
X475178Y430715D01*
X475156Y430841D01*
X475139Y430968D01*
X475125Y431096D01*
X475115Y431224D01*
X475109Y431352D01*
X475107Y431480D01*
X475109Y431608D01*
X475115Y431736D01*
X475125Y431864D01*
X475139Y431992D01*
X475156Y432119D01*
X475178Y432245D01*
X475203Y432371D01*
X475233Y432495D01*
X475266Y432619D01*
X475303Y432742D01*
X475344Y432864D01*
X475388Y432984D01*
X475436Y433103D01*
X475488Y433220D01*
X475543Y433336D01*
X475602Y433449D01*
X475665Y433562D01*
X475731Y433672D01*
X475800Y433779D01*
X475872Y433885D01*
X475948Y433989D01*
X476027Y434090D01*
X476109Y434189D01*
X476194Y434285D01*
X476281Y434378D01*
X476372Y434469D01*
X476465Y434556D01*
X476561Y434641D01*
X476660Y434723D01*
X476761Y434802D01*
X476865Y434878D01*
X476971Y434950D01*
X477078Y435019D01*
X477189Y435085D01*
X477301Y435148D01*
X477414Y435207D01*
X477530Y435262D01*
X477647Y435314D01*
X477766Y435362D01*
X477886Y435406D01*
X478008Y435447D01*
X478131Y435484D01*
X478255Y435517D01*
X478379Y435547D01*
X478505Y435572D01*
X478631Y435594D01*
X478758Y435611D01*
X478886Y435625D01*
X479014Y435635D01*
X479142Y435641D01*
X479270Y435643D01*
X479270Y435642D02*
X485930Y435642D01*
X485930Y435643D02*
X486058Y435641D01*
X486186Y435635D01*
X486314Y435625D01*
X486442Y435611D01*
X486569Y435594D01*
X486695Y435572D01*
X486821Y435547D01*
X486945Y435517D01*
X487069Y435484D01*
X487192Y435447D01*
X487314Y435406D01*
X487434Y435362D01*
X487553Y435314D01*
X487670Y435262D01*
X487786Y435207D01*
X487899Y435148D01*
X488012Y435085D01*
X488122Y435019D01*
X488229Y434950D01*
X488335Y434878D01*
X488439Y434802D01*
X488540Y434723D01*
X488639Y434641D01*
X488735Y434556D01*
X488828Y434469D01*
X488919Y434378D01*
X489006Y434285D01*
X489091Y434189D01*
X489173Y434090D01*
X489252Y433989D01*
X489328Y433885D01*
X489400Y433779D01*
X489469Y433672D01*
X489535Y433562D01*
X489598Y433449D01*
X489657Y433336D01*
X489712Y433220D01*
X489764Y433103D01*
X489812Y432984D01*
X489856Y432864D01*
X489897Y432742D01*
X489934Y432619D01*
X489967Y432495D01*
X489997Y432371D01*
X490022Y432245D01*
X490044Y432119D01*
X490061Y431992D01*
X490075Y431864D01*
X490085Y431736D01*
X490091Y431608D01*
X490093Y431480D01*
X490091Y431352D01*
X490085Y431224D01*
X490075Y431096D01*
X490061Y430968D01*
X490044Y430841D01*
X490022Y430715D01*
X489997Y430589D01*
X489967Y430465D01*
X489934Y430341D01*
X489897Y430218D01*
X489856Y430096D01*
X489812Y429976D01*
X489764Y429857D01*
X489712Y429740D01*
X489657Y429624D01*
X489598Y429511D01*
X489535Y429399D01*
X489469Y429288D01*
X489400Y429181D01*
X489328Y429075D01*
X489252Y428971D01*
X489173Y428870D01*
X489091Y428771D01*
X489006Y428675D01*
X488919Y428582D01*
X488828Y428491D01*
X488735Y428404D01*
X488639Y428319D01*
X488540Y428237D01*
X488439Y428158D01*
X488335Y428082D01*
X488229Y428010D01*
X488122Y427941D01*
X488012Y427875D01*
X487899Y427812D01*
X487786Y427753D01*
X487670Y427698D01*
X487553Y427646D01*
X487434Y427598D01*
X487314Y427554D01*
X487192Y427513D01*
X487069Y427476D01*
X486945Y427443D01*
X486821Y427413D01*
X486695Y427388D01*
X486569Y427366D01*
X486442Y427349D01*
X486314Y427335D01*
X486186Y427325D01*
X486058Y427319D01*
X485930Y427317D01*
X487595Y443259D02*
X480102Y443259D01*
X487595Y443259D02*
X487693Y443261D01*
X487791Y443267D01*
X487889Y443276D01*
X487986Y443290D01*
X488082Y443307D01*
X488178Y443328D01*
X488273Y443353D01*
X488367Y443381D01*
X488460Y443413D01*
X488551Y443449D01*
X488641Y443488D01*
X488729Y443531D01*
X488816Y443578D01*
X488900Y443627D01*
X488983Y443680D01*
X489063Y443736D01*
X489142Y443795D01*
X489217Y443858D01*
X489291Y443923D01*
X489361Y443991D01*
X489429Y444061D01*
X489495Y444135D01*
X489557Y444211D01*
X489616Y444289D01*
X489672Y444369D01*
X489725Y444452D01*
X489775Y444536D01*
X489821Y444623D01*
X489864Y444711D01*
X489903Y444801D01*
X489939Y444892D01*
X489971Y444985D01*
X489999Y445079D01*
X490024Y445174D01*
X490045Y445270D01*
X490062Y445366D01*
X490076Y445463D01*
X490085Y445561D01*
X490091Y445659D01*
X490093Y445757D01*
X490093Y449920D01*
X480102Y449920D01*
X480102Y455901D02*
X480102Y460896D01*
X475107Y457566D02*
X487595Y457566D01*
X487595Y457565D02*
X487693Y457567D01*
X487791Y457573D01*
X487889Y457582D01*
X487986Y457596D01*
X488082Y457613D01*
X488178Y457634D01*
X488273Y457659D01*
X488367Y457687D01*
X488460Y457719D01*
X488551Y457755D01*
X488641Y457794D01*
X488729Y457837D01*
X488816Y457884D01*
X488900Y457933D01*
X488983Y457986D01*
X489063Y458042D01*
X489142Y458101D01*
X489217Y458164D01*
X489291Y458229D01*
X489361Y458297D01*
X489429Y458367D01*
X489495Y458441D01*
X489557Y458517D01*
X489616Y458595D01*
X489672Y458675D01*
X489725Y458758D01*
X489775Y458842D01*
X489821Y458929D01*
X489864Y459017D01*
X489903Y459107D01*
X489939Y459198D01*
X489971Y459291D01*
X489999Y459385D01*
X490024Y459480D01*
X490045Y459576D01*
X490062Y459672D01*
X490076Y459769D01*
X490085Y459867D01*
X490091Y459965D01*
X490093Y460063D01*
X490093Y460064D02*
X490093Y460896D01*
D10*
X1066800Y0D02*
X1498600Y0D01*
X1066800Y0D02*
X1066800Y812800D01*
X1498600Y812800D01*
X1498600Y0D01*
D11*
X1023493Y351904D02*
X1008507Y351904D01*
X1008507Y356067D01*
X1008509Y356195D01*
X1008515Y356323D01*
X1008525Y356451D01*
X1008539Y356579D01*
X1008556Y356706D01*
X1008578Y356832D01*
X1008603Y356958D01*
X1008633Y357082D01*
X1008666Y357206D01*
X1008703Y357329D01*
X1008744Y357451D01*
X1008788Y357571D01*
X1008836Y357690D01*
X1008888Y357807D01*
X1008943Y357923D01*
X1009002Y358036D01*
X1009065Y358149D01*
X1009131Y358259D01*
X1009200Y358366D01*
X1009272Y358472D01*
X1009348Y358576D01*
X1009427Y358677D01*
X1009509Y358776D01*
X1009594Y358872D01*
X1009681Y358965D01*
X1009772Y359056D01*
X1009865Y359143D01*
X1009961Y359228D01*
X1010060Y359310D01*
X1010161Y359389D01*
X1010265Y359465D01*
X1010371Y359537D01*
X1010478Y359606D01*
X1010589Y359672D01*
X1010701Y359735D01*
X1010814Y359794D01*
X1010930Y359849D01*
X1011047Y359901D01*
X1011166Y359949D01*
X1011286Y359993D01*
X1011408Y360034D01*
X1011531Y360071D01*
X1011655Y360104D01*
X1011779Y360134D01*
X1011905Y360159D01*
X1012031Y360181D01*
X1012158Y360198D01*
X1012286Y360212D01*
X1012414Y360222D01*
X1012542Y360228D01*
X1012670Y360230D01*
X1012798Y360228D01*
X1012926Y360222D01*
X1013054Y360212D01*
X1013182Y360198D01*
X1013309Y360181D01*
X1013435Y360159D01*
X1013561Y360134D01*
X1013685Y360104D01*
X1013809Y360071D01*
X1013932Y360034D01*
X1014054Y359993D01*
X1014174Y359949D01*
X1014293Y359901D01*
X1014410Y359849D01*
X1014526Y359794D01*
X1014639Y359735D01*
X1014752Y359672D01*
X1014862Y359606D01*
X1014969Y359537D01*
X1015075Y359465D01*
X1015179Y359389D01*
X1015280Y359310D01*
X1015379Y359228D01*
X1015475Y359143D01*
X1015568Y359056D01*
X1015659Y358965D01*
X1015746Y358872D01*
X1015831Y358776D01*
X1015913Y358677D01*
X1015992Y358576D01*
X1016068Y358472D01*
X1016140Y358366D01*
X1016209Y358259D01*
X1016275Y358149D01*
X1016338Y358036D01*
X1016397Y357923D01*
X1016452Y357807D01*
X1016504Y357690D01*
X1016552Y357571D01*
X1016596Y357451D01*
X1016637Y357329D01*
X1016674Y357206D01*
X1016707Y357082D01*
X1016737Y356958D01*
X1016762Y356832D01*
X1016784Y356706D01*
X1016801Y356579D01*
X1016815Y356451D01*
X1016825Y356323D01*
X1016831Y356195D01*
X1016833Y356067D01*
X1016833Y351904D01*
X1016833Y356899D02*
X1023493Y360229D01*
X1020163Y367188D02*
X1016833Y367188D01*
X1016719Y367190D01*
X1016606Y367196D01*
X1016492Y367205D01*
X1016380Y367219D01*
X1016267Y367236D01*
X1016155Y367258D01*
X1016045Y367283D01*
X1015935Y367311D01*
X1015826Y367344D01*
X1015718Y367380D01*
X1015611Y367420D01*
X1015506Y367464D01*
X1015403Y367511D01*
X1015301Y367561D01*
X1015201Y367615D01*
X1015103Y367673D01*
X1015007Y367734D01*
X1014913Y367797D01*
X1014821Y367865D01*
X1014731Y367935D01*
X1014645Y368008D01*
X1014560Y368084D01*
X1014478Y368163D01*
X1014399Y368245D01*
X1014323Y368330D01*
X1014250Y368416D01*
X1014180Y368506D01*
X1014112Y368598D01*
X1014049Y368692D01*
X1013988Y368788D01*
X1013930Y368886D01*
X1013876Y368986D01*
X1013826Y369088D01*
X1013779Y369191D01*
X1013735Y369296D01*
X1013695Y369403D01*
X1013659Y369511D01*
X1013626Y369620D01*
X1013598Y369730D01*
X1013573Y369840D01*
X1013551Y369952D01*
X1013534Y370065D01*
X1013520Y370177D01*
X1013511Y370291D01*
X1013505Y370404D01*
X1013503Y370518D01*
X1013505Y370632D01*
X1013511Y370745D01*
X1013520Y370859D01*
X1013534Y370971D01*
X1013551Y371084D01*
X1013573Y371196D01*
X1013598Y371306D01*
X1013626Y371416D01*
X1013659Y371525D01*
X1013695Y371633D01*
X1013735Y371740D01*
X1013779Y371845D01*
X1013826Y371948D01*
X1013876Y372050D01*
X1013930Y372150D01*
X1013988Y372248D01*
X1014049Y372344D01*
X1014112Y372438D01*
X1014180Y372530D01*
X1014250Y372620D01*
X1014323Y372706D01*
X1014399Y372791D01*
X1014478Y372873D01*
X1014560Y372952D01*
X1014645Y373028D01*
X1014731Y373101D01*
X1014821Y373171D01*
X1014913Y373239D01*
X1015007Y373302D01*
X1015103Y373363D01*
X1015201Y373421D01*
X1015301Y373475D01*
X1015403Y373525D01*
X1015506Y373572D01*
X1015611Y373616D01*
X1015718Y373656D01*
X1015826Y373692D01*
X1015935Y373725D01*
X1016045Y373753D01*
X1016155Y373778D01*
X1016267Y373800D01*
X1016380Y373817D01*
X1016492Y373831D01*
X1016606Y373840D01*
X1016719Y373846D01*
X1016833Y373848D01*
X1020163Y373848D01*
X1020277Y373846D01*
X1020390Y373840D01*
X1020504Y373831D01*
X1020616Y373817D01*
X1020729Y373800D01*
X1020841Y373778D01*
X1020951Y373753D01*
X1021061Y373725D01*
X1021170Y373692D01*
X1021278Y373656D01*
X1021385Y373616D01*
X1021490Y373572D01*
X1021593Y373525D01*
X1021695Y373475D01*
X1021795Y373421D01*
X1021893Y373363D01*
X1021989Y373302D01*
X1022083Y373239D01*
X1022175Y373171D01*
X1022265Y373101D01*
X1022351Y373028D01*
X1022436Y372952D01*
X1022518Y372873D01*
X1022597Y372791D01*
X1022673Y372706D01*
X1022746Y372620D01*
X1022816Y372530D01*
X1022884Y372438D01*
X1022947Y372344D01*
X1023008Y372248D01*
X1023066Y372150D01*
X1023120Y372050D01*
X1023170Y371948D01*
X1023217Y371845D01*
X1023261Y371740D01*
X1023301Y371633D01*
X1023337Y371525D01*
X1023370Y371416D01*
X1023398Y371306D01*
X1023423Y371196D01*
X1023445Y371084D01*
X1023462Y370971D01*
X1023476Y370859D01*
X1023485Y370745D01*
X1023491Y370632D01*
X1023493Y370518D01*
X1023491Y370404D01*
X1023485Y370291D01*
X1023476Y370177D01*
X1023462Y370065D01*
X1023445Y369952D01*
X1023423Y369840D01*
X1023398Y369730D01*
X1023370Y369620D01*
X1023337Y369511D01*
X1023301Y369403D01*
X1023261Y369296D01*
X1023217Y369191D01*
X1023170Y369088D01*
X1023120Y368986D01*
X1023066Y368886D01*
X1023008Y368788D01*
X1022947Y368692D01*
X1022884Y368598D01*
X1022816Y368506D01*
X1022746Y368416D01*
X1022673Y368330D01*
X1022597Y368245D01*
X1022518Y368163D01*
X1022436Y368084D01*
X1022351Y368008D01*
X1022265Y367935D01*
X1022175Y367865D01*
X1022083Y367797D01*
X1021989Y367734D01*
X1021893Y367673D01*
X1021795Y367615D01*
X1021695Y367561D01*
X1021593Y367511D01*
X1021490Y367464D01*
X1021385Y367420D01*
X1021278Y367380D01*
X1021170Y367344D01*
X1021061Y367311D01*
X1020951Y367283D01*
X1020841Y367258D01*
X1020729Y367236D01*
X1020616Y367219D01*
X1020504Y367205D01*
X1020390Y367196D01*
X1020277Y367190D01*
X1020163Y367188D01*
X1020995Y381256D02*
X1013502Y381256D01*
X1020995Y381255D02*
X1021093Y381257D01*
X1021191Y381263D01*
X1021289Y381272D01*
X1021386Y381286D01*
X1021482Y381303D01*
X1021578Y381324D01*
X1021673Y381349D01*
X1021767Y381377D01*
X1021860Y381409D01*
X1021951Y381445D01*
X1022041Y381484D01*
X1022129Y381527D01*
X1022216Y381574D01*
X1022300Y381623D01*
X1022383Y381676D01*
X1022463Y381732D01*
X1022542Y381791D01*
X1022617Y381854D01*
X1022691Y381919D01*
X1022761Y381987D01*
X1022829Y382057D01*
X1022895Y382131D01*
X1022957Y382207D01*
X1023016Y382285D01*
X1023072Y382365D01*
X1023125Y382448D01*
X1023175Y382532D01*
X1023221Y382619D01*
X1023264Y382707D01*
X1023303Y382797D01*
X1023339Y382888D01*
X1023371Y382981D01*
X1023399Y383075D01*
X1023424Y383170D01*
X1023445Y383266D01*
X1023462Y383362D01*
X1023476Y383459D01*
X1023485Y383557D01*
X1023491Y383655D01*
X1023493Y383753D01*
X1023493Y387916D01*
X1013502Y387916D01*
X1013502Y393897D02*
X1013502Y398892D01*
X1008507Y395562D02*
X1020995Y395562D01*
X1021093Y395564D01*
X1021191Y395570D01*
X1021289Y395579D01*
X1021386Y395593D01*
X1021482Y395610D01*
X1021578Y395631D01*
X1021673Y395656D01*
X1021767Y395684D01*
X1021860Y395716D01*
X1021951Y395752D01*
X1022041Y395791D01*
X1022129Y395834D01*
X1022216Y395881D01*
X1022300Y395930D01*
X1022383Y395983D01*
X1022463Y396039D01*
X1022542Y396098D01*
X1022617Y396161D01*
X1022691Y396226D01*
X1022761Y396294D01*
X1022829Y396364D01*
X1022895Y396438D01*
X1022957Y396514D01*
X1023016Y396592D01*
X1023072Y396672D01*
X1023125Y396755D01*
X1023175Y396839D01*
X1023221Y396926D01*
X1023264Y397014D01*
X1023303Y397104D01*
X1023339Y397195D01*
X1023371Y397288D01*
X1023399Y397382D01*
X1023424Y397477D01*
X1023445Y397573D01*
X1023462Y397669D01*
X1023476Y397766D01*
X1023485Y397864D01*
X1023491Y397962D01*
X1023493Y398060D01*
X1023493Y398892D01*
X1023493Y407721D02*
X1023493Y411884D01*
X1023493Y407721D02*
X1023491Y407623D01*
X1023485Y407525D01*
X1023476Y407427D01*
X1023462Y407330D01*
X1023445Y407234D01*
X1023424Y407138D01*
X1023399Y407043D01*
X1023371Y406949D01*
X1023339Y406856D01*
X1023303Y406765D01*
X1023264Y406675D01*
X1023221Y406587D01*
X1023174Y406500D01*
X1023125Y406416D01*
X1023072Y406333D01*
X1023016Y406253D01*
X1022957Y406175D01*
X1022895Y406099D01*
X1022829Y406025D01*
X1022761Y405955D01*
X1022691Y405887D01*
X1022617Y405822D01*
X1022542Y405759D01*
X1022463Y405700D01*
X1022383Y405644D01*
X1022300Y405591D01*
X1022216Y405542D01*
X1022129Y405495D01*
X1022041Y405452D01*
X1021951Y405413D01*
X1021860Y405377D01*
X1021767Y405345D01*
X1021673Y405317D01*
X1021578Y405292D01*
X1021482Y405271D01*
X1021386Y405254D01*
X1021289Y405240D01*
X1021191Y405231D01*
X1021093Y405225D01*
X1020995Y405223D01*
X1020995Y405224D02*
X1016833Y405224D01*
X1016719Y405226D01*
X1016606Y405232D01*
X1016492Y405241D01*
X1016380Y405255D01*
X1016267Y405272D01*
X1016155Y405294D01*
X1016045Y405319D01*
X1015935Y405347D01*
X1015826Y405380D01*
X1015718Y405416D01*
X1015611Y405456D01*
X1015506Y405500D01*
X1015403Y405547D01*
X1015301Y405597D01*
X1015201Y405651D01*
X1015103Y405709D01*
X1015007Y405770D01*
X1014913Y405833D01*
X1014821Y405901D01*
X1014731Y405971D01*
X1014645Y406044D01*
X1014560Y406120D01*
X1014478Y406199D01*
X1014399Y406281D01*
X1014323Y406366D01*
X1014250Y406452D01*
X1014180Y406542D01*
X1014112Y406634D01*
X1014049Y406728D01*
X1013988Y406824D01*
X1013930Y406922D01*
X1013876Y407022D01*
X1013826Y407124D01*
X1013779Y407227D01*
X1013735Y407332D01*
X1013695Y407439D01*
X1013659Y407547D01*
X1013626Y407656D01*
X1013598Y407766D01*
X1013573Y407876D01*
X1013551Y407988D01*
X1013534Y408101D01*
X1013520Y408213D01*
X1013511Y408327D01*
X1013505Y408440D01*
X1013503Y408554D01*
X1013505Y408668D01*
X1013511Y408781D01*
X1013520Y408895D01*
X1013534Y409007D01*
X1013551Y409120D01*
X1013573Y409232D01*
X1013598Y409342D01*
X1013626Y409452D01*
X1013659Y409561D01*
X1013695Y409669D01*
X1013735Y409776D01*
X1013779Y409881D01*
X1013826Y409984D01*
X1013876Y410086D01*
X1013930Y410186D01*
X1013988Y410284D01*
X1014049Y410380D01*
X1014112Y410474D01*
X1014180Y410566D01*
X1014250Y410656D01*
X1014323Y410742D01*
X1014399Y410827D01*
X1014478Y410909D01*
X1014560Y410988D01*
X1014645Y411064D01*
X1014731Y411137D01*
X1014821Y411207D01*
X1014913Y411275D01*
X1015007Y411338D01*
X1015103Y411399D01*
X1015201Y411457D01*
X1015301Y411511D01*
X1015403Y411561D01*
X1015506Y411608D01*
X1015611Y411652D01*
X1015718Y411692D01*
X1015826Y411728D01*
X1015935Y411761D01*
X1016045Y411789D01*
X1016155Y411814D01*
X1016267Y411836D01*
X1016380Y411853D01*
X1016492Y411867D01*
X1016606Y411876D01*
X1016719Y411882D01*
X1016833Y411884D01*
X1018498Y411884D01*
X1018498Y405224D01*
X1019330Y427317D02*
X1012670Y427317D01*
X1012542Y427319D01*
X1012414Y427325D01*
X1012286Y427335D01*
X1012158Y427349D01*
X1012031Y427366D01*
X1011905Y427388D01*
X1011779Y427413D01*
X1011655Y427443D01*
X1011531Y427476D01*
X1011408Y427513D01*
X1011286Y427554D01*
X1011166Y427598D01*
X1011047Y427646D01*
X1010930Y427698D01*
X1010814Y427753D01*
X1010701Y427812D01*
X1010589Y427875D01*
X1010478Y427941D01*
X1010371Y428010D01*
X1010265Y428082D01*
X1010161Y428158D01*
X1010060Y428237D01*
X1009961Y428319D01*
X1009865Y428404D01*
X1009772Y428491D01*
X1009681Y428582D01*
X1009594Y428675D01*
X1009509Y428771D01*
X1009427Y428870D01*
X1009348Y428971D01*
X1009272Y429075D01*
X1009200Y429181D01*
X1009131Y429288D01*
X1009065Y429399D01*
X1009002Y429511D01*
X1008943Y429624D01*
X1008888Y429740D01*
X1008836Y429857D01*
X1008788Y429976D01*
X1008744Y430096D01*
X1008703Y430218D01*
X1008666Y430341D01*
X1008633Y430465D01*
X1008603Y430589D01*
X1008578Y430715D01*
X1008556Y430841D01*
X1008539Y430968D01*
X1008525Y431096D01*
X1008515Y431224D01*
X1008509Y431352D01*
X1008507Y431480D01*
X1008509Y431608D01*
X1008515Y431736D01*
X1008525Y431864D01*
X1008539Y431992D01*
X1008556Y432119D01*
X1008578Y432245D01*
X1008603Y432371D01*
X1008633Y432495D01*
X1008666Y432619D01*
X1008703Y432742D01*
X1008744Y432864D01*
X1008788Y432984D01*
X1008836Y433103D01*
X1008888Y433220D01*
X1008943Y433336D01*
X1009002Y433449D01*
X1009065Y433562D01*
X1009131Y433672D01*
X1009200Y433779D01*
X1009272Y433885D01*
X1009348Y433989D01*
X1009427Y434090D01*
X1009509Y434189D01*
X1009594Y434285D01*
X1009681Y434378D01*
X1009772Y434469D01*
X1009865Y434556D01*
X1009961Y434641D01*
X1010060Y434723D01*
X1010161Y434802D01*
X1010265Y434878D01*
X1010371Y434950D01*
X1010478Y435019D01*
X1010589Y435085D01*
X1010701Y435148D01*
X1010814Y435207D01*
X1010930Y435262D01*
X1011047Y435314D01*
X1011166Y435362D01*
X1011286Y435406D01*
X1011408Y435447D01*
X1011531Y435484D01*
X1011655Y435517D01*
X1011779Y435547D01*
X1011905Y435572D01*
X1012031Y435594D01*
X1012158Y435611D01*
X1012286Y435625D01*
X1012414Y435635D01*
X1012542Y435641D01*
X1012670Y435643D01*
X1012670Y435642D02*
X1019330Y435642D01*
X1019330Y435643D02*
X1019458Y435641D01*
X1019586Y435635D01*
X1019714Y435625D01*
X1019842Y435611D01*
X1019969Y435594D01*
X1020095Y435572D01*
X1020221Y435547D01*
X1020345Y435517D01*
X1020469Y435484D01*
X1020592Y435447D01*
X1020714Y435406D01*
X1020834Y435362D01*
X1020953Y435314D01*
X1021070Y435262D01*
X1021186Y435207D01*
X1021299Y435148D01*
X1021412Y435085D01*
X1021522Y435019D01*
X1021629Y434950D01*
X1021735Y434878D01*
X1021839Y434802D01*
X1021940Y434723D01*
X1022039Y434641D01*
X1022135Y434556D01*
X1022228Y434469D01*
X1022319Y434378D01*
X1022406Y434285D01*
X1022491Y434189D01*
X1022573Y434090D01*
X1022652Y433989D01*
X1022728Y433885D01*
X1022800Y433779D01*
X1022869Y433672D01*
X1022935Y433562D01*
X1022998Y433449D01*
X1023057Y433336D01*
X1023112Y433220D01*
X1023164Y433103D01*
X1023212Y432984D01*
X1023256Y432864D01*
X1023297Y432742D01*
X1023334Y432619D01*
X1023367Y432495D01*
X1023397Y432371D01*
X1023422Y432245D01*
X1023444Y432119D01*
X1023461Y431992D01*
X1023475Y431864D01*
X1023485Y431736D01*
X1023491Y431608D01*
X1023493Y431480D01*
X1023491Y431352D01*
X1023485Y431224D01*
X1023475Y431096D01*
X1023461Y430968D01*
X1023444Y430841D01*
X1023422Y430715D01*
X1023397Y430589D01*
X1023367Y430465D01*
X1023334Y430341D01*
X1023297Y430218D01*
X1023256Y430096D01*
X1023212Y429976D01*
X1023164Y429857D01*
X1023112Y429740D01*
X1023057Y429624D01*
X1022998Y429511D01*
X1022935Y429399D01*
X1022869Y429288D01*
X1022800Y429181D01*
X1022728Y429075D01*
X1022652Y428971D01*
X1022573Y428870D01*
X1022491Y428771D01*
X1022406Y428675D01*
X1022319Y428582D01*
X1022228Y428491D01*
X1022135Y428404D01*
X1022039Y428319D01*
X1021940Y428237D01*
X1021839Y428158D01*
X1021735Y428082D01*
X1021629Y428010D01*
X1021522Y427941D01*
X1021412Y427875D01*
X1021299Y427812D01*
X1021186Y427753D01*
X1021070Y427698D01*
X1020953Y427646D01*
X1020834Y427598D01*
X1020714Y427554D01*
X1020592Y427513D01*
X1020469Y427476D01*
X1020345Y427443D01*
X1020221Y427413D01*
X1020095Y427388D01*
X1019969Y427366D01*
X1019842Y427349D01*
X1019714Y427335D01*
X1019586Y427325D01*
X1019458Y427319D01*
X1019330Y427317D01*
X1020995Y443259D02*
X1013502Y443259D01*
X1020995Y443259D02*
X1021093Y443261D01*
X1021191Y443267D01*
X1021289Y443276D01*
X1021386Y443290D01*
X1021482Y443307D01*
X1021578Y443328D01*
X1021673Y443353D01*
X1021767Y443381D01*
X1021860Y443413D01*
X1021951Y443449D01*
X1022041Y443488D01*
X1022129Y443531D01*
X1022216Y443578D01*
X1022300Y443627D01*
X1022383Y443680D01*
X1022463Y443736D01*
X1022542Y443795D01*
X1022617Y443858D01*
X1022691Y443923D01*
X1022761Y443991D01*
X1022829Y444061D01*
X1022895Y444135D01*
X1022957Y444211D01*
X1023016Y444289D01*
X1023072Y444369D01*
X1023125Y444452D01*
X1023175Y444536D01*
X1023221Y444623D01*
X1023264Y444711D01*
X1023303Y444801D01*
X1023339Y444892D01*
X1023371Y444985D01*
X1023399Y445079D01*
X1023424Y445174D01*
X1023445Y445270D01*
X1023462Y445366D01*
X1023476Y445463D01*
X1023485Y445561D01*
X1023491Y445659D01*
X1023493Y445757D01*
X1023493Y449920D01*
X1013502Y449920D01*
X1013502Y455901D02*
X1013502Y460896D01*
X1008507Y457566D02*
X1020995Y457566D01*
X1020995Y457565D02*
X1021093Y457567D01*
X1021191Y457573D01*
X1021289Y457582D01*
X1021386Y457596D01*
X1021482Y457613D01*
X1021578Y457634D01*
X1021673Y457659D01*
X1021767Y457687D01*
X1021860Y457719D01*
X1021951Y457755D01*
X1022041Y457794D01*
X1022129Y457837D01*
X1022216Y457884D01*
X1022300Y457933D01*
X1022383Y457986D01*
X1022463Y458042D01*
X1022542Y458101D01*
X1022617Y458164D01*
X1022691Y458229D01*
X1022761Y458297D01*
X1022829Y458367D01*
X1022895Y458441D01*
X1022957Y458517D01*
X1023016Y458595D01*
X1023072Y458675D01*
X1023125Y458758D01*
X1023175Y458842D01*
X1023221Y458929D01*
X1023264Y459017D01*
X1023303Y459107D01*
X1023339Y459198D01*
X1023371Y459291D01*
X1023399Y459385D01*
X1023424Y459480D01*
X1023445Y459576D01*
X1023462Y459672D01*
X1023476Y459769D01*
X1023485Y459867D01*
X1023491Y459965D01*
X1023493Y460063D01*
X1023493Y460064D02*
X1023493Y460896D01*
X1541907Y351904D02*
X1556893Y351904D01*
X1541907Y351904D02*
X1541907Y356067D01*
X1541909Y356195D01*
X1541915Y356323D01*
X1541925Y356451D01*
X1541939Y356579D01*
X1541956Y356706D01*
X1541978Y356832D01*
X1542003Y356958D01*
X1542033Y357082D01*
X1542066Y357206D01*
X1542103Y357329D01*
X1542144Y357451D01*
X1542188Y357571D01*
X1542236Y357690D01*
X1542288Y357807D01*
X1542343Y357923D01*
X1542402Y358036D01*
X1542465Y358149D01*
X1542531Y358259D01*
X1542600Y358366D01*
X1542672Y358472D01*
X1542748Y358576D01*
X1542827Y358677D01*
X1542909Y358776D01*
X1542994Y358872D01*
X1543081Y358965D01*
X1543172Y359056D01*
X1543265Y359143D01*
X1543361Y359228D01*
X1543460Y359310D01*
X1543561Y359389D01*
X1543665Y359465D01*
X1543771Y359537D01*
X1543878Y359606D01*
X1543989Y359672D01*
X1544101Y359735D01*
X1544214Y359794D01*
X1544330Y359849D01*
X1544447Y359901D01*
X1544566Y359949D01*
X1544686Y359993D01*
X1544808Y360034D01*
X1544931Y360071D01*
X1545055Y360104D01*
X1545179Y360134D01*
X1545305Y360159D01*
X1545431Y360181D01*
X1545558Y360198D01*
X1545686Y360212D01*
X1545814Y360222D01*
X1545942Y360228D01*
X1546070Y360230D01*
X1546198Y360228D01*
X1546326Y360222D01*
X1546454Y360212D01*
X1546582Y360198D01*
X1546709Y360181D01*
X1546835Y360159D01*
X1546961Y360134D01*
X1547085Y360104D01*
X1547209Y360071D01*
X1547332Y360034D01*
X1547454Y359993D01*
X1547574Y359949D01*
X1547693Y359901D01*
X1547810Y359849D01*
X1547926Y359794D01*
X1548039Y359735D01*
X1548152Y359672D01*
X1548262Y359606D01*
X1548369Y359537D01*
X1548475Y359465D01*
X1548579Y359389D01*
X1548680Y359310D01*
X1548779Y359228D01*
X1548875Y359143D01*
X1548968Y359056D01*
X1549059Y358965D01*
X1549146Y358872D01*
X1549231Y358776D01*
X1549313Y358677D01*
X1549392Y358576D01*
X1549468Y358472D01*
X1549540Y358366D01*
X1549609Y358259D01*
X1549675Y358149D01*
X1549738Y358036D01*
X1549797Y357923D01*
X1549852Y357807D01*
X1549904Y357690D01*
X1549952Y357571D01*
X1549996Y357451D01*
X1550037Y357329D01*
X1550074Y357206D01*
X1550107Y357082D01*
X1550137Y356958D01*
X1550162Y356832D01*
X1550184Y356706D01*
X1550201Y356579D01*
X1550215Y356451D01*
X1550225Y356323D01*
X1550231Y356195D01*
X1550233Y356067D01*
X1550233Y351904D01*
X1550233Y356899D02*
X1556893Y360229D01*
X1553563Y367188D02*
X1550233Y367188D01*
X1550119Y367190D01*
X1550006Y367196D01*
X1549892Y367205D01*
X1549780Y367219D01*
X1549667Y367236D01*
X1549555Y367258D01*
X1549445Y367283D01*
X1549335Y367311D01*
X1549226Y367344D01*
X1549118Y367380D01*
X1549011Y367420D01*
X1548906Y367464D01*
X1548803Y367511D01*
X1548701Y367561D01*
X1548601Y367615D01*
X1548503Y367673D01*
X1548407Y367734D01*
X1548313Y367797D01*
X1548221Y367865D01*
X1548131Y367935D01*
X1548045Y368008D01*
X1547960Y368084D01*
X1547878Y368163D01*
X1547799Y368245D01*
X1547723Y368330D01*
X1547650Y368416D01*
X1547580Y368506D01*
X1547512Y368598D01*
X1547449Y368692D01*
X1547388Y368788D01*
X1547330Y368886D01*
X1547276Y368986D01*
X1547226Y369088D01*
X1547179Y369191D01*
X1547135Y369296D01*
X1547095Y369403D01*
X1547059Y369511D01*
X1547026Y369620D01*
X1546998Y369730D01*
X1546973Y369840D01*
X1546951Y369952D01*
X1546934Y370065D01*
X1546920Y370177D01*
X1546911Y370291D01*
X1546905Y370404D01*
X1546903Y370518D01*
X1546905Y370632D01*
X1546911Y370745D01*
X1546920Y370859D01*
X1546934Y370971D01*
X1546951Y371084D01*
X1546973Y371196D01*
X1546998Y371306D01*
X1547026Y371416D01*
X1547059Y371525D01*
X1547095Y371633D01*
X1547135Y371740D01*
X1547179Y371845D01*
X1547226Y371948D01*
X1547276Y372050D01*
X1547330Y372150D01*
X1547388Y372248D01*
X1547449Y372344D01*
X1547512Y372438D01*
X1547580Y372530D01*
X1547650Y372620D01*
X1547723Y372706D01*
X1547799Y372791D01*
X1547878Y372873D01*
X1547960Y372952D01*
X1548045Y373028D01*
X1548131Y373101D01*
X1548221Y373171D01*
X1548313Y373239D01*
X1548407Y373302D01*
X1548503Y373363D01*
X1548601Y373421D01*
X1548701Y373475D01*
X1548803Y373525D01*
X1548906Y373572D01*
X1549011Y373616D01*
X1549118Y373656D01*
X1549226Y373692D01*
X1549335Y373725D01*
X1549445Y373753D01*
X1549555Y373778D01*
X1549667Y373800D01*
X1549780Y373817D01*
X1549892Y373831D01*
X1550006Y373840D01*
X1550119Y373846D01*
X1550233Y373848D01*
X1553563Y373848D01*
X1553677Y373846D01*
X1553790Y373840D01*
X1553904Y373831D01*
X1554016Y373817D01*
X1554129Y373800D01*
X1554241Y373778D01*
X1554351Y373753D01*
X1554461Y373725D01*
X1554570Y373692D01*
X1554678Y373656D01*
X1554785Y373616D01*
X1554890Y373572D01*
X1554993Y373525D01*
X1555095Y373475D01*
X1555195Y373421D01*
X1555293Y373363D01*
X1555389Y373302D01*
X1555483Y373239D01*
X1555575Y373171D01*
X1555665Y373101D01*
X1555751Y373028D01*
X1555836Y372952D01*
X1555918Y372873D01*
X1555997Y372791D01*
X1556073Y372706D01*
X1556146Y372620D01*
X1556216Y372530D01*
X1556284Y372438D01*
X1556347Y372344D01*
X1556408Y372248D01*
X1556466Y372150D01*
X1556520Y372050D01*
X1556570Y371948D01*
X1556617Y371845D01*
X1556661Y371740D01*
X1556701Y371633D01*
X1556737Y371525D01*
X1556770Y371416D01*
X1556798Y371306D01*
X1556823Y371196D01*
X1556845Y371084D01*
X1556862Y370971D01*
X1556876Y370859D01*
X1556885Y370745D01*
X1556891Y370632D01*
X1556893Y370518D01*
X1556891Y370404D01*
X1556885Y370291D01*
X1556876Y370177D01*
X1556862Y370065D01*
X1556845Y369952D01*
X1556823Y369840D01*
X1556798Y369730D01*
X1556770Y369620D01*
X1556737Y369511D01*
X1556701Y369403D01*
X1556661Y369296D01*
X1556617Y369191D01*
X1556570Y369088D01*
X1556520Y368986D01*
X1556466Y368886D01*
X1556408Y368788D01*
X1556347Y368692D01*
X1556284Y368598D01*
X1556216Y368506D01*
X1556146Y368416D01*
X1556073Y368330D01*
X1555997Y368245D01*
X1555918Y368163D01*
X1555836Y368084D01*
X1555751Y368008D01*
X1555665Y367935D01*
X1555575Y367865D01*
X1555483Y367797D01*
X1555389Y367734D01*
X1555293Y367673D01*
X1555195Y367615D01*
X1555095Y367561D01*
X1554993Y367511D01*
X1554890Y367464D01*
X1554785Y367420D01*
X1554678Y367380D01*
X1554570Y367344D01*
X1554461Y367311D01*
X1554351Y367283D01*
X1554241Y367258D01*
X1554129Y367236D01*
X1554016Y367219D01*
X1553904Y367205D01*
X1553790Y367196D01*
X1553677Y367190D01*
X1553563Y367188D01*
X1554395Y381256D02*
X1546902Y381256D01*
X1554395Y381255D02*
X1554493Y381257D01*
X1554591Y381263D01*
X1554689Y381272D01*
X1554786Y381286D01*
X1554882Y381303D01*
X1554978Y381324D01*
X1555073Y381349D01*
X1555167Y381377D01*
X1555260Y381409D01*
X1555351Y381445D01*
X1555441Y381484D01*
X1555529Y381527D01*
X1555616Y381574D01*
X1555700Y381623D01*
X1555783Y381676D01*
X1555863Y381732D01*
X1555942Y381791D01*
X1556017Y381854D01*
X1556091Y381919D01*
X1556161Y381987D01*
X1556229Y382057D01*
X1556295Y382131D01*
X1556357Y382207D01*
X1556416Y382285D01*
X1556472Y382365D01*
X1556525Y382448D01*
X1556575Y382532D01*
X1556621Y382619D01*
X1556664Y382707D01*
X1556703Y382797D01*
X1556739Y382888D01*
X1556771Y382981D01*
X1556799Y383075D01*
X1556824Y383170D01*
X1556845Y383266D01*
X1556862Y383362D01*
X1556876Y383459D01*
X1556885Y383557D01*
X1556891Y383655D01*
X1556893Y383753D01*
X1556893Y387916D01*
X1546902Y387916D01*
X1546902Y393897D02*
X1546902Y398892D01*
X1541907Y395562D02*
X1554395Y395562D01*
X1554493Y395564D01*
X1554591Y395570D01*
X1554689Y395579D01*
X1554786Y395593D01*
X1554882Y395610D01*
X1554978Y395631D01*
X1555073Y395656D01*
X1555167Y395684D01*
X1555260Y395716D01*
X1555351Y395752D01*
X1555441Y395791D01*
X1555529Y395834D01*
X1555616Y395881D01*
X1555700Y395930D01*
X1555783Y395983D01*
X1555863Y396039D01*
X1555942Y396098D01*
X1556017Y396161D01*
X1556091Y396226D01*
X1556161Y396294D01*
X1556229Y396364D01*
X1556295Y396438D01*
X1556357Y396514D01*
X1556416Y396592D01*
X1556472Y396672D01*
X1556525Y396755D01*
X1556575Y396839D01*
X1556621Y396926D01*
X1556664Y397014D01*
X1556703Y397104D01*
X1556739Y397195D01*
X1556771Y397288D01*
X1556799Y397382D01*
X1556824Y397477D01*
X1556845Y397573D01*
X1556862Y397669D01*
X1556876Y397766D01*
X1556885Y397864D01*
X1556891Y397962D01*
X1556893Y398060D01*
X1556893Y398892D01*
X1556893Y407721D02*
X1556893Y411884D01*
X1556893Y407721D02*
X1556891Y407623D01*
X1556885Y407525D01*
X1556876Y407427D01*
X1556862Y407330D01*
X1556845Y407234D01*
X1556824Y407138D01*
X1556799Y407043D01*
X1556771Y406949D01*
X1556739Y406856D01*
X1556703Y406765D01*
X1556664Y406675D01*
X1556621Y406587D01*
X1556574Y406500D01*
X1556525Y406416D01*
X1556472Y406333D01*
X1556416Y406253D01*
X1556357Y406175D01*
X1556295Y406099D01*
X1556229Y406025D01*
X1556161Y405955D01*
X1556091Y405887D01*
X1556017Y405822D01*
X1555942Y405759D01*
X1555863Y405700D01*
X1555783Y405644D01*
X1555700Y405591D01*
X1555616Y405542D01*
X1555529Y405495D01*
X1555441Y405452D01*
X1555351Y405413D01*
X1555260Y405377D01*
X1555167Y405345D01*
X1555073Y405317D01*
X1554978Y405292D01*
X1554882Y405271D01*
X1554786Y405254D01*
X1554689Y405240D01*
X1554591Y405231D01*
X1554493Y405225D01*
X1554395Y405223D01*
X1554395Y405224D02*
X1550233Y405224D01*
X1550119Y405226D01*
X1550006Y405232D01*
X1549892Y405241D01*
X1549780Y405255D01*
X1549667Y405272D01*
X1549555Y405294D01*
X1549445Y405319D01*
X1549335Y405347D01*
X1549226Y405380D01*
X1549118Y405416D01*
X1549011Y405456D01*
X1548906Y405500D01*
X1548803Y405547D01*
X1548701Y405597D01*
X1548601Y405651D01*
X1548503Y405709D01*
X1548407Y405770D01*
X1548313Y405833D01*
X1548221Y405901D01*
X1548131Y405971D01*
X1548045Y406044D01*
X1547960Y406120D01*
X1547878Y406199D01*
X1547799Y406281D01*
X1547723Y406366D01*
X1547650Y406452D01*
X1547580Y406542D01*
X1547512Y406634D01*
X1547449Y406728D01*
X1547388Y406824D01*
X1547330Y406922D01*
X1547276Y407022D01*
X1547226Y407124D01*
X1547179Y407227D01*
X1547135Y407332D01*
X1547095Y407439D01*
X1547059Y407547D01*
X1547026Y407656D01*
X1546998Y407766D01*
X1546973Y407876D01*
X1546951Y407988D01*
X1546934Y408101D01*
X1546920Y408213D01*
X1546911Y408327D01*
X1546905Y408440D01*
X1546903Y408554D01*
X1546905Y408668D01*
X1546911Y408781D01*
X1546920Y408895D01*
X1546934Y409007D01*
X1546951Y409120D01*
X1546973Y409232D01*
X1546998Y409342D01*
X1547026Y409452D01*
X1547059Y409561D01*
X1547095Y409669D01*
X1547135Y409776D01*
X1547179Y409881D01*
X1547226Y409984D01*
X1547276Y410086D01*
X1547330Y410186D01*
X1547388Y410284D01*
X1547449Y410380D01*
X1547512Y410474D01*
X1547580Y410566D01*
X1547650Y410656D01*
X1547723Y410742D01*
X1547799Y410827D01*
X1547878Y410909D01*
X1547960Y410988D01*
X1548045Y411064D01*
X1548131Y411137D01*
X1548221Y411207D01*
X1548313Y411275D01*
X1548407Y411338D01*
X1548503Y411399D01*
X1548601Y411457D01*
X1548701Y411511D01*
X1548803Y411561D01*
X1548906Y411608D01*
X1549011Y411652D01*
X1549118Y411692D01*
X1549226Y411728D01*
X1549335Y411761D01*
X1549445Y411789D01*
X1549555Y411814D01*
X1549667Y411836D01*
X1549780Y411853D01*
X1549892Y411867D01*
X1550006Y411876D01*
X1550119Y411882D01*
X1550233Y411884D01*
X1551898Y411884D01*
X1551898Y405224D01*
X1552730Y427317D02*
X1546070Y427317D01*
X1545942Y427319D01*
X1545814Y427325D01*
X1545686Y427335D01*
X1545558Y427349D01*
X1545431Y427366D01*
X1545305Y427388D01*
X1545179Y427413D01*
X1545055Y427443D01*
X1544931Y427476D01*
X1544808Y427513D01*
X1544686Y427554D01*
X1544566Y427598D01*
X1544447Y427646D01*
X1544330Y427698D01*
X1544214Y427753D01*
X1544101Y427812D01*
X1543989Y427875D01*
X1543878Y427941D01*
X1543771Y428010D01*
X1543665Y428082D01*
X1543561Y428158D01*
X1543460Y428237D01*
X1543361Y428319D01*
X1543265Y428404D01*
X1543172Y428491D01*
X1543081Y428582D01*
X1542994Y428675D01*
X1542909Y428771D01*
X1542827Y428870D01*
X1542748Y428971D01*
X1542672Y429075D01*
X1542600Y429181D01*
X1542531Y429288D01*
X1542465Y429399D01*
X1542402Y429511D01*
X1542343Y429624D01*
X1542288Y429740D01*
X1542236Y429857D01*
X1542188Y429976D01*
X1542144Y430096D01*
X1542103Y430218D01*
X1542066Y430341D01*
X1542033Y430465D01*
X1542003Y430589D01*
X1541978Y430715D01*
X1541956Y430841D01*
X1541939Y430968D01*
X1541925Y431096D01*
X1541915Y431224D01*
X1541909Y431352D01*
X1541907Y431480D01*
X1541909Y431608D01*
X1541915Y431736D01*
X1541925Y431864D01*
X1541939Y431992D01*
X1541956Y432119D01*
X1541978Y432245D01*
X1542003Y432371D01*
X1542033Y432495D01*
X1542066Y432619D01*
X1542103Y432742D01*
X1542144Y432864D01*
X1542188Y432984D01*
X1542236Y433103D01*
X1542288Y433220D01*
X1542343Y433336D01*
X1542402Y433449D01*
X1542465Y433562D01*
X1542531Y433672D01*
X1542600Y433779D01*
X1542672Y433885D01*
X1542748Y433989D01*
X1542827Y434090D01*
X1542909Y434189D01*
X1542994Y434285D01*
X1543081Y434378D01*
X1543172Y434469D01*
X1543265Y434556D01*
X1543361Y434641D01*
X1543460Y434723D01*
X1543561Y434802D01*
X1543665Y434878D01*
X1543771Y434950D01*
X1543878Y435019D01*
X1543989Y435085D01*
X1544101Y435148D01*
X1544214Y435207D01*
X1544330Y435262D01*
X1544447Y435314D01*
X1544566Y435362D01*
X1544686Y435406D01*
X1544808Y435447D01*
X1544931Y435484D01*
X1545055Y435517D01*
X1545179Y435547D01*
X1545305Y435572D01*
X1545431Y435594D01*
X1545558Y435611D01*
X1545686Y435625D01*
X1545814Y435635D01*
X1545942Y435641D01*
X1546070Y435643D01*
X1546070Y435642D02*
X1552730Y435642D01*
X1552730Y435643D02*
X1552858Y435641D01*
X1552986Y435635D01*
X1553114Y435625D01*
X1553242Y435611D01*
X1553369Y435594D01*
X1553495Y435572D01*
X1553621Y435547D01*
X1553745Y435517D01*
X1553869Y435484D01*
X1553992Y435447D01*
X1554114Y435406D01*
X1554234Y435362D01*
X1554353Y435314D01*
X1554470Y435262D01*
X1554586Y435207D01*
X1554699Y435148D01*
X1554812Y435085D01*
X1554922Y435019D01*
X1555029Y434950D01*
X1555135Y434878D01*
X1555239Y434802D01*
X1555340Y434723D01*
X1555439Y434641D01*
X1555535Y434556D01*
X1555628Y434469D01*
X1555719Y434378D01*
X1555806Y434285D01*
X1555891Y434189D01*
X1555973Y434090D01*
X1556052Y433989D01*
X1556128Y433885D01*
X1556200Y433779D01*
X1556269Y433672D01*
X1556335Y433562D01*
X1556398Y433449D01*
X1556457Y433336D01*
X1556512Y433220D01*
X1556564Y433103D01*
X1556612Y432984D01*
X1556656Y432864D01*
X1556697Y432742D01*
X1556734Y432619D01*
X1556767Y432495D01*
X1556797Y432371D01*
X1556822Y432245D01*
X1556844Y432119D01*
X1556861Y431992D01*
X1556875Y431864D01*
X1556885Y431736D01*
X1556891Y431608D01*
X1556893Y431480D01*
X1556891Y431352D01*
X1556885Y431224D01*
X1556875Y431096D01*
X1556861Y430968D01*
X1556844Y430841D01*
X1556822Y430715D01*
X1556797Y430589D01*
X1556767Y430465D01*
X1556734Y430341D01*
X1556697Y430218D01*
X1556656Y430096D01*
X1556612Y429976D01*
X1556564Y429857D01*
X1556512Y429740D01*
X1556457Y429624D01*
X1556398Y429511D01*
X1556335Y429399D01*
X1556269Y429288D01*
X1556200Y429181D01*
X1556128Y429075D01*
X1556052Y428971D01*
X1555973Y428870D01*
X1555891Y428771D01*
X1555806Y428675D01*
X1555719Y428582D01*
X1555628Y428491D01*
X1555535Y428404D01*
X1555439Y428319D01*
X1555340Y428237D01*
X1555239Y428158D01*
X1555135Y428082D01*
X1555029Y428010D01*
X1554922Y427941D01*
X1554812Y427875D01*
X1554699Y427812D01*
X1554586Y427753D01*
X1554470Y427698D01*
X1554353Y427646D01*
X1554234Y427598D01*
X1554114Y427554D01*
X1553992Y427513D01*
X1553869Y427476D01*
X1553745Y427443D01*
X1553621Y427413D01*
X1553495Y427388D01*
X1553369Y427366D01*
X1553242Y427349D01*
X1553114Y427335D01*
X1552986Y427325D01*
X1552858Y427319D01*
X1552730Y427317D01*
X1554395Y443259D02*
X1546902Y443259D01*
X1554395Y443259D02*
X1554493Y443261D01*
X1554591Y443267D01*
X1554689Y443276D01*
X1554786Y443290D01*
X1554882Y443307D01*
X1554978Y443328D01*
X1555073Y443353D01*
X1555167Y443381D01*
X1555260Y443413D01*
X1555351Y443449D01*
X1555441Y443488D01*
X1555529Y443531D01*
X1555616Y443578D01*
X1555700Y443627D01*
X1555783Y443680D01*
X1555863Y443736D01*
X1555942Y443795D01*
X1556017Y443858D01*
X1556091Y443923D01*
X1556161Y443991D01*
X1556229Y444061D01*
X1556295Y444135D01*
X1556357Y444211D01*
X1556416Y444289D01*
X1556472Y444369D01*
X1556525Y444452D01*
X1556575Y444536D01*
X1556621Y444623D01*
X1556664Y444711D01*
X1556703Y444801D01*
X1556739Y444892D01*
X1556771Y444985D01*
X1556799Y445079D01*
X1556824Y445174D01*
X1556845Y445270D01*
X1556862Y445366D01*
X1556876Y445463D01*
X1556885Y445561D01*
X1556891Y445659D01*
X1556893Y445757D01*
X1556893Y449920D01*
X1546902Y449920D01*
X1546902Y455901D02*
X1546902Y460896D01*
X1541907Y457566D02*
X1554395Y457566D01*
X1554395Y457565D02*
X1554493Y457567D01*
X1554591Y457573D01*
X1554689Y457582D01*
X1554786Y457596D01*
X1554882Y457613D01*
X1554978Y457634D01*
X1555073Y457659D01*
X1555167Y457687D01*
X1555260Y457719D01*
X1555351Y457755D01*
X1555441Y457794D01*
X1555529Y457837D01*
X1555616Y457884D01*
X1555700Y457933D01*
X1555783Y457986D01*
X1555863Y458042D01*
X1555942Y458101D01*
X1556017Y458164D01*
X1556091Y458229D01*
X1556161Y458297D01*
X1556229Y458367D01*
X1556295Y458441D01*
X1556357Y458517D01*
X1556416Y458595D01*
X1556472Y458675D01*
X1556525Y458758D01*
X1556575Y458842D01*
X1556621Y458929D01*
X1556664Y459017D01*
X1556703Y459107D01*
X1556739Y459198D01*
X1556771Y459291D01*
X1556799Y459385D01*
X1556824Y459480D01*
X1556845Y459576D01*
X1556862Y459672D01*
X1556876Y459769D01*
X1556885Y459867D01*
X1556891Y459965D01*
X1556893Y460063D01*
X1556893Y460064D02*
X1556893Y460896D01*
D12*
X1727200Y-2540D02*
X-165100Y-2540D01*
D11*
X1759689Y-42D02*
X1763019Y-10033D01*
X1766350Y-42D01*
X1773134Y-4205D02*
X1783125Y-4205D01*
X1791679Y-4205D02*
X1795842Y-5870D01*
X1791679Y-4206D02*
X1791594Y-4170D01*
X1791511Y-4130D01*
X1791430Y-4087D01*
X1791350Y-4040D01*
X1791273Y-3990D01*
X1791197Y-3937D01*
X1791124Y-3881D01*
X1791054Y-3821D01*
X1790986Y-3759D01*
X1790921Y-3694D01*
X1790859Y-3626D01*
X1790799Y-3555D01*
X1790743Y-3482D01*
X1790690Y-3407D01*
X1790640Y-3329D01*
X1790594Y-3250D01*
X1790551Y-3168D01*
X1790511Y-3085D01*
X1790475Y-3000D01*
X1790443Y-2914D01*
X1790414Y-2826D01*
X1790390Y-2737D01*
X1790369Y-2647D01*
X1790352Y-2557D01*
X1790338Y-2466D01*
X1790329Y-2374D01*
X1790324Y-2282D01*
X1790322Y-2190D01*
X1790324Y-2098D01*
X1790331Y-2006D01*
X1790341Y-1914D01*
X1790355Y-1823D01*
X1790373Y-1732D01*
X1790395Y-1643D01*
X1790421Y-1554D01*
X1790451Y-1467D01*
X1790484Y-1381D01*
X1790521Y-1297D01*
X1790561Y-1214D01*
X1790605Y-1133D01*
X1790652Y-1054D01*
X1790703Y-977D01*
X1790757Y-902D01*
X1790814Y-829D01*
X1790874Y-759D01*
X1790937Y-692D01*
X1791003Y-628D01*
X1791071Y-566D01*
X1791142Y-507D01*
X1791216Y-452D01*
X1791292Y-399D01*
X1791370Y-350D01*
X1791450Y-304D01*
X1791531Y-262D01*
X1791615Y-223D01*
X1791700Y-188D01*
X1791787Y-157D01*
X1791875Y-129D01*
X1791964Y-105D01*
X1792054Y-85D01*
X1792144Y-68D01*
X1792236Y-56D01*
X1792328Y-47D01*
X1792420Y-43D01*
X1792512Y-42D01*
X1792739Y-48D01*
X1792966Y-59D01*
X1793193Y-76D01*
X1793419Y-99D01*
X1793645Y-126D01*
X1793870Y-160D01*
X1794094Y-198D01*
X1794317Y-242D01*
X1794539Y-291D01*
X1794760Y-346D01*
X1794979Y-406D01*
X1795197Y-471D01*
X1795413Y-542D01*
X1795627Y-617D01*
X1795840Y-698D01*
X1796050Y-784D01*
X1796259Y-875D01*
X1795842Y-5870D02*
X1795927Y-5906D01*
X1796010Y-5946D01*
X1796091Y-5989D01*
X1796171Y-6036D01*
X1796248Y-6086D01*
X1796324Y-6139D01*
X1796397Y-6195D01*
X1796467Y-6255D01*
X1796535Y-6317D01*
X1796600Y-6382D01*
X1796662Y-6450D01*
X1796722Y-6521D01*
X1796778Y-6594D01*
X1796831Y-6669D01*
X1796881Y-6747D01*
X1796927Y-6826D01*
X1796970Y-6908D01*
X1797010Y-6991D01*
X1797046Y-7076D01*
X1797078Y-7162D01*
X1797107Y-7250D01*
X1797131Y-7339D01*
X1797152Y-7429D01*
X1797169Y-7519D01*
X1797183Y-7610D01*
X1797192Y-7702D01*
X1797197Y-7794D01*
X1797199Y-7886D01*
X1797197Y-7978D01*
X1797190Y-8070D01*
X1797180Y-8162D01*
X1797166Y-8253D01*
X1797148Y-8344D01*
X1797126Y-8433D01*
X1797100Y-8522D01*
X1797070Y-8609D01*
X1797037Y-8695D01*
X1797000Y-8779D01*
X1796960Y-8862D01*
X1796916Y-8943D01*
X1796869Y-9022D01*
X1796818Y-9099D01*
X1796764Y-9174D01*
X1796707Y-9247D01*
X1796647Y-9317D01*
X1796584Y-9384D01*
X1796518Y-9448D01*
X1796450Y-9510D01*
X1796379Y-9569D01*
X1796305Y-9624D01*
X1796229Y-9677D01*
X1796151Y-9726D01*
X1796071Y-9772D01*
X1795990Y-9814D01*
X1795906Y-9853D01*
X1795821Y-9888D01*
X1795734Y-9919D01*
X1795646Y-9947D01*
X1795557Y-9971D01*
X1795467Y-9991D01*
X1795377Y-10008D01*
X1795285Y-10020D01*
X1795193Y-10029D01*
X1795101Y-10033D01*
X1795009Y-10034D01*
X1795009Y-10033D02*
X1794675Y-10024D01*
X1794342Y-10007D01*
X1794009Y-9983D01*
X1793676Y-9950D01*
X1793345Y-9910D01*
X1793014Y-9862D01*
X1792685Y-9806D01*
X1792357Y-9743D01*
X1792031Y-9671D01*
X1791707Y-9592D01*
X1791384Y-9506D01*
X1791064Y-9411D01*
X1790746Y-9309D01*
X1790430Y-9200D01*
X1806502Y-10033D02*
X1809832Y-10033D01*
X1806502Y-10033D02*
X1806404Y-10031D01*
X1806306Y-10025D01*
X1806208Y-10016D01*
X1806111Y-10002D01*
X1806015Y-9985D01*
X1805919Y-9964D01*
X1805824Y-9939D01*
X1805730Y-9911D01*
X1805637Y-9879D01*
X1805546Y-9843D01*
X1805456Y-9804D01*
X1805368Y-9761D01*
X1805281Y-9714D01*
X1805197Y-9665D01*
X1805114Y-9612D01*
X1805034Y-9556D01*
X1804956Y-9497D01*
X1804880Y-9435D01*
X1804806Y-9369D01*
X1804736Y-9301D01*
X1804668Y-9231D01*
X1804603Y-9157D01*
X1804540Y-9082D01*
X1804481Y-9003D01*
X1804425Y-8923D01*
X1804372Y-8840D01*
X1804323Y-8756D01*
X1804276Y-8669D01*
X1804233Y-8581D01*
X1804194Y-8491D01*
X1804158Y-8400D01*
X1804126Y-8307D01*
X1804098Y-8213D01*
X1804073Y-8118D01*
X1804052Y-8022D01*
X1804035Y-7926D01*
X1804021Y-7829D01*
X1804012Y-7731D01*
X1804006Y-7633D01*
X1804004Y-7535D01*
X1804004Y-2540D01*
X1804006Y-2442D01*
X1804012Y-2344D01*
X1804021Y-2246D01*
X1804035Y-2149D01*
X1804052Y-2053D01*
X1804073Y-1957D01*
X1804098Y-1862D01*
X1804126Y-1768D01*
X1804158Y-1675D01*
X1804194Y-1584D01*
X1804233Y-1494D01*
X1804276Y-1406D01*
X1804323Y-1319D01*
X1804372Y-1235D01*
X1804425Y-1152D01*
X1804481Y-1072D01*
X1804540Y-994D01*
X1804603Y-918D01*
X1804668Y-844D01*
X1804736Y-774D01*
X1804806Y-706D01*
X1804880Y-641D01*
X1804956Y-578D01*
X1805034Y-519D01*
X1805114Y-463D01*
X1805197Y-410D01*
X1805281Y-361D01*
X1805368Y-314D01*
X1805456Y-271D01*
X1805546Y-232D01*
X1805637Y-196D01*
X1805730Y-164D01*
X1805824Y-136D01*
X1805919Y-111D01*
X1806015Y-90D01*
X1806111Y-73D01*
X1806208Y-59D01*
X1806306Y-50D01*
X1806404Y-44D01*
X1806502Y-42D01*
X1809832Y-42D01*
X1815962Y-3373D02*
X1815962Y-6703D01*
X1815962Y-3373D02*
X1815964Y-3259D01*
X1815970Y-3146D01*
X1815979Y-3032D01*
X1815993Y-2920D01*
X1816010Y-2807D01*
X1816032Y-2695D01*
X1816057Y-2585D01*
X1816085Y-2475D01*
X1816118Y-2366D01*
X1816154Y-2258D01*
X1816194Y-2151D01*
X1816238Y-2046D01*
X1816285Y-1943D01*
X1816335Y-1841D01*
X1816389Y-1741D01*
X1816447Y-1643D01*
X1816508Y-1547D01*
X1816571Y-1453D01*
X1816639Y-1361D01*
X1816709Y-1271D01*
X1816782Y-1185D01*
X1816858Y-1100D01*
X1816937Y-1018D01*
X1817019Y-939D01*
X1817104Y-863D01*
X1817190Y-790D01*
X1817280Y-720D01*
X1817372Y-652D01*
X1817466Y-589D01*
X1817562Y-528D01*
X1817660Y-470D01*
X1817760Y-416D01*
X1817862Y-366D01*
X1817965Y-319D01*
X1818070Y-275D01*
X1818177Y-235D01*
X1818285Y-199D01*
X1818394Y-166D01*
X1818504Y-138D01*
X1818614Y-113D01*
X1818726Y-91D01*
X1818839Y-74D01*
X1818951Y-60D01*
X1819065Y-51D01*
X1819178Y-45D01*
X1819292Y-43D01*
X1819406Y-45D01*
X1819519Y-51D01*
X1819633Y-60D01*
X1819745Y-74D01*
X1819858Y-91D01*
X1819970Y-113D01*
X1820080Y-138D01*
X1820190Y-166D01*
X1820299Y-199D01*
X1820407Y-235D01*
X1820514Y-275D01*
X1820619Y-319D01*
X1820722Y-366D01*
X1820824Y-416D01*
X1820924Y-470D01*
X1821022Y-528D01*
X1821118Y-589D01*
X1821212Y-652D01*
X1821304Y-720D01*
X1821394Y-790D01*
X1821480Y-863D01*
X1821565Y-939D01*
X1821647Y-1018D01*
X1821726Y-1100D01*
X1821802Y-1185D01*
X1821875Y-1271D01*
X1821945Y-1361D01*
X1822013Y-1453D01*
X1822076Y-1547D01*
X1822137Y-1643D01*
X1822195Y-1741D01*
X1822249Y-1841D01*
X1822299Y-1943D01*
X1822346Y-2046D01*
X1822390Y-2151D01*
X1822430Y-2258D01*
X1822466Y-2366D01*
X1822499Y-2475D01*
X1822527Y-2585D01*
X1822552Y-2695D01*
X1822574Y-2807D01*
X1822591Y-2920D01*
X1822605Y-3032D01*
X1822614Y-3146D01*
X1822620Y-3259D01*
X1822622Y-3373D01*
X1822622Y-6703D01*
X1822620Y-6817D01*
X1822614Y-6930D01*
X1822605Y-7044D01*
X1822591Y-7156D01*
X1822574Y-7269D01*
X1822552Y-7381D01*
X1822527Y-7491D01*
X1822499Y-7601D01*
X1822466Y-7710D01*
X1822430Y-7818D01*
X1822390Y-7925D01*
X1822346Y-8030D01*
X1822299Y-8133D01*
X1822249Y-8235D01*
X1822195Y-8335D01*
X1822137Y-8433D01*
X1822076Y-8529D01*
X1822013Y-8623D01*
X1821945Y-8715D01*
X1821875Y-8805D01*
X1821802Y-8891D01*
X1821726Y-8976D01*
X1821647Y-9058D01*
X1821565Y-9137D01*
X1821480Y-9213D01*
X1821394Y-9286D01*
X1821304Y-9356D01*
X1821212Y-9424D01*
X1821118Y-9487D01*
X1821022Y-9548D01*
X1820924Y-9606D01*
X1820824Y-9660D01*
X1820722Y-9710D01*
X1820619Y-9757D01*
X1820514Y-9801D01*
X1820407Y-9841D01*
X1820299Y-9877D01*
X1820190Y-9910D01*
X1820080Y-9938D01*
X1819970Y-9963D01*
X1819858Y-9985D01*
X1819745Y-10002D01*
X1819633Y-10016D01*
X1819519Y-10025D01*
X1819406Y-10031D01*
X1819292Y-10033D01*
X1819178Y-10031D01*
X1819065Y-10025D01*
X1818951Y-10016D01*
X1818839Y-10002D01*
X1818726Y-9985D01*
X1818614Y-9963D01*
X1818504Y-9938D01*
X1818394Y-9910D01*
X1818285Y-9877D01*
X1818177Y-9841D01*
X1818070Y-9801D01*
X1817965Y-9757D01*
X1817862Y-9710D01*
X1817760Y-9660D01*
X1817660Y-9606D01*
X1817562Y-9548D01*
X1817466Y-9487D01*
X1817372Y-9424D01*
X1817280Y-9356D01*
X1817190Y-9286D01*
X1817104Y-9213D01*
X1817019Y-9137D01*
X1816937Y-9058D01*
X1816858Y-8976D01*
X1816782Y-8891D01*
X1816709Y-8805D01*
X1816639Y-8715D01*
X1816571Y-8623D01*
X1816508Y-8529D01*
X1816447Y-8433D01*
X1816389Y-8335D01*
X1816335Y-8235D01*
X1816285Y-8133D01*
X1816238Y-8030D01*
X1816194Y-7925D01*
X1816154Y-7818D01*
X1816118Y-7710D01*
X1816085Y-7601D01*
X1816057Y-7491D01*
X1816032Y-7381D01*
X1816010Y-7269D01*
X1815993Y-7156D01*
X1815979Y-7044D01*
X1815970Y-6930D01*
X1815964Y-6817D01*
X1815962Y-6703D01*
X1830158Y-10033D02*
X1830158Y-42D01*
X1835153Y-42D01*
X1835153Y-1707D01*
X1842948Y-10033D02*
X1847111Y-10033D01*
X1842948Y-10033D02*
X1842850Y-10031D01*
X1842752Y-10025D01*
X1842654Y-10016D01*
X1842557Y-10002D01*
X1842461Y-9985D01*
X1842365Y-9964D01*
X1842270Y-9939D01*
X1842176Y-9911D01*
X1842083Y-9879D01*
X1841992Y-9843D01*
X1841902Y-9804D01*
X1841814Y-9761D01*
X1841727Y-9714D01*
X1841643Y-9665D01*
X1841560Y-9612D01*
X1841480Y-9556D01*
X1841402Y-9497D01*
X1841326Y-9435D01*
X1841252Y-9369D01*
X1841182Y-9301D01*
X1841114Y-9231D01*
X1841049Y-9157D01*
X1840986Y-9082D01*
X1840927Y-9003D01*
X1840871Y-8923D01*
X1840818Y-8840D01*
X1840769Y-8756D01*
X1840722Y-8669D01*
X1840679Y-8581D01*
X1840640Y-8491D01*
X1840604Y-8400D01*
X1840572Y-8307D01*
X1840544Y-8213D01*
X1840519Y-8118D01*
X1840498Y-8022D01*
X1840481Y-7926D01*
X1840467Y-7829D01*
X1840458Y-7731D01*
X1840452Y-7633D01*
X1840450Y-7535D01*
X1840450Y-3373D01*
X1840451Y-3373D02*
X1840453Y-3259D01*
X1840459Y-3146D01*
X1840468Y-3032D01*
X1840482Y-2920D01*
X1840499Y-2807D01*
X1840521Y-2695D01*
X1840546Y-2585D01*
X1840574Y-2475D01*
X1840607Y-2366D01*
X1840643Y-2258D01*
X1840683Y-2151D01*
X1840727Y-2046D01*
X1840774Y-1943D01*
X1840824Y-1841D01*
X1840878Y-1741D01*
X1840936Y-1643D01*
X1840997Y-1547D01*
X1841060Y-1453D01*
X1841128Y-1361D01*
X1841198Y-1271D01*
X1841271Y-1185D01*
X1841347Y-1100D01*
X1841426Y-1018D01*
X1841508Y-939D01*
X1841593Y-863D01*
X1841679Y-790D01*
X1841769Y-720D01*
X1841861Y-652D01*
X1841955Y-589D01*
X1842051Y-528D01*
X1842149Y-470D01*
X1842249Y-416D01*
X1842351Y-366D01*
X1842454Y-319D01*
X1842559Y-275D01*
X1842666Y-235D01*
X1842774Y-199D01*
X1842883Y-166D01*
X1842993Y-138D01*
X1843103Y-113D01*
X1843215Y-91D01*
X1843328Y-74D01*
X1843440Y-60D01*
X1843554Y-51D01*
X1843667Y-45D01*
X1843781Y-43D01*
X1843895Y-45D01*
X1844008Y-51D01*
X1844122Y-60D01*
X1844234Y-74D01*
X1844347Y-91D01*
X1844459Y-113D01*
X1844569Y-138D01*
X1844679Y-166D01*
X1844788Y-199D01*
X1844896Y-235D01*
X1845003Y-275D01*
X1845108Y-319D01*
X1845211Y-366D01*
X1845313Y-416D01*
X1845413Y-470D01*
X1845511Y-528D01*
X1845607Y-589D01*
X1845701Y-652D01*
X1845793Y-720D01*
X1845883Y-790D01*
X1845969Y-863D01*
X1846054Y-939D01*
X1846136Y-1018D01*
X1846215Y-1100D01*
X1846291Y-1185D01*
X1846364Y-1271D01*
X1846434Y-1361D01*
X1846502Y-1453D01*
X1846565Y-1547D01*
X1846626Y-1643D01*
X1846684Y-1741D01*
X1846738Y-1841D01*
X1846788Y-1943D01*
X1846835Y-2046D01*
X1846879Y-2151D01*
X1846919Y-2258D01*
X1846955Y-2366D01*
X1846988Y-2475D01*
X1847016Y-2585D01*
X1847041Y-2695D01*
X1847063Y-2807D01*
X1847080Y-2920D01*
X1847094Y-3032D01*
X1847103Y-3146D01*
X1847109Y-3259D01*
X1847111Y-3373D01*
X1847111Y-5038D01*
X1840450Y-5038D01*
D12*
X1727200Y815340D02*
X-165100Y815340D01*
D11*
X1759689Y817838D02*
X1763019Y807847D01*
X1766350Y817838D01*
X1773134Y813675D02*
X1783125Y813675D01*
X1791679Y813675D02*
X1795842Y812010D01*
X1791679Y813674D02*
X1791594Y813710D01*
X1791511Y813750D01*
X1791430Y813793D01*
X1791350Y813840D01*
X1791273Y813890D01*
X1791197Y813943D01*
X1791124Y813999D01*
X1791054Y814059D01*
X1790986Y814121D01*
X1790921Y814186D01*
X1790859Y814254D01*
X1790799Y814325D01*
X1790743Y814398D01*
X1790690Y814473D01*
X1790640Y814551D01*
X1790594Y814630D01*
X1790551Y814712D01*
X1790511Y814795D01*
X1790475Y814880D01*
X1790443Y814966D01*
X1790414Y815054D01*
X1790390Y815143D01*
X1790369Y815233D01*
X1790352Y815323D01*
X1790338Y815414D01*
X1790329Y815506D01*
X1790324Y815598D01*
X1790322Y815690D01*
X1790324Y815782D01*
X1790331Y815874D01*
X1790341Y815966D01*
X1790355Y816057D01*
X1790373Y816148D01*
X1790395Y816237D01*
X1790421Y816326D01*
X1790451Y816413D01*
X1790484Y816499D01*
X1790521Y816583D01*
X1790561Y816666D01*
X1790605Y816747D01*
X1790652Y816826D01*
X1790703Y816903D01*
X1790757Y816978D01*
X1790814Y817051D01*
X1790874Y817121D01*
X1790937Y817188D01*
X1791003Y817252D01*
X1791071Y817314D01*
X1791142Y817373D01*
X1791216Y817428D01*
X1791292Y817481D01*
X1791370Y817530D01*
X1791450Y817576D01*
X1791531Y817618D01*
X1791615Y817657D01*
X1791700Y817692D01*
X1791787Y817723D01*
X1791875Y817751D01*
X1791964Y817775D01*
X1792054Y817795D01*
X1792144Y817812D01*
X1792236Y817824D01*
X1792328Y817833D01*
X1792420Y817837D01*
X1792512Y817838D01*
X1792739Y817832D01*
X1792966Y817821D01*
X1793193Y817804D01*
X1793419Y817781D01*
X1793645Y817754D01*
X1793870Y817720D01*
X1794094Y817682D01*
X1794317Y817638D01*
X1794539Y817589D01*
X1794760Y817534D01*
X1794979Y817474D01*
X1795197Y817409D01*
X1795413Y817338D01*
X1795627Y817263D01*
X1795840Y817182D01*
X1796050Y817096D01*
X1796259Y817005D01*
X1795842Y812010D02*
X1795927Y811974D01*
X1796010Y811934D01*
X1796091Y811891D01*
X1796171Y811844D01*
X1796248Y811794D01*
X1796324Y811741D01*
X1796397Y811685D01*
X1796467Y811625D01*
X1796535Y811563D01*
X1796600Y811498D01*
X1796662Y811430D01*
X1796722Y811359D01*
X1796778Y811286D01*
X1796831Y811211D01*
X1796881Y811133D01*
X1796927Y811054D01*
X1796970Y810972D01*
X1797010Y810889D01*
X1797046Y810804D01*
X1797078Y810718D01*
X1797107Y810630D01*
X1797131Y810541D01*
X1797152Y810451D01*
X1797169Y810361D01*
X1797183Y810270D01*
X1797192Y810178D01*
X1797197Y810086D01*
X1797199Y809994D01*
X1797197Y809902D01*
X1797190Y809810D01*
X1797180Y809718D01*
X1797166Y809627D01*
X1797148Y809536D01*
X1797126Y809447D01*
X1797100Y809358D01*
X1797070Y809271D01*
X1797037Y809185D01*
X1797000Y809101D01*
X1796960Y809018D01*
X1796916Y808937D01*
X1796869Y808858D01*
X1796818Y808781D01*
X1796764Y808706D01*
X1796707Y808633D01*
X1796647Y808563D01*
X1796584Y808496D01*
X1796518Y808432D01*
X1796450Y808370D01*
X1796379Y808311D01*
X1796305Y808256D01*
X1796229Y808203D01*
X1796151Y808154D01*
X1796071Y808108D01*
X1795990Y808066D01*
X1795906Y808027D01*
X1795821Y807992D01*
X1795734Y807961D01*
X1795646Y807933D01*
X1795557Y807909D01*
X1795467Y807889D01*
X1795377Y807872D01*
X1795285Y807860D01*
X1795193Y807851D01*
X1795101Y807847D01*
X1795009Y807846D01*
X1795009Y807847D02*
X1794675Y807856D01*
X1794342Y807873D01*
X1794009Y807897D01*
X1793676Y807930D01*
X1793345Y807970D01*
X1793014Y808018D01*
X1792685Y808074D01*
X1792357Y808137D01*
X1792031Y808209D01*
X1791707Y808288D01*
X1791384Y808374D01*
X1791064Y808469D01*
X1790746Y808571D01*
X1790430Y808680D01*
X1806502Y807847D02*
X1809832Y807847D01*
X1806502Y807847D02*
X1806404Y807849D01*
X1806306Y807855D01*
X1806208Y807864D01*
X1806111Y807878D01*
X1806015Y807895D01*
X1805919Y807916D01*
X1805824Y807941D01*
X1805730Y807969D01*
X1805637Y808001D01*
X1805546Y808037D01*
X1805456Y808076D01*
X1805368Y808119D01*
X1805281Y808166D01*
X1805197Y808215D01*
X1805114Y808268D01*
X1805034Y808324D01*
X1804956Y808383D01*
X1804880Y808446D01*
X1804806Y808511D01*
X1804736Y808579D01*
X1804668Y808649D01*
X1804603Y808723D01*
X1804540Y808799D01*
X1804481Y808877D01*
X1804425Y808957D01*
X1804372Y809040D01*
X1804323Y809124D01*
X1804276Y809211D01*
X1804233Y809299D01*
X1804194Y809389D01*
X1804158Y809480D01*
X1804126Y809573D01*
X1804098Y809667D01*
X1804073Y809762D01*
X1804052Y809858D01*
X1804035Y809954D01*
X1804021Y810051D01*
X1804012Y810149D01*
X1804006Y810247D01*
X1804004Y810345D01*
X1804004Y815340D01*
X1804006Y815438D01*
X1804012Y815536D01*
X1804021Y815634D01*
X1804035Y815731D01*
X1804052Y815827D01*
X1804073Y815923D01*
X1804098Y816018D01*
X1804126Y816112D01*
X1804158Y816205D01*
X1804194Y816296D01*
X1804233Y816386D01*
X1804276Y816474D01*
X1804323Y816561D01*
X1804372Y816645D01*
X1804425Y816728D01*
X1804481Y816808D01*
X1804540Y816887D01*
X1804603Y816962D01*
X1804668Y817036D01*
X1804736Y817106D01*
X1804806Y817174D01*
X1804880Y817240D01*
X1804956Y817302D01*
X1805034Y817361D01*
X1805114Y817417D01*
X1805197Y817470D01*
X1805281Y817520D01*
X1805368Y817566D01*
X1805456Y817609D01*
X1805546Y817648D01*
X1805637Y817684D01*
X1805730Y817716D01*
X1805824Y817744D01*
X1805919Y817769D01*
X1806015Y817790D01*
X1806111Y817807D01*
X1806208Y817821D01*
X1806306Y817830D01*
X1806404Y817836D01*
X1806502Y817838D01*
X1809832Y817838D01*
X1815962Y814507D02*
X1815962Y811177D01*
X1815962Y814507D02*
X1815964Y814621D01*
X1815970Y814734D01*
X1815979Y814848D01*
X1815993Y814960D01*
X1816010Y815073D01*
X1816032Y815185D01*
X1816057Y815295D01*
X1816085Y815405D01*
X1816118Y815514D01*
X1816154Y815622D01*
X1816194Y815729D01*
X1816238Y815834D01*
X1816285Y815937D01*
X1816335Y816039D01*
X1816389Y816139D01*
X1816447Y816237D01*
X1816508Y816333D01*
X1816571Y816427D01*
X1816639Y816519D01*
X1816709Y816609D01*
X1816782Y816695D01*
X1816858Y816780D01*
X1816937Y816862D01*
X1817019Y816941D01*
X1817104Y817017D01*
X1817190Y817090D01*
X1817280Y817160D01*
X1817372Y817228D01*
X1817466Y817291D01*
X1817562Y817352D01*
X1817660Y817410D01*
X1817760Y817464D01*
X1817862Y817514D01*
X1817965Y817561D01*
X1818070Y817605D01*
X1818177Y817645D01*
X1818285Y817681D01*
X1818394Y817714D01*
X1818504Y817742D01*
X1818614Y817767D01*
X1818726Y817789D01*
X1818839Y817806D01*
X1818951Y817820D01*
X1819065Y817829D01*
X1819178Y817835D01*
X1819292Y817837D01*
X1819406Y817835D01*
X1819519Y817829D01*
X1819633Y817820D01*
X1819745Y817806D01*
X1819858Y817789D01*
X1819970Y817767D01*
X1820080Y817742D01*
X1820190Y817714D01*
X1820299Y817681D01*
X1820407Y817645D01*
X1820514Y817605D01*
X1820619Y817561D01*
X1820722Y817514D01*
X1820824Y817464D01*
X1820924Y817410D01*
X1821022Y817352D01*
X1821118Y817291D01*
X1821212Y817228D01*
X1821304Y817160D01*
X1821394Y817090D01*
X1821480Y817017D01*
X1821565Y816941D01*
X1821647Y816862D01*
X1821726Y816780D01*
X1821802Y816695D01*
X1821875Y816609D01*
X1821945Y816519D01*
X1822013Y816427D01*
X1822076Y816333D01*
X1822137Y816237D01*
X1822195Y816139D01*
X1822249Y816039D01*
X1822299Y815937D01*
X1822346Y815834D01*
X1822390Y815729D01*
X1822430Y815622D01*
X1822466Y815514D01*
X1822499Y815405D01*
X1822527Y815295D01*
X1822552Y815185D01*
X1822574Y815073D01*
X1822591Y814960D01*
X1822605Y814848D01*
X1822614Y814734D01*
X1822620Y814621D01*
X1822622Y814507D01*
X1822622Y811177D01*
X1822620Y811063D01*
X1822614Y810950D01*
X1822605Y810836D01*
X1822591Y810724D01*
X1822574Y810611D01*
X1822552Y810499D01*
X1822527Y810389D01*
X1822499Y810279D01*
X1822466Y810170D01*
X1822430Y810062D01*
X1822390Y809955D01*
X1822346Y809850D01*
X1822299Y809747D01*
X1822249Y809645D01*
X1822195Y809545D01*
X1822137Y809447D01*
X1822076Y809351D01*
X1822013Y809257D01*
X1821945Y809165D01*
X1821875Y809075D01*
X1821802Y808989D01*
X1821726Y808904D01*
X1821647Y808822D01*
X1821565Y808743D01*
X1821480Y808667D01*
X1821394Y808594D01*
X1821304Y808524D01*
X1821212Y808456D01*
X1821118Y808393D01*
X1821022Y808332D01*
X1820924Y808274D01*
X1820824Y808220D01*
X1820722Y808170D01*
X1820619Y808123D01*
X1820514Y808079D01*
X1820407Y808039D01*
X1820299Y808003D01*
X1820190Y807970D01*
X1820080Y807942D01*
X1819970Y807917D01*
X1819858Y807895D01*
X1819745Y807878D01*
X1819633Y807864D01*
X1819519Y807855D01*
X1819406Y807849D01*
X1819292Y807847D01*
X1819178Y807849D01*
X1819065Y807855D01*
X1818951Y807864D01*
X1818839Y807878D01*
X1818726Y807895D01*
X1818614Y807917D01*
X1818504Y807942D01*
X1818394Y807970D01*
X1818285Y808003D01*
X1818177Y808039D01*
X1818070Y808079D01*
X1817965Y808123D01*
X1817862Y808170D01*
X1817760Y808220D01*
X1817660Y808274D01*
X1817562Y808332D01*
X1817466Y808393D01*
X1817372Y808456D01*
X1817280Y808524D01*
X1817190Y808594D01*
X1817104Y808667D01*
X1817019Y808743D01*
X1816937Y808822D01*
X1816858Y808904D01*
X1816782Y808989D01*
X1816709Y809075D01*
X1816639Y809165D01*
X1816571Y809257D01*
X1816508Y809351D01*
X1816447Y809447D01*
X1816389Y809545D01*
X1816335Y809645D01*
X1816285Y809747D01*
X1816238Y809850D01*
X1816194Y809955D01*
X1816154Y810062D01*
X1816118Y810170D01*
X1816085Y810279D01*
X1816057Y810389D01*
X1816032Y810499D01*
X1816010Y810611D01*
X1815993Y810724D01*
X1815979Y810836D01*
X1815970Y810950D01*
X1815964Y811063D01*
X1815962Y811177D01*
X1830158Y807847D02*
X1830158Y817838D01*
X1835153Y817838D01*
X1835153Y816173D01*
X1842948Y807847D02*
X1847111Y807847D01*
X1842948Y807847D02*
X1842850Y807849D01*
X1842752Y807855D01*
X1842654Y807864D01*
X1842557Y807878D01*
X1842461Y807895D01*
X1842365Y807916D01*
X1842270Y807941D01*
X1842176Y807969D01*
X1842083Y808001D01*
X1841992Y808037D01*
X1841902Y808076D01*
X1841814Y808119D01*
X1841727Y808166D01*
X1841643Y808215D01*
X1841560Y808268D01*
X1841480Y808324D01*
X1841402Y808383D01*
X1841326Y808446D01*
X1841252Y808511D01*
X1841182Y808579D01*
X1841114Y808649D01*
X1841049Y808723D01*
X1840986Y808799D01*
X1840927Y808877D01*
X1840871Y808957D01*
X1840818Y809040D01*
X1840769Y809124D01*
X1840722Y809211D01*
X1840679Y809299D01*
X1840640Y809389D01*
X1840604Y809480D01*
X1840572Y809573D01*
X1840544Y809667D01*
X1840519Y809762D01*
X1840498Y809858D01*
X1840481Y809954D01*
X1840467Y810051D01*
X1840458Y810149D01*
X1840452Y810247D01*
X1840450Y810345D01*
X1840450Y814507D01*
X1840451Y814507D02*
X1840453Y814621D01*
X1840459Y814734D01*
X1840468Y814848D01*
X1840482Y814960D01*
X1840499Y815073D01*
X1840521Y815185D01*
X1840546Y815295D01*
X1840574Y815405D01*
X1840607Y815514D01*
X1840643Y815622D01*
X1840683Y815729D01*
X1840727Y815834D01*
X1840774Y815937D01*
X1840824Y816039D01*
X1840878Y816139D01*
X1840936Y816237D01*
X1840997Y816333D01*
X1841060Y816427D01*
X1841128Y816519D01*
X1841198Y816609D01*
X1841271Y816695D01*
X1841347Y816780D01*
X1841426Y816862D01*
X1841508Y816941D01*
X1841593Y817017D01*
X1841679Y817090D01*
X1841769Y817160D01*
X1841861Y817228D01*
X1841955Y817291D01*
X1842051Y817352D01*
X1842149Y817410D01*
X1842249Y817464D01*
X1842351Y817514D01*
X1842454Y817561D01*
X1842559Y817605D01*
X1842666Y817645D01*
X1842774Y817681D01*
X1842883Y817714D01*
X1842993Y817742D01*
X1843103Y817767D01*
X1843215Y817789D01*
X1843328Y817806D01*
X1843440Y817820D01*
X1843554Y817829D01*
X1843667Y817835D01*
X1843781Y817837D01*
X1843895Y817835D01*
X1844008Y817829D01*
X1844122Y817820D01*
X1844234Y817806D01*
X1844347Y817789D01*
X1844459Y817767D01*
X1844569Y817742D01*
X1844679Y817714D01*
X1844788Y817681D01*
X1844896Y817645D01*
X1845003Y817605D01*
X1845108Y817561D01*
X1845211Y817514D01*
X1845313Y817464D01*
X1845413Y817410D01*
X1845511Y817352D01*
X1845607Y817291D01*
X1845701Y817228D01*
X1845793Y817160D01*
X1845883Y817090D01*
X1845969Y817017D01*
X1846054Y816941D01*
X1846136Y816862D01*
X1846215Y816780D01*
X1846291Y816695D01*
X1846364Y816609D01*
X1846434Y816519D01*
X1846502Y816427D01*
X1846565Y816333D01*
X1846626Y816237D01*
X1846684Y816139D01*
X1846738Y816039D01*
X1846788Y815937D01*
X1846835Y815834D01*
X1846879Y815729D01*
X1846919Y815622D01*
X1846955Y815514D01*
X1846988Y815405D01*
X1847016Y815295D01*
X1847041Y815185D01*
X1847063Y815073D01*
X1847080Y814960D01*
X1847094Y814848D01*
X1847103Y814734D01*
X1847109Y814621D01*
X1847111Y814507D01*
X1847111Y812842D01*
X1840450Y812842D01*
D13*
X1663700Y-5080D02*
X-165100Y-5080D01*
X1663700Y-5080D02*
X1663700Y-68580D01*
X-165100Y-68580D01*
X-165100Y-5080D01*
X1600200Y812800D02*
X1663700Y812800D01*
X1663700Y0D01*
X1600200Y0D01*
X1600200Y812800D01*
X1663700Y881380D02*
X-165100Y881380D01*
X1663700Y881380D02*
X1663700Y817880D01*
X-165100Y817880D01*
X-165100Y881380D01*
X-165100Y812800D02*
X-101600Y812800D01*
X-101600Y0D01*
X-165100Y0D01*
X-165100Y812800D01*
D14*
X8890Y25400D02*
X8895Y25805D01*
X8910Y26210D01*
X8935Y26615D01*
X8970Y27018D01*
X9014Y27421D01*
X9069Y27823D01*
X9133Y28223D01*
X9207Y28621D01*
X9291Y29017D01*
X9385Y29412D01*
X9488Y29803D01*
X9601Y30193D01*
X9723Y30579D01*
X9855Y30962D01*
X9996Y31342D01*
X10147Y31718D01*
X10306Y32091D01*
X10475Y32459D01*
X10653Y32823D01*
X10839Y33183D01*
X11035Y33538D01*
X11239Y33888D01*
X11451Y34233D01*
X11672Y34572D01*
X11902Y34907D01*
X12139Y35235D01*
X12384Y35557D01*
X12638Y35874D01*
X12898Y36184D01*
X13167Y36487D01*
X13443Y36784D01*
X13726Y37074D01*
X14016Y37357D01*
X14313Y37633D01*
X14616Y37902D01*
X14926Y38162D01*
X15243Y38416D01*
X15565Y38661D01*
X15893Y38898D01*
X16228Y39128D01*
X16567Y39349D01*
X16912Y39561D01*
X17262Y39765D01*
X17617Y39961D01*
X17977Y40147D01*
X18341Y40325D01*
X18709Y40494D01*
X19082Y40653D01*
X19458Y40804D01*
X19838Y40945D01*
X20221Y41077D01*
X20607Y41199D01*
X20997Y41312D01*
X21388Y41415D01*
X21783Y41509D01*
X22179Y41593D01*
X22577Y41667D01*
X22977Y41731D01*
X23379Y41786D01*
X23782Y41830D01*
X24185Y41865D01*
X24590Y41890D01*
X24995Y41905D01*
X25400Y41910D01*
X25805Y41905D01*
X26210Y41890D01*
X26615Y41865D01*
X27018Y41830D01*
X27421Y41786D01*
X27823Y41731D01*
X28223Y41667D01*
X28621Y41593D01*
X29017Y41509D01*
X29412Y41415D01*
X29803Y41312D01*
X30193Y41199D01*
X30579Y41077D01*
X30962Y40945D01*
X31342Y40804D01*
X31718Y40653D01*
X32091Y40494D01*
X32459Y40325D01*
X32823Y40147D01*
X33183Y39961D01*
X33538Y39765D01*
X33888Y39561D01*
X34233Y39349D01*
X34572Y39128D01*
X34907Y38898D01*
X35235Y38661D01*
X35557Y38416D01*
X35874Y38162D01*
X36184Y37902D01*
X36487Y37633D01*
X36784Y37357D01*
X37074Y37074D01*
X37357Y36784D01*
X37633Y36487D01*
X37902Y36184D01*
X38162Y35874D01*
X38416Y35557D01*
X38661Y35235D01*
X38898Y34907D01*
X39128Y34572D01*
X39349Y34233D01*
X39561Y33888D01*
X39765Y33538D01*
X39961Y33183D01*
X40147Y32823D01*
X40325Y32459D01*
X40494Y32091D01*
X40653Y31718D01*
X40804Y31342D01*
X40945Y30962D01*
X41077Y30579D01*
X41199Y30193D01*
X41312Y29803D01*
X41415Y29412D01*
X41509Y29017D01*
X41593Y28621D01*
X41667Y28223D01*
X41731Y27823D01*
X41786Y27421D01*
X41830Y27018D01*
X41865Y26615D01*
X41890Y26210D01*
X41905Y25805D01*
X41910Y25400D01*
X41905Y24995D01*
X41890Y24590D01*
X41865Y24185D01*
X41830Y23782D01*
X41786Y23379D01*
X41731Y22977D01*
X41667Y22577D01*
X41593Y22179D01*
X41509Y21783D01*
X41415Y21388D01*
X41312Y20997D01*
X41199Y20607D01*
X41077Y20221D01*
X40945Y19838D01*
X40804Y19458D01*
X40653Y19082D01*
X40494Y18709D01*
X40325Y18341D01*
X40147Y17977D01*
X39961Y17617D01*
X39765Y17262D01*
X39561Y16912D01*
X39349Y16567D01*
X39128Y16228D01*
X38898Y15893D01*
X38661Y15565D01*
X38416Y15243D01*
X38162Y14926D01*
X37902Y14616D01*
X37633Y14313D01*
X37357Y14016D01*
X37074Y13726D01*
X36784Y13443D01*
X36487Y13167D01*
X36184Y12898D01*
X35874Y12638D01*
X35557Y12384D01*
X35235Y12139D01*
X34907Y11902D01*
X34572Y11672D01*
X34233Y11451D01*
X33888Y11239D01*
X33538Y11035D01*
X33183Y10839D01*
X32823Y10653D01*
X32459Y10475D01*
X32091Y10306D01*
X31718Y10147D01*
X31342Y9996D01*
X30962Y9855D01*
X30579Y9723D01*
X30193Y9601D01*
X29803Y9488D01*
X29412Y9385D01*
X29017Y9291D01*
X28621Y9207D01*
X28223Y9133D01*
X27823Y9069D01*
X27421Y9014D01*
X27018Y8970D01*
X26615Y8935D01*
X26210Y8910D01*
X25805Y8895D01*
X25400Y8890D01*
X24995Y8895D01*
X24590Y8910D01*
X24185Y8935D01*
X23782Y8970D01*
X23379Y9014D01*
X22977Y9069D01*
X22577Y9133D01*
X22179Y9207D01*
X21783Y9291D01*
X21388Y9385D01*
X20997Y9488D01*
X20607Y9601D01*
X20221Y9723D01*
X19838Y9855D01*
X19458Y9996D01*
X19082Y10147D01*
X18709Y10306D01*
X18341Y10475D01*
X17977Y10653D01*
X17617Y10839D01*
X17262Y11035D01*
X16912Y11239D01*
X16567Y11451D01*
X16228Y11672D01*
X15893Y11902D01*
X15565Y12139D01*
X15243Y12384D01*
X14926Y12638D01*
X14616Y12898D01*
X14313Y13167D01*
X14016Y13443D01*
X13726Y13726D01*
X13443Y14016D01*
X13167Y14313D01*
X12898Y14616D01*
X12638Y14926D01*
X12384Y15243D01*
X12139Y15565D01*
X11902Y15893D01*
X11672Y16228D01*
X11451Y16567D01*
X11239Y16912D01*
X11035Y17262D01*
X10839Y17617D01*
X10653Y17977D01*
X10475Y18341D01*
X10306Y18709D01*
X10147Y19082D01*
X9996Y19458D01*
X9855Y19838D01*
X9723Y20221D01*
X9601Y20607D01*
X9488Y20997D01*
X9385Y21388D01*
X9291Y21783D01*
X9207Y22179D01*
X9133Y22577D01*
X9069Y22977D01*
X9014Y23379D01*
X8970Y23782D01*
X8935Y24185D01*
X8910Y24590D01*
X8895Y24995D01*
X8890Y25400D01*
X8890Y787400D02*
X8895Y787805D01*
X8910Y788210D01*
X8935Y788615D01*
X8970Y789018D01*
X9014Y789421D01*
X9069Y789823D01*
X9133Y790223D01*
X9207Y790621D01*
X9291Y791017D01*
X9385Y791412D01*
X9488Y791803D01*
X9601Y792193D01*
X9723Y792579D01*
X9855Y792962D01*
X9996Y793342D01*
X10147Y793718D01*
X10306Y794091D01*
X10475Y794459D01*
X10653Y794823D01*
X10839Y795183D01*
X11035Y795538D01*
X11239Y795888D01*
X11451Y796233D01*
X11672Y796572D01*
X11902Y796907D01*
X12139Y797235D01*
X12384Y797557D01*
X12638Y797874D01*
X12898Y798184D01*
X13167Y798487D01*
X13443Y798784D01*
X13726Y799074D01*
X14016Y799357D01*
X14313Y799633D01*
X14616Y799902D01*
X14926Y800162D01*
X15243Y800416D01*
X15565Y800661D01*
X15893Y800898D01*
X16228Y801128D01*
X16567Y801349D01*
X16912Y801561D01*
X17262Y801765D01*
X17617Y801961D01*
X17977Y802147D01*
X18341Y802325D01*
X18709Y802494D01*
X19082Y802653D01*
X19458Y802804D01*
X19838Y802945D01*
X20221Y803077D01*
X20607Y803199D01*
X20997Y803312D01*
X21388Y803415D01*
X21783Y803509D01*
X22179Y803593D01*
X22577Y803667D01*
X22977Y803731D01*
X23379Y803786D01*
X23782Y803830D01*
X24185Y803865D01*
X24590Y803890D01*
X24995Y803905D01*
X25400Y803910D01*
X25805Y803905D01*
X26210Y803890D01*
X26615Y803865D01*
X27018Y803830D01*
X27421Y803786D01*
X27823Y803731D01*
X28223Y803667D01*
X28621Y803593D01*
X29017Y803509D01*
X29412Y803415D01*
X29803Y803312D01*
X30193Y803199D01*
X30579Y803077D01*
X30962Y802945D01*
X31342Y802804D01*
X31718Y802653D01*
X32091Y802494D01*
X32459Y802325D01*
X32823Y802147D01*
X33183Y801961D01*
X33538Y801765D01*
X33888Y801561D01*
X34233Y801349D01*
X34572Y801128D01*
X34907Y800898D01*
X35235Y800661D01*
X35557Y800416D01*
X35874Y800162D01*
X36184Y799902D01*
X36487Y799633D01*
X36784Y799357D01*
X37074Y799074D01*
X37357Y798784D01*
X37633Y798487D01*
X37902Y798184D01*
X38162Y797874D01*
X38416Y797557D01*
X38661Y797235D01*
X38898Y796907D01*
X39128Y796572D01*
X39349Y796233D01*
X39561Y795888D01*
X39765Y795538D01*
X39961Y795183D01*
X40147Y794823D01*
X40325Y794459D01*
X40494Y794091D01*
X40653Y793718D01*
X40804Y793342D01*
X40945Y792962D01*
X41077Y792579D01*
X41199Y792193D01*
X41312Y791803D01*
X41415Y791412D01*
X41509Y791017D01*
X41593Y790621D01*
X41667Y790223D01*
X41731Y789823D01*
X41786Y789421D01*
X41830Y789018D01*
X41865Y788615D01*
X41890Y788210D01*
X41905Y787805D01*
X41910Y787400D01*
X41905Y786995D01*
X41890Y786590D01*
X41865Y786185D01*
X41830Y785782D01*
X41786Y785379D01*
X41731Y784977D01*
X41667Y784577D01*
X41593Y784179D01*
X41509Y783783D01*
X41415Y783388D01*
X41312Y782997D01*
X41199Y782607D01*
X41077Y782221D01*
X40945Y781838D01*
X40804Y781458D01*
X40653Y781082D01*
X40494Y780709D01*
X40325Y780341D01*
X40147Y779977D01*
X39961Y779617D01*
X39765Y779262D01*
X39561Y778912D01*
X39349Y778567D01*
X39128Y778228D01*
X38898Y777893D01*
X38661Y777565D01*
X38416Y777243D01*
X38162Y776926D01*
X37902Y776616D01*
X37633Y776313D01*
X37357Y776016D01*
X37074Y775726D01*
X36784Y775443D01*
X36487Y775167D01*
X36184Y774898D01*
X35874Y774638D01*
X35557Y774384D01*
X35235Y774139D01*
X34907Y773902D01*
X34572Y773672D01*
X34233Y773451D01*
X33888Y773239D01*
X33538Y773035D01*
X33183Y772839D01*
X32823Y772653D01*
X32459Y772475D01*
X32091Y772306D01*
X31718Y772147D01*
X31342Y771996D01*
X30962Y771855D01*
X30579Y771723D01*
X30193Y771601D01*
X29803Y771488D01*
X29412Y771385D01*
X29017Y771291D01*
X28621Y771207D01*
X28223Y771133D01*
X27823Y771069D01*
X27421Y771014D01*
X27018Y770970D01*
X26615Y770935D01*
X26210Y770910D01*
X25805Y770895D01*
X25400Y770890D01*
X24995Y770895D01*
X24590Y770910D01*
X24185Y770935D01*
X23782Y770970D01*
X23379Y771014D01*
X22977Y771069D01*
X22577Y771133D01*
X22179Y771207D01*
X21783Y771291D01*
X21388Y771385D01*
X20997Y771488D01*
X20607Y771601D01*
X20221Y771723D01*
X19838Y771855D01*
X19458Y771996D01*
X19082Y772147D01*
X18709Y772306D01*
X18341Y772475D01*
X17977Y772653D01*
X17617Y772839D01*
X17262Y773035D01*
X16912Y773239D01*
X16567Y773451D01*
X16228Y773672D01*
X15893Y773902D01*
X15565Y774139D01*
X15243Y774384D01*
X14926Y774638D01*
X14616Y774898D01*
X14313Y775167D01*
X14016Y775443D01*
X13726Y775726D01*
X13443Y776016D01*
X13167Y776313D01*
X12898Y776616D01*
X12638Y776926D01*
X12384Y777243D01*
X12139Y777565D01*
X11902Y777893D01*
X11672Y778228D01*
X11451Y778567D01*
X11239Y778912D01*
X11035Y779262D01*
X10839Y779617D01*
X10653Y779977D01*
X10475Y780341D01*
X10306Y780709D01*
X10147Y781082D01*
X9996Y781458D01*
X9855Y781838D01*
X9723Y782221D01*
X9601Y782607D01*
X9488Y782997D01*
X9385Y783388D01*
X9291Y783783D01*
X9207Y784179D01*
X9133Y784577D01*
X9069Y784977D01*
X9014Y785379D01*
X8970Y785782D01*
X8935Y786185D01*
X8910Y786590D01*
X8895Y786995D01*
X8890Y787400D01*
X389890Y25400D02*
X389895Y25805D01*
X389910Y26210D01*
X389935Y26615D01*
X389970Y27018D01*
X390014Y27421D01*
X390069Y27823D01*
X390133Y28223D01*
X390207Y28621D01*
X390291Y29017D01*
X390385Y29412D01*
X390488Y29803D01*
X390601Y30193D01*
X390723Y30579D01*
X390855Y30962D01*
X390996Y31342D01*
X391147Y31718D01*
X391306Y32091D01*
X391475Y32459D01*
X391653Y32823D01*
X391839Y33183D01*
X392035Y33538D01*
X392239Y33888D01*
X392451Y34233D01*
X392672Y34572D01*
X392902Y34907D01*
X393139Y35235D01*
X393384Y35557D01*
X393638Y35874D01*
X393898Y36184D01*
X394167Y36487D01*
X394443Y36784D01*
X394726Y37074D01*
X395016Y37357D01*
X395313Y37633D01*
X395616Y37902D01*
X395926Y38162D01*
X396243Y38416D01*
X396565Y38661D01*
X396893Y38898D01*
X397228Y39128D01*
X397567Y39349D01*
X397912Y39561D01*
X398262Y39765D01*
X398617Y39961D01*
X398977Y40147D01*
X399341Y40325D01*
X399709Y40494D01*
X400082Y40653D01*
X400458Y40804D01*
X400838Y40945D01*
X401221Y41077D01*
X401607Y41199D01*
X401997Y41312D01*
X402388Y41415D01*
X402783Y41509D01*
X403179Y41593D01*
X403577Y41667D01*
X403977Y41731D01*
X404379Y41786D01*
X404782Y41830D01*
X405185Y41865D01*
X405590Y41890D01*
X405995Y41905D01*
X406400Y41910D01*
X406805Y41905D01*
X407210Y41890D01*
X407615Y41865D01*
X408018Y41830D01*
X408421Y41786D01*
X408823Y41731D01*
X409223Y41667D01*
X409621Y41593D01*
X410017Y41509D01*
X410412Y41415D01*
X410803Y41312D01*
X411193Y41199D01*
X411579Y41077D01*
X411962Y40945D01*
X412342Y40804D01*
X412718Y40653D01*
X413091Y40494D01*
X413459Y40325D01*
X413823Y40147D01*
X414183Y39961D01*
X414538Y39765D01*
X414888Y39561D01*
X415233Y39349D01*
X415572Y39128D01*
X415907Y38898D01*
X416235Y38661D01*
X416557Y38416D01*
X416874Y38162D01*
X417184Y37902D01*
X417487Y37633D01*
X417784Y37357D01*
X418074Y37074D01*
X418357Y36784D01*
X418633Y36487D01*
X418902Y36184D01*
X419162Y35874D01*
X419416Y35557D01*
X419661Y35235D01*
X419898Y34907D01*
X420128Y34572D01*
X420349Y34233D01*
X420561Y33888D01*
X420765Y33538D01*
X420961Y33183D01*
X421147Y32823D01*
X421325Y32459D01*
X421494Y32091D01*
X421653Y31718D01*
X421804Y31342D01*
X421945Y30962D01*
X422077Y30579D01*
X422199Y30193D01*
X422312Y29803D01*
X422415Y29412D01*
X422509Y29017D01*
X422593Y28621D01*
X422667Y28223D01*
X422731Y27823D01*
X422786Y27421D01*
X422830Y27018D01*
X422865Y26615D01*
X422890Y26210D01*
X422905Y25805D01*
X422910Y25400D01*
X422905Y24995D01*
X422890Y24590D01*
X422865Y24185D01*
X422830Y23782D01*
X422786Y23379D01*
X422731Y22977D01*
X422667Y22577D01*
X422593Y22179D01*
X422509Y21783D01*
X422415Y21388D01*
X422312Y20997D01*
X422199Y20607D01*
X422077Y20221D01*
X421945Y19838D01*
X421804Y19458D01*
X421653Y19082D01*
X421494Y18709D01*
X421325Y18341D01*
X421147Y17977D01*
X420961Y17617D01*
X420765Y17262D01*
X420561Y16912D01*
X420349Y16567D01*
X420128Y16228D01*
X419898Y15893D01*
X419661Y15565D01*
X419416Y15243D01*
X419162Y14926D01*
X418902Y14616D01*
X418633Y14313D01*
X418357Y14016D01*
X418074Y13726D01*
X417784Y13443D01*
X417487Y13167D01*
X417184Y12898D01*
X416874Y12638D01*
X416557Y12384D01*
X416235Y12139D01*
X415907Y11902D01*
X415572Y11672D01*
X415233Y11451D01*
X414888Y11239D01*
X414538Y11035D01*
X414183Y10839D01*
X413823Y10653D01*
X413459Y10475D01*
X413091Y10306D01*
X412718Y10147D01*
X412342Y9996D01*
X411962Y9855D01*
X411579Y9723D01*
X411193Y9601D01*
X410803Y9488D01*
X410412Y9385D01*
X410017Y9291D01*
X409621Y9207D01*
X409223Y9133D01*
X408823Y9069D01*
X408421Y9014D01*
X408018Y8970D01*
X407615Y8935D01*
X407210Y8910D01*
X406805Y8895D01*
X406400Y8890D01*
X405995Y8895D01*
X405590Y8910D01*
X405185Y8935D01*
X404782Y8970D01*
X404379Y9014D01*
X403977Y9069D01*
X403577Y9133D01*
X403179Y9207D01*
X402783Y9291D01*
X402388Y9385D01*
X401997Y9488D01*
X401607Y9601D01*
X401221Y9723D01*
X400838Y9855D01*
X400458Y9996D01*
X400082Y10147D01*
X399709Y10306D01*
X399341Y10475D01*
X398977Y10653D01*
X398617Y10839D01*
X398262Y11035D01*
X397912Y11239D01*
X397567Y11451D01*
X397228Y11672D01*
X396893Y11902D01*
X396565Y12139D01*
X396243Y12384D01*
X395926Y12638D01*
X395616Y12898D01*
X395313Y13167D01*
X395016Y13443D01*
X394726Y13726D01*
X394443Y14016D01*
X394167Y14313D01*
X393898Y14616D01*
X393638Y14926D01*
X393384Y15243D01*
X393139Y15565D01*
X392902Y15893D01*
X392672Y16228D01*
X392451Y16567D01*
X392239Y16912D01*
X392035Y17262D01*
X391839Y17617D01*
X391653Y17977D01*
X391475Y18341D01*
X391306Y18709D01*
X391147Y19082D01*
X390996Y19458D01*
X390855Y19838D01*
X390723Y20221D01*
X390601Y20607D01*
X390488Y20997D01*
X390385Y21388D01*
X390291Y21783D01*
X390207Y22179D01*
X390133Y22577D01*
X390069Y22977D01*
X390014Y23379D01*
X389970Y23782D01*
X389935Y24185D01*
X389910Y24590D01*
X389895Y24995D01*
X389890Y25400D01*
X389890Y787400D02*
X389895Y787805D01*
X389910Y788210D01*
X389935Y788615D01*
X389970Y789018D01*
X390014Y789421D01*
X390069Y789823D01*
X390133Y790223D01*
X390207Y790621D01*
X390291Y791017D01*
X390385Y791412D01*
X390488Y791803D01*
X390601Y792193D01*
X390723Y792579D01*
X390855Y792962D01*
X390996Y793342D01*
X391147Y793718D01*
X391306Y794091D01*
X391475Y794459D01*
X391653Y794823D01*
X391839Y795183D01*
X392035Y795538D01*
X392239Y795888D01*
X392451Y796233D01*
X392672Y796572D01*
X392902Y796907D01*
X393139Y797235D01*
X393384Y797557D01*
X393638Y797874D01*
X393898Y798184D01*
X394167Y798487D01*
X394443Y798784D01*
X394726Y799074D01*
X395016Y799357D01*
X395313Y799633D01*
X395616Y799902D01*
X395926Y800162D01*
X396243Y800416D01*
X396565Y800661D01*
X396893Y800898D01*
X397228Y801128D01*
X397567Y801349D01*
X397912Y801561D01*
X398262Y801765D01*
X398617Y801961D01*
X398977Y802147D01*
X399341Y802325D01*
X399709Y802494D01*
X400082Y802653D01*
X400458Y802804D01*
X400838Y802945D01*
X401221Y803077D01*
X401607Y803199D01*
X401997Y803312D01*
X402388Y803415D01*
X402783Y803509D01*
X403179Y803593D01*
X403577Y803667D01*
X403977Y803731D01*
X404379Y803786D01*
X404782Y803830D01*
X405185Y803865D01*
X405590Y803890D01*
X405995Y803905D01*
X406400Y803910D01*
X406805Y803905D01*
X407210Y803890D01*
X407615Y803865D01*
X408018Y803830D01*
X408421Y803786D01*
X408823Y803731D01*
X409223Y803667D01*
X409621Y803593D01*
X410017Y803509D01*
X410412Y803415D01*
X410803Y803312D01*
X411193Y803199D01*
X411579Y803077D01*
X411962Y802945D01*
X412342Y802804D01*
X412718Y802653D01*
X413091Y802494D01*
X413459Y802325D01*
X413823Y802147D01*
X414183Y801961D01*
X414538Y801765D01*
X414888Y801561D01*
X415233Y801349D01*
X415572Y801128D01*
X415907Y800898D01*
X416235Y800661D01*
X416557Y800416D01*
X416874Y800162D01*
X417184Y799902D01*
X417487Y799633D01*
X417784Y799357D01*
X418074Y799074D01*
X418357Y798784D01*
X418633Y798487D01*
X418902Y798184D01*
X419162Y797874D01*
X419416Y797557D01*
X419661Y797235D01*
X419898Y796907D01*
X420128Y796572D01*
X420349Y796233D01*
X420561Y795888D01*
X420765Y795538D01*
X420961Y795183D01*
X421147Y794823D01*
X421325Y794459D01*
X421494Y794091D01*
X421653Y793718D01*
X421804Y793342D01*
X421945Y792962D01*
X422077Y792579D01*
X422199Y792193D01*
X422312Y791803D01*
X422415Y791412D01*
X422509Y791017D01*
X422593Y790621D01*
X422667Y790223D01*
X422731Y789823D01*
X422786Y789421D01*
X422830Y789018D01*
X422865Y788615D01*
X422890Y788210D01*
X422905Y787805D01*
X422910Y787400D01*
X422905Y786995D01*
X422890Y786590D01*
X422865Y786185D01*
X422830Y785782D01*
X422786Y785379D01*
X422731Y784977D01*
X422667Y784577D01*
X422593Y784179D01*
X422509Y783783D01*
X422415Y783388D01*
X422312Y782997D01*
X422199Y782607D01*
X422077Y782221D01*
X421945Y781838D01*
X421804Y781458D01*
X421653Y781082D01*
X421494Y780709D01*
X421325Y780341D01*
X421147Y779977D01*
X420961Y779617D01*
X420765Y779262D01*
X420561Y778912D01*
X420349Y778567D01*
X420128Y778228D01*
X419898Y777893D01*
X419661Y777565D01*
X419416Y777243D01*
X419162Y776926D01*
X418902Y776616D01*
X418633Y776313D01*
X418357Y776016D01*
X418074Y775726D01*
X417784Y775443D01*
X417487Y775167D01*
X417184Y774898D01*
X416874Y774638D01*
X416557Y774384D01*
X416235Y774139D01*
X415907Y773902D01*
X415572Y773672D01*
X415233Y773451D01*
X414888Y773239D01*
X414538Y773035D01*
X414183Y772839D01*
X413823Y772653D01*
X413459Y772475D01*
X413091Y772306D01*
X412718Y772147D01*
X412342Y771996D01*
X411962Y771855D01*
X411579Y771723D01*
X411193Y771601D01*
X410803Y771488D01*
X410412Y771385D01*
X410017Y771291D01*
X409621Y771207D01*
X409223Y771133D01*
X408823Y771069D01*
X408421Y771014D01*
X408018Y770970D01*
X407615Y770935D01*
X407210Y770910D01*
X406805Y770895D01*
X406400Y770890D01*
X405995Y770895D01*
X405590Y770910D01*
X405185Y770935D01*
X404782Y770970D01*
X404379Y771014D01*
X403977Y771069D01*
X403577Y771133D01*
X403179Y771207D01*
X402783Y771291D01*
X402388Y771385D01*
X401997Y771488D01*
X401607Y771601D01*
X401221Y771723D01*
X400838Y771855D01*
X400458Y771996D01*
X400082Y772147D01*
X399709Y772306D01*
X399341Y772475D01*
X398977Y772653D01*
X398617Y772839D01*
X398262Y773035D01*
X397912Y773239D01*
X397567Y773451D01*
X397228Y773672D01*
X396893Y773902D01*
X396565Y774139D01*
X396243Y774384D01*
X395926Y774638D01*
X395616Y774898D01*
X395313Y775167D01*
X395016Y775443D01*
X394726Y775726D01*
X394443Y776016D01*
X394167Y776313D01*
X393898Y776616D01*
X393638Y776926D01*
X393384Y777243D01*
X393139Y777565D01*
X392902Y777893D01*
X392672Y778228D01*
X392451Y778567D01*
X392239Y778912D01*
X392035Y779262D01*
X391839Y779617D01*
X391653Y779977D01*
X391475Y780341D01*
X391306Y780709D01*
X391147Y781082D01*
X390996Y781458D01*
X390855Y781838D01*
X390723Y782221D01*
X390601Y782607D01*
X390488Y782997D01*
X390385Y783388D01*
X390291Y783783D01*
X390207Y784179D01*
X390133Y784577D01*
X390069Y784977D01*
X390014Y785379D01*
X389970Y785782D01*
X389935Y786185D01*
X389910Y786590D01*
X389895Y786995D01*
X389890Y787400D01*
X45800Y435300D02*
X45802Y435413D01*
X45808Y435527D01*
X45818Y435640D01*
X45832Y435752D01*
X45849Y435864D01*
X45871Y435976D01*
X45897Y436086D01*
X45926Y436196D01*
X45959Y436304D01*
X45996Y436412D01*
X46037Y436517D01*
X46081Y436622D01*
X46129Y436725D01*
X46180Y436826D01*
X46235Y436925D01*
X46294Y437022D01*
X46356Y437117D01*
X46421Y437210D01*
X46489Y437301D01*
X46560Y437389D01*
X46635Y437475D01*
X46712Y437558D01*
X46792Y437638D01*
X46875Y437715D01*
X46961Y437790D01*
X47049Y437861D01*
X47140Y437929D01*
X47233Y437994D01*
X47328Y438056D01*
X47425Y438115D01*
X47524Y438170D01*
X47625Y438221D01*
X47728Y438269D01*
X47833Y438313D01*
X47938Y438354D01*
X48046Y438391D01*
X48154Y438424D01*
X48264Y438453D01*
X48374Y438479D01*
X48486Y438501D01*
X48598Y438518D01*
X48710Y438532D01*
X48823Y438542D01*
X48937Y438548D01*
X49050Y438550D01*
X49163Y438548D01*
X49277Y438542D01*
X49390Y438532D01*
X49502Y438518D01*
X49614Y438501D01*
X49726Y438479D01*
X49836Y438453D01*
X49946Y438424D01*
X50054Y438391D01*
X50162Y438354D01*
X50267Y438313D01*
X50372Y438269D01*
X50475Y438221D01*
X50576Y438170D01*
X50675Y438115D01*
X50772Y438056D01*
X50867Y437994D01*
X50960Y437929D01*
X51051Y437861D01*
X51139Y437790D01*
X51225Y437715D01*
X51308Y437638D01*
X51388Y437558D01*
X51465Y437475D01*
X51540Y437389D01*
X51611Y437301D01*
X51679Y437210D01*
X51744Y437117D01*
X51806Y437022D01*
X51865Y436925D01*
X51920Y436826D01*
X51971Y436725D01*
X52019Y436622D01*
X52063Y436517D01*
X52104Y436412D01*
X52141Y436304D01*
X52174Y436196D01*
X52203Y436086D01*
X52229Y435976D01*
X52251Y435864D01*
X52268Y435752D01*
X52282Y435640D01*
X52292Y435527D01*
X52298Y435413D01*
X52300Y435300D01*
X52298Y435187D01*
X52292Y435073D01*
X52282Y434960D01*
X52268Y434848D01*
X52251Y434736D01*
X52229Y434624D01*
X52203Y434514D01*
X52174Y434404D01*
X52141Y434296D01*
X52104Y434188D01*
X52063Y434083D01*
X52019Y433978D01*
X51971Y433875D01*
X51920Y433774D01*
X51865Y433675D01*
X51806Y433578D01*
X51744Y433483D01*
X51679Y433390D01*
X51611Y433299D01*
X51540Y433211D01*
X51465Y433125D01*
X51388Y433042D01*
X51308Y432962D01*
X51225Y432885D01*
X51139Y432810D01*
X51051Y432739D01*
X50960Y432671D01*
X50867Y432606D01*
X50772Y432544D01*
X50675Y432485D01*
X50576Y432430D01*
X50475Y432379D01*
X50372Y432331D01*
X50267Y432287D01*
X50162Y432246D01*
X50054Y432209D01*
X49946Y432176D01*
X49836Y432147D01*
X49726Y432121D01*
X49614Y432099D01*
X49502Y432082D01*
X49390Y432068D01*
X49277Y432058D01*
X49163Y432052D01*
X49050Y432050D01*
X48937Y432052D01*
X48823Y432058D01*
X48710Y432068D01*
X48598Y432082D01*
X48486Y432099D01*
X48374Y432121D01*
X48264Y432147D01*
X48154Y432176D01*
X48046Y432209D01*
X47938Y432246D01*
X47833Y432287D01*
X47728Y432331D01*
X47625Y432379D01*
X47524Y432430D01*
X47425Y432485D01*
X47328Y432544D01*
X47233Y432606D01*
X47140Y432671D01*
X47049Y432739D01*
X46961Y432810D01*
X46875Y432885D01*
X46792Y432962D01*
X46712Y433042D01*
X46635Y433125D01*
X46560Y433211D01*
X46489Y433299D01*
X46421Y433390D01*
X46356Y433483D01*
X46294Y433578D01*
X46235Y433675D01*
X46180Y433774D01*
X46129Y433875D01*
X46081Y433978D01*
X46037Y434083D01*
X45996Y434188D01*
X45959Y434296D01*
X45926Y434404D01*
X45897Y434514D01*
X45871Y434624D01*
X45849Y434736D01*
X45832Y434848D01*
X45818Y434960D01*
X45808Y435073D01*
X45802Y435187D01*
X45800Y435300D01*
X45800Y377500D02*
X45802Y377613D01*
X45808Y377727D01*
X45818Y377840D01*
X45832Y377952D01*
X45849Y378064D01*
X45871Y378176D01*
X45897Y378286D01*
X45926Y378396D01*
X45959Y378504D01*
X45996Y378612D01*
X46037Y378717D01*
X46081Y378822D01*
X46129Y378925D01*
X46180Y379026D01*
X46235Y379125D01*
X46294Y379222D01*
X46356Y379317D01*
X46421Y379410D01*
X46489Y379501D01*
X46560Y379589D01*
X46635Y379675D01*
X46712Y379758D01*
X46792Y379838D01*
X46875Y379915D01*
X46961Y379990D01*
X47049Y380061D01*
X47140Y380129D01*
X47233Y380194D01*
X47328Y380256D01*
X47425Y380315D01*
X47524Y380370D01*
X47625Y380421D01*
X47728Y380469D01*
X47833Y380513D01*
X47938Y380554D01*
X48046Y380591D01*
X48154Y380624D01*
X48264Y380653D01*
X48374Y380679D01*
X48486Y380701D01*
X48598Y380718D01*
X48710Y380732D01*
X48823Y380742D01*
X48937Y380748D01*
X49050Y380750D01*
X49163Y380748D01*
X49277Y380742D01*
X49390Y380732D01*
X49502Y380718D01*
X49614Y380701D01*
X49726Y380679D01*
X49836Y380653D01*
X49946Y380624D01*
X50054Y380591D01*
X50162Y380554D01*
X50267Y380513D01*
X50372Y380469D01*
X50475Y380421D01*
X50576Y380370D01*
X50675Y380315D01*
X50772Y380256D01*
X50867Y380194D01*
X50960Y380129D01*
X51051Y380061D01*
X51139Y379990D01*
X51225Y379915D01*
X51308Y379838D01*
X51388Y379758D01*
X51465Y379675D01*
X51540Y379589D01*
X51611Y379501D01*
X51679Y379410D01*
X51744Y379317D01*
X51806Y379222D01*
X51865Y379125D01*
X51920Y379026D01*
X51971Y378925D01*
X52019Y378822D01*
X52063Y378717D01*
X52104Y378612D01*
X52141Y378504D01*
X52174Y378396D01*
X52203Y378286D01*
X52229Y378176D01*
X52251Y378064D01*
X52268Y377952D01*
X52282Y377840D01*
X52292Y377727D01*
X52298Y377613D01*
X52300Y377500D01*
X52298Y377387D01*
X52292Y377273D01*
X52282Y377160D01*
X52268Y377048D01*
X52251Y376936D01*
X52229Y376824D01*
X52203Y376714D01*
X52174Y376604D01*
X52141Y376496D01*
X52104Y376388D01*
X52063Y376283D01*
X52019Y376178D01*
X51971Y376075D01*
X51920Y375974D01*
X51865Y375875D01*
X51806Y375778D01*
X51744Y375683D01*
X51679Y375590D01*
X51611Y375499D01*
X51540Y375411D01*
X51465Y375325D01*
X51388Y375242D01*
X51308Y375162D01*
X51225Y375085D01*
X51139Y375010D01*
X51051Y374939D01*
X50960Y374871D01*
X50867Y374806D01*
X50772Y374744D01*
X50675Y374685D01*
X50576Y374630D01*
X50475Y374579D01*
X50372Y374531D01*
X50267Y374487D01*
X50162Y374446D01*
X50054Y374409D01*
X49946Y374376D01*
X49836Y374347D01*
X49726Y374321D01*
X49614Y374299D01*
X49502Y374282D01*
X49390Y374268D01*
X49277Y374258D01*
X49163Y374252D01*
X49050Y374250D01*
X48937Y374252D01*
X48823Y374258D01*
X48710Y374268D01*
X48598Y374282D01*
X48486Y374299D01*
X48374Y374321D01*
X48264Y374347D01*
X48154Y374376D01*
X48046Y374409D01*
X47938Y374446D01*
X47833Y374487D01*
X47728Y374531D01*
X47625Y374579D01*
X47524Y374630D01*
X47425Y374685D01*
X47328Y374744D01*
X47233Y374806D01*
X47140Y374871D01*
X47049Y374939D01*
X46961Y375010D01*
X46875Y375085D01*
X46792Y375162D01*
X46712Y375242D01*
X46635Y375325D01*
X46560Y375411D01*
X46489Y375499D01*
X46421Y375590D01*
X46356Y375683D01*
X46294Y375778D01*
X46235Y375875D01*
X46180Y375974D01*
X46129Y376075D01*
X46081Y376178D01*
X46037Y376283D01*
X45996Y376388D01*
X45959Y376496D01*
X45926Y376604D01*
X45897Y376714D01*
X45871Y376824D01*
X45849Y376936D01*
X45832Y377048D01*
X45818Y377160D01*
X45808Y377273D01*
X45802Y377387D01*
X45800Y377500D01*
D15*
X48850Y449580D02*
X59850Y449580D01*
X59850Y363220D02*
X48850Y363220D01*
X15700Y449580D02*
X9500Y449580D01*
X9500Y363220D02*
X15700Y363220D01*
D14*
X542290Y25400D02*
X542295Y25805D01*
X542310Y26210D01*
X542335Y26615D01*
X542370Y27018D01*
X542414Y27421D01*
X542469Y27823D01*
X542533Y28223D01*
X542607Y28621D01*
X542691Y29017D01*
X542785Y29412D01*
X542888Y29803D01*
X543001Y30193D01*
X543123Y30579D01*
X543255Y30962D01*
X543396Y31342D01*
X543547Y31718D01*
X543706Y32091D01*
X543875Y32459D01*
X544053Y32823D01*
X544239Y33183D01*
X544435Y33538D01*
X544639Y33888D01*
X544851Y34233D01*
X545072Y34572D01*
X545302Y34907D01*
X545539Y35235D01*
X545784Y35557D01*
X546038Y35874D01*
X546298Y36184D01*
X546567Y36487D01*
X546843Y36784D01*
X547126Y37074D01*
X547416Y37357D01*
X547713Y37633D01*
X548016Y37902D01*
X548326Y38162D01*
X548643Y38416D01*
X548965Y38661D01*
X549293Y38898D01*
X549628Y39128D01*
X549967Y39349D01*
X550312Y39561D01*
X550662Y39765D01*
X551017Y39961D01*
X551377Y40147D01*
X551741Y40325D01*
X552109Y40494D01*
X552482Y40653D01*
X552858Y40804D01*
X553238Y40945D01*
X553621Y41077D01*
X554007Y41199D01*
X554397Y41312D01*
X554788Y41415D01*
X555183Y41509D01*
X555579Y41593D01*
X555977Y41667D01*
X556377Y41731D01*
X556779Y41786D01*
X557182Y41830D01*
X557585Y41865D01*
X557990Y41890D01*
X558395Y41905D01*
X558800Y41910D01*
X559205Y41905D01*
X559610Y41890D01*
X560015Y41865D01*
X560418Y41830D01*
X560821Y41786D01*
X561223Y41731D01*
X561623Y41667D01*
X562021Y41593D01*
X562417Y41509D01*
X562812Y41415D01*
X563203Y41312D01*
X563593Y41199D01*
X563979Y41077D01*
X564362Y40945D01*
X564742Y40804D01*
X565118Y40653D01*
X565491Y40494D01*
X565859Y40325D01*
X566223Y40147D01*
X566583Y39961D01*
X566938Y39765D01*
X567288Y39561D01*
X567633Y39349D01*
X567972Y39128D01*
X568307Y38898D01*
X568635Y38661D01*
X568957Y38416D01*
X569274Y38162D01*
X569584Y37902D01*
X569887Y37633D01*
X570184Y37357D01*
X570474Y37074D01*
X570757Y36784D01*
X571033Y36487D01*
X571302Y36184D01*
X571562Y35874D01*
X571816Y35557D01*
X572061Y35235D01*
X572298Y34907D01*
X572528Y34572D01*
X572749Y34233D01*
X572961Y33888D01*
X573165Y33538D01*
X573361Y33183D01*
X573547Y32823D01*
X573725Y32459D01*
X573894Y32091D01*
X574053Y31718D01*
X574204Y31342D01*
X574345Y30962D01*
X574477Y30579D01*
X574599Y30193D01*
X574712Y29803D01*
X574815Y29412D01*
X574909Y29017D01*
X574993Y28621D01*
X575067Y28223D01*
X575131Y27823D01*
X575186Y27421D01*
X575230Y27018D01*
X575265Y26615D01*
X575290Y26210D01*
X575305Y25805D01*
X575310Y25400D01*
X575305Y24995D01*
X575290Y24590D01*
X575265Y24185D01*
X575230Y23782D01*
X575186Y23379D01*
X575131Y22977D01*
X575067Y22577D01*
X574993Y22179D01*
X574909Y21783D01*
X574815Y21388D01*
X574712Y20997D01*
X574599Y20607D01*
X574477Y20221D01*
X574345Y19838D01*
X574204Y19458D01*
X574053Y19082D01*
X573894Y18709D01*
X573725Y18341D01*
X573547Y17977D01*
X573361Y17617D01*
X573165Y17262D01*
X572961Y16912D01*
X572749Y16567D01*
X572528Y16228D01*
X572298Y15893D01*
X572061Y15565D01*
X571816Y15243D01*
X571562Y14926D01*
X571302Y14616D01*
X571033Y14313D01*
X570757Y14016D01*
X570474Y13726D01*
X570184Y13443D01*
X569887Y13167D01*
X569584Y12898D01*
X569274Y12638D01*
X568957Y12384D01*
X568635Y12139D01*
X568307Y11902D01*
X567972Y11672D01*
X567633Y11451D01*
X567288Y11239D01*
X566938Y11035D01*
X566583Y10839D01*
X566223Y10653D01*
X565859Y10475D01*
X565491Y10306D01*
X565118Y10147D01*
X564742Y9996D01*
X564362Y9855D01*
X563979Y9723D01*
X563593Y9601D01*
X563203Y9488D01*
X562812Y9385D01*
X562417Y9291D01*
X562021Y9207D01*
X561623Y9133D01*
X561223Y9069D01*
X560821Y9014D01*
X560418Y8970D01*
X560015Y8935D01*
X559610Y8910D01*
X559205Y8895D01*
X558800Y8890D01*
X558395Y8895D01*
X557990Y8910D01*
X557585Y8935D01*
X557182Y8970D01*
X556779Y9014D01*
X556377Y9069D01*
X555977Y9133D01*
X555579Y9207D01*
X555183Y9291D01*
X554788Y9385D01*
X554397Y9488D01*
X554007Y9601D01*
X553621Y9723D01*
X553238Y9855D01*
X552858Y9996D01*
X552482Y10147D01*
X552109Y10306D01*
X551741Y10475D01*
X551377Y10653D01*
X551017Y10839D01*
X550662Y11035D01*
X550312Y11239D01*
X549967Y11451D01*
X549628Y11672D01*
X549293Y11902D01*
X548965Y12139D01*
X548643Y12384D01*
X548326Y12638D01*
X548016Y12898D01*
X547713Y13167D01*
X547416Y13443D01*
X547126Y13726D01*
X546843Y14016D01*
X546567Y14313D01*
X546298Y14616D01*
X546038Y14926D01*
X545784Y15243D01*
X545539Y15565D01*
X545302Y15893D01*
X545072Y16228D01*
X544851Y16567D01*
X544639Y16912D01*
X544435Y17262D01*
X544239Y17617D01*
X544053Y17977D01*
X543875Y18341D01*
X543706Y18709D01*
X543547Y19082D01*
X543396Y19458D01*
X543255Y19838D01*
X543123Y20221D01*
X543001Y20607D01*
X542888Y20997D01*
X542785Y21388D01*
X542691Y21783D01*
X542607Y22179D01*
X542533Y22577D01*
X542469Y22977D01*
X542414Y23379D01*
X542370Y23782D01*
X542335Y24185D01*
X542310Y24590D01*
X542295Y24995D01*
X542290Y25400D01*
X542290Y787400D02*
X542295Y787805D01*
X542310Y788210D01*
X542335Y788615D01*
X542370Y789018D01*
X542414Y789421D01*
X542469Y789823D01*
X542533Y790223D01*
X542607Y790621D01*
X542691Y791017D01*
X542785Y791412D01*
X542888Y791803D01*
X543001Y792193D01*
X543123Y792579D01*
X543255Y792962D01*
X543396Y793342D01*
X543547Y793718D01*
X543706Y794091D01*
X543875Y794459D01*
X544053Y794823D01*
X544239Y795183D01*
X544435Y795538D01*
X544639Y795888D01*
X544851Y796233D01*
X545072Y796572D01*
X545302Y796907D01*
X545539Y797235D01*
X545784Y797557D01*
X546038Y797874D01*
X546298Y798184D01*
X546567Y798487D01*
X546843Y798784D01*
X547126Y799074D01*
X547416Y799357D01*
X547713Y799633D01*
X548016Y799902D01*
X548326Y800162D01*
X548643Y800416D01*
X548965Y800661D01*
X549293Y800898D01*
X549628Y801128D01*
X549967Y801349D01*
X550312Y801561D01*
X550662Y801765D01*
X551017Y801961D01*
X551377Y802147D01*
X551741Y802325D01*
X552109Y802494D01*
X552482Y802653D01*
X552858Y802804D01*
X553238Y802945D01*
X553621Y803077D01*
X554007Y803199D01*
X554397Y803312D01*
X554788Y803415D01*
X555183Y803509D01*
X555579Y803593D01*
X555977Y803667D01*
X556377Y803731D01*
X556779Y803786D01*
X557182Y803830D01*
X557585Y803865D01*
X557990Y803890D01*
X558395Y803905D01*
X558800Y803910D01*
X559205Y803905D01*
X559610Y803890D01*
X560015Y803865D01*
X560418Y803830D01*
X560821Y803786D01*
X561223Y803731D01*
X561623Y803667D01*
X562021Y803593D01*
X562417Y803509D01*
X562812Y803415D01*
X563203Y803312D01*
X563593Y803199D01*
X563979Y803077D01*
X564362Y802945D01*
X564742Y802804D01*
X565118Y802653D01*
X565491Y802494D01*
X565859Y802325D01*
X566223Y802147D01*
X566583Y801961D01*
X566938Y801765D01*
X567288Y801561D01*
X567633Y801349D01*
X567972Y801128D01*
X568307Y800898D01*
X568635Y800661D01*
X568957Y800416D01*
X569274Y800162D01*
X569584Y799902D01*
X569887Y799633D01*
X570184Y799357D01*
X570474Y799074D01*
X570757Y798784D01*
X571033Y798487D01*
X571302Y798184D01*
X571562Y797874D01*
X571816Y797557D01*
X572061Y797235D01*
X572298Y796907D01*
X572528Y796572D01*
X572749Y796233D01*
X572961Y795888D01*
X573165Y795538D01*
X573361Y795183D01*
X573547Y794823D01*
X573725Y794459D01*
X573894Y794091D01*
X574053Y793718D01*
X574204Y793342D01*
X574345Y792962D01*
X574477Y792579D01*
X574599Y792193D01*
X574712Y791803D01*
X574815Y791412D01*
X574909Y791017D01*
X574993Y790621D01*
X575067Y790223D01*
X575131Y789823D01*
X575186Y789421D01*
X575230Y789018D01*
X575265Y788615D01*
X575290Y788210D01*
X575305Y787805D01*
X575310Y787400D01*
X575305Y786995D01*
X575290Y786590D01*
X575265Y786185D01*
X575230Y785782D01*
X575186Y785379D01*
X575131Y784977D01*
X575067Y784577D01*
X574993Y784179D01*
X574909Y783783D01*
X574815Y783388D01*
X574712Y782997D01*
X574599Y782607D01*
X574477Y782221D01*
X574345Y781838D01*
X574204Y781458D01*
X574053Y781082D01*
X573894Y780709D01*
X573725Y780341D01*
X573547Y779977D01*
X573361Y779617D01*
X573165Y779262D01*
X572961Y778912D01*
X572749Y778567D01*
X572528Y778228D01*
X572298Y777893D01*
X572061Y777565D01*
X571816Y777243D01*
X571562Y776926D01*
X571302Y776616D01*
X571033Y776313D01*
X570757Y776016D01*
X570474Y775726D01*
X570184Y775443D01*
X569887Y775167D01*
X569584Y774898D01*
X569274Y774638D01*
X568957Y774384D01*
X568635Y774139D01*
X568307Y773902D01*
X567972Y773672D01*
X567633Y773451D01*
X567288Y773239D01*
X566938Y773035D01*
X566583Y772839D01*
X566223Y772653D01*
X565859Y772475D01*
X565491Y772306D01*
X565118Y772147D01*
X564742Y771996D01*
X564362Y771855D01*
X563979Y771723D01*
X563593Y771601D01*
X563203Y771488D01*
X562812Y771385D01*
X562417Y771291D01*
X562021Y771207D01*
X561623Y771133D01*
X561223Y771069D01*
X560821Y771014D01*
X560418Y770970D01*
X560015Y770935D01*
X559610Y770910D01*
X559205Y770895D01*
X558800Y770890D01*
X558395Y770895D01*
X557990Y770910D01*
X557585Y770935D01*
X557182Y770970D01*
X556779Y771014D01*
X556377Y771069D01*
X555977Y771133D01*
X555579Y771207D01*
X555183Y771291D01*
X554788Y771385D01*
X554397Y771488D01*
X554007Y771601D01*
X553621Y771723D01*
X553238Y771855D01*
X552858Y771996D01*
X552482Y772147D01*
X552109Y772306D01*
X551741Y772475D01*
X551377Y772653D01*
X551017Y772839D01*
X550662Y773035D01*
X550312Y773239D01*
X549967Y773451D01*
X549628Y773672D01*
X549293Y773902D01*
X548965Y774139D01*
X548643Y774384D01*
X548326Y774638D01*
X548016Y774898D01*
X547713Y775167D01*
X547416Y775443D01*
X547126Y775726D01*
X546843Y776016D01*
X546567Y776313D01*
X546298Y776616D01*
X546038Y776926D01*
X545784Y777243D01*
X545539Y777565D01*
X545302Y777893D01*
X545072Y778228D01*
X544851Y778567D01*
X544639Y778912D01*
X544435Y779262D01*
X544239Y779617D01*
X544053Y779977D01*
X543875Y780341D01*
X543706Y780709D01*
X543547Y781082D01*
X543396Y781458D01*
X543255Y781838D01*
X543123Y782221D01*
X543001Y782607D01*
X542888Y782997D01*
X542785Y783388D01*
X542691Y783783D01*
X542607Y784179D01*
X542533Y784577D01*
X542469Y784977D01*
X542414Y785379D01*
X542370Y785782D01*
X542335Y786185D01*
X542310Y786590D01*
X542295Y786995D01*
X542290Y787400D01*
X923290Y25400D02*
X923295Y25805D01*
X923310Y26210D01*
X923335Y26615D01*
X923370Y27018D01*
X923414Y27421D01*
X923469Y27823D01*
X923533Y28223D01*
X923607Y28621D01*
X923691Y29017D01*
X923785Y29412D01*
X923888Y29803D01*
X924001Y30193D01*
X924123Y30579D01*
X924255Y30962D01*
X924396Y31342D01*
X924547Y31718D01*
X924706Y32091D01*
X924875Y32459D01*
X925053Y32823D01*
X925239Y33183D01*
X925435Y33538D01*
X925639Y33888D01*
X925851Y34233D01*
X926072Y34572D01*
X926302Y34907D01*
X926539Y35235D01*
X926784Y35557D01*
X927038Y35874D01*
X927298Y36184D01*
X927567Y36487D01*
X927843Y36784D01*
X928126Y37074D01*
X928416Y37357D01*
X928713Y37633D01*
X929016Y37902D01*
X929326Y38162D01*
X929643Y38416D01*
X929965Y38661D01*
X930293Y38898D01*
X930628Y39128D01*
X930967Y39349D01*
X931312Y39561D01*
X931662Y39765D01*
X932017Y39961D01*
X932377Y40147D01*
X932741Y40325D01*
X933109Y40494D01*
X933482Y40653D01*
X933858Y40804D01*
X934238Y40945D01*
X934621Y41077D01*
X935007Y41199D01*
X935397Y41312D01*
X935788Y41415D01*
X936183Y41509D01*
X936579Y41593D01*
X936977Y41667D01*
X937377Y41731D01*
X937779Y41786D01*
X938182Y41830D01*
X938585Y41865D01*
X938990Y41890D01*
X939395Y41905D01*
X939800Y41910D01*
X940205Y41905D01*
X940610Y41890D01*
X941015Y41865D01*
X941418Y41830D01*
X941821Y41786D01*
X942223Y41731D01*
X942623Y41667D01*
X943021Y41593D01*
X943417Y41509D01*
X943812Y41415D01*
X944203Y41312D01*
X944593Y41199D01*
X944979Y41077D01*
X945362Y40945D01*
X945742Y40804D01*
X946118Y40653D01*
X946491Y40494D01*
X946859Y40325D01*
X947223Y40147D01*
X947583Y39961D01*
X947938Y39765D01*
X948288Y39561D01*
X948633Y39349D01*
X948972Y39128D01*
X949307Y38898D01*
X949635Y38661D01*
X949957Y38416D01*
X950274Y38162D01*
X950584Y37902D01*
X950887Y37633D01*
X951184Y37357D01*
X951474Y37074D01*
X951757Y36784D01*
X952033Y36487D01*
X952302Y36184D01*
X952562Y35874D01*
X952816Y35557D01*
X953061Y35235D01*
X953298Y34907D01*
X953528Y34572D01*
X953749Y34233D01*
X953961Y33888D01*
X954165Y33538D01*
X954361Y33183D01*
X954547Y32823D01*
X954725Y32459D01*
X954894Y32091D01*
X955053Y31718D01*
X955204Y31342D01*
X955345Y30962D01*
X955477Y30579D01*
X955599Y30193D01*
X955712Y29803D01*
X955815Y29412D01*
X955909Y29017D01*
X955993Y28621D01*
X956067Y28223D01*
X956131Y27823D01*
X956186Y27421D01*
X956230Y27018D01*
X956265Y26615D01*
X956290Y26210D01*
X956305Y25805D01*
X956310Y25400D01*
X956305Y24995D01*
X956290Y24590D01*
X956265Y24185D01*
X956230Y23782D01*
X956186Y23379D01*
X956131Y22977D01*
X956067Y22577D01*
X955993Y22179D01*
X955909Y21783D01*
X955815Y21388D01*
X955712Y20997D01*
X955599Y20607D01*
X955477Y20221D01*
X955345Y19838D01*
X955204Y19458D01*
X955053Y19082D01*
X954894Y18709D01*
X954725Y18341D01*
X954547Y17977D01*
X954361Y17617D01*
X954165Y17262D01*
X953961Y16912D01*
X953749Y16567D01*
X953528Y16228D01*
X953298Y15893D01*
X953061Y15565D01*
X952816Y15243D01*
X952562Y14926D01*
X952302Y14616D01*
X952033Y14313D01*
X951757Y14016D01*
X951474Y13726D01*
X951184Y13443D01*
X950887Y13167D01*
X950584Y12898D01*
X950274Y12638D01*
X949957Y12384D01*
X949635Y12139D01*
X949307Y11902D01*
X948972Y11672D01*
X948633Y11451D01*
X948288Y11239D01*
X947938Y11035D01*
X947583Y10839D01*
X947223Y10653D01*
X946859Y10475D01*
X946491Y10306D01*
X946118Y10147D01*
X945742Y9996D01*
X945362Y9855D01*
X944979Y9723D01*
X944593Y9601D01*
X944203Y9488D01*
X943812Y9385D01*
X943417Y9291D01*
X943021Y9207D01*
X942623Y9133D01*
X942223Y9069D01*
X941821Y9014D01*
X941418Y8970D01*
X941015Y8935D01*
X940610Y8910D01*
X940205Y8895D01*
X939800Y8890D01*
X939395Y8895D01*
X938990Y8910D01*
X938585Y8935D01*
X938182Y8970D01*
X937779Y9014D01*
X937377Y9069D01*
X936977Y9133D01*
X936579Y9207D01*
X936183Y9291D01*
X935788Y9385D01*
X935397Y9488D01*
X935007Y9601D01*
X934621Y9723D01*
X934238Y9855D01*
X933858Y9996D01*
X933482Y10147D01*
X933109Y10306D01*
X932741Y10475D01*
X932377Y10653D01*
X932017Y10839D01*
X931662Y11035D01*
X931312Y11239D01*
X930967Y11451D01*
X930628Y11672D01*
X930293Y11902D01*
X929965Y12139D01*
X929643Y12384D01*
X929326Y12638D01*
X929016Y12898D01*
X928713Y13167D01*
X928416Y13443D01*
X928126Y13726D01*
X927843Y14016D01*
X927567Y14313D01*
X927298Y14616D01*
X927038Y14926D01*
X926784Y15243D01*
X926539Y15565D01*
X926302Y15893D01*
X926072Y16228D01*
X925851Y16567D01*
X925639Y16912D01*
X925435Y17262D01*
X925239Y17617D01*
X925053Y17977D01*
X924875Y18341D01*
X924706Y18709D01*
X924547Y19082D01*
X924396Y19458D01*
X924255Y19838D01*
X924123Y20221D01*
X924001Y20607D01*
X923888Y20997D01*
X923785Y21388D01*
X923691Y21783D01*
X923607Y22179D01*
X923533Y22577D01*
X923469Y22977D01*
X923414Y23379D01*
X923370Y23782D01*
X923335Y24185D01*
X923310Y24590D01*
X923295Y24995D01*
X923290Y25400D01*
X923290Y787400D02*
X923295Y787805D01*
X923310Y788210D01*
X923335Y788615D01*
X923370Y789018D01*
X923414Y789421D01*
X923469Y789823D01*
X923533Y790223D01*
X923607Y790621D01*
X923691Y791017D01*
X923785Y791412D01*
X923888Y791803D01*
X924001Y792193D01*
X924123Y792579D01*
X924255Y792962D01*
X924396Y793342D01*
X924547Y793718D01*
X924706Y794091D01*
X924875Y794459D01*
X925053Y794823D01*
X925239Y795183D01*
X925435Y795538D01*
X925639Y795888D01*
X925851Y796233D01*
X926072Y796572D01*
X926302Y796907D01*
X926539Y797235D01*
X926784Y797557D01*
X927038Y797874D01*
X927298Y798184D01*
X927567Y798487D01*
X927843Y798784D01*
X928126Y799074D01*
X928416Y799357D01*
X928713Y799633D01*
X929016Y799902D01*
X929326Y800162D01*
X929643Y800416D01*
X929965Y800661D01*
X930293Y800898D01*
X930628Y801128D01*
X930967Y801349D01*
X931312Y801561D01*
X931662Y801765D01*
X932017Y801961D01*
X932377Y802147D01*
X932741Y802325D01*
X933109Y802494D01*
X933482Y802653D01*
X933858Y802804D01*
X934238Y802945D01*
X934621Y803077D01*
X935007Y803199D01*
X935397Y803312D01*
X935788Y803415D01*
X936183Y803509D01*
X936579Y803593D01*
X936977Y803667D01*
X937377Y803731D01*
X937779Y803786D01*
X938182Y803830D01*
X938585Y803865D01*
X938990Y803890D01*
X939395Y803905D01*
X939800Y803910D01*
X940205Y803905D01*
X940610Y803890D01*
X941015Y803865D01*
X941418Y803830D01*
X941821Y803786D01*
X942223Y803731D01*
X942623Y803667D01*
X943021Y803593D01*
X943417Y803509D01*
X943812Y803415D01*
X944203Y803312D01*
X944593Y803199D01*
X944979Y803077D01*
X945362Y802945D01*
X945742Y802804D01*
X946118Y802653D01*
X946491Y802494D01*
X946859Y802325D01*
X947223Y802147D01*
X947583Y801961D01*
X947938Y801765D01*
X948288Y801561D01*
X948633Y801349D01*
X948972Y801128D01*
X949307Y800898D01*
X949635Y800661D01*
X949957Y800416D01*
X950274Y800162D01*
X950584Y799902D01*
X950887Y799633D01*
X951184Y799357D01*
X951474Y799074D01*
X951757Y798784D01*
X952033Y798487D01*
X952302Y798184D01*
X952562Y797874D01*
X952816Y797557D01*
X953061Y797235D01*
X953298Y796907D01*
X953528Y796572D01*
X953749Y796233D01*
X953961Y795888D01*
X954165Y795538D01*
X954361Y795183D01*
X954547Y794823D01*
X954725Y794459D01*
X954894Y794091D01*
X955053Y793718D01*
X955204Y793342D01*
X955345Y792962D01*
X955477Y792579D01*
X955599Y792193D01*
X955712Y791803D01*
X955815Y791412D01*
X955909Y791017D01*
X955993Y790621D01*
X956067Y790223D01*
X956131Y789823D01*
X956186Y789421D01*
X956230Y789018D01*
X956265Y788615D01*
X956290Y788210D01*
X956305Y787805D01*
X956310Y787400D01*
X956305Y786995D01*
X956290Y786590D01*
X956265Y786185D01*
X956230Y785782D01*
X956186Y785379D01*
X956131Y784977D01*
X956067Y784577D01*
X955993Y784179D01*
X955909Y783783D01*
X955815Y783388D01*
X955712Y782997D01*
X955599Y782607D01*
X955477Y782221D01*
X955345Y781838D01*
X955204Y781458D01*
X955053Y781082D01*
X954894Y780709D01*
X954725Y780341D01*
X954547Y779977D01*
X954361Y779617D01*
X954165Y779262D01*
X953961Y778912D01*
X953749Y778567D01*
X953528Y778228D01*
X953298Y777893D01*
X953061Y777565D01*
X952816Y777243D01*
X952562Y776926D01*
X952302Y776616D01*
X952033Y776313D01*
X951757Y776016D01*
X951474Y775726D01*
X951184Y775443D01*
X950887Y775167D01*
X950584Y774898D01*
X950274Y774638D01*
X949957Y774384D01*
X949635Y774139D01*
X949307Y773902D01*
X948972Y773672D01*
X948633Y773451D01*
X948288Y773239D01*
X947938Y773035D01*
X947583Y772839D01*
X947223Y772653D01*
X946859Y772475D01*
X946491Y772306D01*
X946118Y772147D01*
X945742Y771996D01*
X945362Y771855D01*
X944979Y771723D01*
X944593Y771601D01*
X944203Y771488D01*
X943812Y771385D01*
X943417Y771291D01*
X943021Y771207D01*
X942623Y771133D01*
X942223Y771069D01*
X941821Y771014D01*
X941418Y770970D01*
X941015Y770935D01*
X940610Y770910D01*
X940205Y770895D01*
X939800Y770890D01*
X939395Y770895D01*
X938990Y770910D01*
X938585Y770935D01*
X938182Y770970D01*
X937779Y771014D01*
X937377Y771069D01*
X936977Y771133D01*
X936579Y771207D01*
X936183Y771291D01*
X935788Y771385D01*
X935397Y771488D01*
X935007Y771601D01*
X934621Y771723D01*
X934238Y771855D01*
X933858Y771996D01*
X933482Y772147D01*
X933109Y772306D01*
X932741Y772475D01*
X932377Y772653D01*
X932017Y772839D01*
X931662Y773035D01*
X931312Y773239D01*
X930967Y773451D01*
X930628Y773672D01*
X930293Y773902D01*
X929965Y774139D01*
X929643Y774384D01*
X929326Y774638D01*
X929016Y774898D01*
X928713Y775167D01*
X928416Y775443D01*
X928126Y775726D01*
X927843Y776016D01*
X927567Y776313D01*
X927298Y776616D01*
X927038Y776926D01*
X926784Y777243D01*
X926539Y777565D01*
X926302Y777893D01*
X926072Y778228D01*
X925851Y778567D01*
X925639Y778912D01*
X925435Y779262D01*
X925239Y779617D01*
X925053Y779977D01*
X924875Y780341D01*
X924706Y780709D01*
X924547Y781082D01*
X924396Y781458D01*
X924255Y781838D01*
X924123Y782221D01*
X924001Y782607D01*
X923888Y782997D01*
X923785Y783388D01*
X923691Y783783D01*
X923607Y784179D01*
X923533Y784577D01*
X923469Y784977D01*
X923414Y785379D01*
X923370Y785782D01*
X923335Y786185D01*
X923310Y786590D01*
X923295Y786995D01*
X923290Y787400D01*
X579200Y435300D02*
X579202Y435413D01*
X579208Y435527D01*
X579218Y435640D01*
X579232Y435752D01*
X579249Y435864D01*
X579271Y435976D01*
X579297Y436086D01*
X579326Y436196D01*
X579359Y436304D01*
X579396Y436412D01*
X579437Y436517D01*
X579481Y436622D01*
X579529Y436725D01*
X579580Y436826D01*
X579635Y436925D01*
X579694Y437022D01*
X579756Y437117D01*
X579821Y437210D01*
X579889Y437301D01*
X579960Y437389D01*
X580035Y437475D01*
X580112Y437558D01*
X580192Y437638D01*
X580275Y437715D01*
X580361Y437790D01*
X580449Y437861D01*
X580540Y437929D01*
X580633Y437994D01*
X580728Y438056D01*
X580825Y438115D01*
X580924Y438170D01*
X581025Y438221D01*
X581128Y438269D01*
X581233Y438313D01*
X581338Y438354D01*
X581446Y438391D01*
X581554Y438424D01*
X581664Y438453D01*
X581774Y438479D01*
X581886Y438501D01*
X581998Y438518D01*
X582110Y438532D01*
X582223Y438542D01*
X582337Y438548D01*
X582450Y438550D01*
X582563Y438548D01*
X582677Y438542D01*
X582790Y438532D01*
X582902Y438518D01*
X583014Y438501D01*
X583126Y438479D01*
X583236Y438453D01*
X583346Y438424D01*
X583454Y438391D01*
X583562Y438354D01*
X583667Y438313D01*
X583772Y438269D01*
X583875Y438221D01*
X583976Y438170D01*
X584075Y438115D01*
X584172Y438056D01*
X584267Y437994D01*
X584360Y437929D01*
X584451Y437861D01*
X584539Y437790D01*
X584625Y437715D01*
X584708Y437638D01*
X584788Y437558D01*
X584865Y437475D01*
X584940Y437389D01*
X585011Y437301D01*
X585079Y437210D01*
X585144Y437117D01*
X585206Y437022D01*
X585265Y436925D01*
X585320Y436826D01*
X585371Y436725D01*
X585419Y436622D01*
X585463Y436517D01*
X585504Y436412D01*
X585541Y436304D01*
X585574Y436196D01*
X585603Y436086D01*
X585629Y435976D01*
X585651Y435864D01*
X585668Y435752D01*
X585682Y435640D01*
X585692Y435527D01*
X585698Y435413D01*
X585700Y435300D01*
X585698Y435187D01*
X585692Y435073D01*
X585682Y434960D01*
X585668Y434848D01*
X585651Y434736D01*
X585629Y434624D01*
X585603Y434514D01*
X585574Y434404D01*
X585541Y434296D01*
X585504Y434188D01*
X585463Y434083D01*
X585419Y433978D01*
X585371Y433875D01*
X585320Y433774D01*
X585265Y433675D01*
X585206Y433578D01*
X585144Y433483D01*
X585079Y433390D01*
X585011Y433299D01*
X584940Y433211D01*
X584865Y433125D01*
X584788Y433042D01*
X584708Y432962D01*
X584625Y432885D01*
X584539Y432810D01*
X584451Y432739D01*
X584360Y432671D01*
X584267Y432606D01*
X584172Y432544D01*
X584075Y432485D01*
X583976Y432430D01*
X583875Y432379D01*
X583772Y432331D01*
X583667Y432287D01*
X583562Y432246D01*
X583454Y432209D01*
X583346Y432176D01*
X583236Y432147D01*
X583126Y432121D01*
X583014Y432099D01*
X582902Y432082D01*
X582790Y432068D01*
X582677Y432058D01*
X582563Y432052D01*
X582450Y432050D01*
X582337Y432052D01*
X582223Y432058D01*
X582110Y432068D01*
X581998Y432082D01*
X581886Y432099D01*
X581774Y432121D01*
X581664Y432147D01*
X581554Y432176D01*
X581446Y432209D01*
X581338Y432246D01*
X581233Y432287D01*
X581128Y432331D01*
X581025Y432379D01*
X580924Y432430D01*
X580825Y432485D01*
X580728Y432544D01*
X580633Y432606D01*
X580540Y432671D01*
X580449Y432739D01*
X580361Y432810D01*
X580275Y432885D01*
X580192Y432962D01*
X580112Y433042D01*
X580035Y433125D01*
X579960Y433211D01*
X579889Y433299D01*
X579821Y433390D01*
X579756Y433483D01*
X579694Y433578D01*
X579635Y433675D01*
X579580Y433774D01*
X579529Y433875D01*
X579481Y433978D01*
X579437Y434083D01*
X579396Y434188D01*
X579359Y434296D01*
X579326Y434404D01*
X579297Y434514D01*
X579271Y434624D01*
X579249Y434736D01*
X579232Y434848D01*
X579218Y434960D01*
X579208Y435073D01*
X579202Y435187D01*
X579200Y435300D01*
X579200Y377500D02*
X579202Y377613D01*
X579208Y377727D01*
X579218Y377840D01*
X579232Y377952D01*
X579249Y378064D01*
X579271Y378176D01*
X579297Y378286D01*
X579326Y378396D01*
X579359Y378504D01*
X579396Y378612D01*
X579437Y378717D01*
X579481Y378822D01*
X579529Y378925D01*
X579580Y379026D01*
X579635Y379125D01*
X579694Y379222D01*
X579756Y379317D01*
X579821Y379410D01*
X579889Y379501D01*
X579960Y379589D01*
X580035Y379675D01*
X580112Y379758D01*
X580192Y379838D01*
X580275Y379915D01*
X580361Y379990D01*
X580449Y380061D01*
X580540Y380129D01*
X580633Y380194D01*
X580728Y380256D01*
X580825Y380315D01*
X580924Y380370D01*
X581025Y380421D01*
X581128Y380469D01*
X581233Y380513D01*
X581338Y380554D01*
X581446Y380591D01*
X581554Y380624D01*
X581664Y380653D01*
X581774Y380679D01*
X581886Y380701D01*
X581998Y380718D01*
X582110Y380732D01*
X582223Y380742D01*
X582337Y380748D01*
X582450Y380750D01*
X582563Y380748D01*
X582677Y380742D01*
X582790Y380732D01*
X582902Y380718D01*
X583014Y380701D01*
X583126Y380679D01*
X583236Y380653D01*
X583346Y380624D01*
X583454Y380591D01*
X583562Y380554D01*
X583667Y380513D01*
X583772Y380469D01*
X583875Y380421D01*
X583976Y380370D01*
X584075Y380315D01*
X584172Y380256D01*
X584267Y380194D01*
X584360Y380129D01*
X584451Y380061D01*
X584539Y379990D01*
X584625Y379915D01*
X584708Y379838D01*
X584788Y379758D01*
X584865Y379675D01*
X584940Y379589D01*
X585011Y379501D01*
X585079Y379410D01*
X585144Y379317D01*
X585206Y379222D01*
X585265Y379125D01*
X585320Y379026D01*
X585371Y378925D01*
X585419Y378822D01*
X585463Y378717D01*
X585504Y378612D01*
X585541Y378504D01*
X585574Y378396D01*
X585603Y378286D01*
X585629Y378176D01*
X585651Y378064D01*
X585668Y377952D01*
X585682Y377840D01*
X585692Y377727D01*
X585698Y377613D01*
X585700Y377500D01*
X585698Y377387D01*
X585692Y377273D01*
X585682Y377160D01*
X585668Y377048D01*
X585651Y376936D01*
X585629Y376824D01*
X585603Y376714D01*
X585574Y376604D01*
X585541Y376496D01*
X585504Y376388D01*
X585463Y376283D01*
X585419Y376178D01*
X585371Y376075D01*
X585320Y375974D01*
X585265Y375875D01*
X585206Y375778D01*
X585144Y375683D01*
X585079Y375590D01*
X585011Y375499D01*
X584940Y375411D01*
X584865Y375325D01*
X584788Y375242D01*
X584708Y375162D01*
X584625Y375085D01*
X584539Y375010D01*
X584451Y374939D01*
X584360Y374871D01*
X584267Y374806D01*
X584172Y374744D01*
X584075Y374685D01*
X583976Y374630D01*
X583875Y374579D01*
X583772Y374531D01*
X583667Y374487D01*
X583562Y374446D01*
X583454Y374409D01*
X583346Y374376D01*
X583236Y374347D01*
X583126Y374321D01*
X583014Y374299D01*
X582902Y374282D01*
X582790Y374268D01*
X582677Y374258D01*
X582563Y374252D01*
X582450Y374250D01*
X582337Y374252D01*
X582223Y374258D01*
X582110Y374268D01*
X581998Y374282D01*
X581886Y374299D01*
X581774Y374321D01*
X581664Y374347D01*
X581554Y374376D01*
X581446Y374409D01*
X581338Y374446D01*
X581233Y374487D01*
X581128Y374531D01*
X581025Y374579D01*
X580924Y374630D01*
X580825Y374685D01*
X580728Y374744D01*
X580633Y374806D01*
X580540Y374871D01*
X580449Y374939D01*
X580361Y375010D01*
X580275Y375085D01*
X580192Y375162D01*
X580112Y375242D01*
X580035Y375325D01*
X579960Y375411D01*
X579889Y375499D01*
X579821Y375590D01*
X579756Y375683D01*
X579694Y375778D01*
X579635Y375875D01*
X579580Y375974D01*
X579529Y376075D01*
X579481Y376178D01*
X579437Y376283D01*
X579396Y376388D01*
X579359Y376496D01*
X579326Y376604D01*
X579297Y376714D01*
X579271Y376824D01*
X579249Y376936D01*
X579232Y377048D01*
X579218Y377160D01*
X579208Y377273D01*
X579202Y377387D01*
X579200Y377500D01*
D15*
X582250Y449580D02*
X593250Y449580D01*
X593250Y363220D02*
X582250Y363220D01*
X549100Y449580D02*
X542900Y449580D01*
X542900Y363220D02*
X549100Y363220D01*
D14*
X1075690Y25400D02*
X1075695Y25805D01*
X1075710Y26210D01*
X1075735Y26615D01*
X1075770Y27018D01*
X1075814Y27421D01*
X1075869Y27823D01*
X1075933Y28223D01*
X1076007Y28621D01*
X1076091Y29017D01*
X1076185Y29412D01*
X1076288Y29803D01*
X1076401Y30193D01*
X1076523Y30579D01*
X1076655Y30962D01*
X1076796Y31342D01*
X1076947Y31718D01*
X1077106Y32091D01*
X1077275Y32459D01*
X1077453Y32823D01*
X1077639Y33183D01*
X1077835Y33538D01*
X1078039Y33888D01*
X1078251Y34233D01*
X1078472Y34572D01*
X1078702Y34907D01*
X1078939Y35235D01*
X1079184Y35557D01*
X1079438Y35874D01*
X1079698Y36184D01*
X1079967Y36487D01*
X1080243Y36784D01*
X1080526Y37074D01*
X1080816Y37357D01*
X1081113Y37633D01*
X1081416Y37902D01*
X1081726Y38162D01*
X1082043Y38416D01*
X1082365Y38661D01*
X1082693Y38898D01*
X1083028Y39128D01*
X1083367Y39349D01*
X1083712Y39561D01*
X1084062Y39765D01*
X1084417Y39961D01*
X1084777Y40147D01*
X1085141Y40325D01*
X1085509Y40494D01*
X1085882Y40653D01*
X1086258Y40804D01*
X1086638Y40945D01*
X1087021Y41077D01*
X1087407Y41199D01*
X1087797Y41312D01*
X1088188Y41415D01*
X1088583Y41509D01*
X1088979Y41593D01*
X1089377Y41667D01*
X1089777Y41731D01*
X1090179Y41786D01*
X1090582Y41830D01*
X1090985Y41865D01*
X1091390Y41890D01*
X1091795Y41905D01*
X1092200Y41910D01*
X1092605Y41905D01*
X1093010Y41890D01*
X1093415Y41865D01*
X1093818Y41830D01*
X1094221Y41786D01*
X1094623Y41731D01*
X1095023Y41667D01*
X1095421Y41593D01*
X1095817Y41509D01*
X1096212Y41415D01*
X1096603Y41312D01*
X1096993Y41199D01*
X1097379Y41077D01*
X1097762Y40945D01*
X1098142Y40804D01*
X1098518Y40653D01*
X1098891Y40494D01*
X1099259Y40325D01*
X1099623Y40147D01*
X1099983Y39961D01*
X1100338Y39765D01*
X1100688Y39561D01*
X1101033Y39349D01*
X1101372Y39128D01*
X1101707Y38898D01*
X1102035Y38661D01*
X1102357Y38416D01*
X1102674Y38162D01*
X1102984Y37902D01*
X1103287Y37633D01*
X1103584Y37357D01*
X1103874Y37074D01*
X1104157Y36784D01*
X1104433Y36487D01*
X1104702Y36184D01*
X1104962Y35874D01*
X1105216Y35557D01*
X1105461Y35235D01*
X1105698Y34907D01*
X1105928Y34572D01*
X1106149Y34233D01*
X1106361Y33888D01*
X1106565Y33538D01*
X1106761Y33183D01*
X1106947Y32823D01*
X1107125Y32459D01*
X1107294Y32091D01*
X1107453Y31718D01*
X1107604Y31342D01*
X1107745Y30962D01*
X1107877Y30579D01*
X1107999Y30193D01*
X1108112Y29803D01*
X1108215Y29412D01*
X1108309Y29017D01*
X1108393Y28621D01*
X1108467Y28223D01*
X1108531Y27823D01*
X1108586Y27421D01*
X1108630Y27018D01*
X1108665Y26615D01*
X1108690Y26210D01*
X1108705Y25805D01*
X1108710Y25400D01*
X1108705Y24995D01*
X1108690Y24590D01*
X1108665Y24185D01*
X1108630Y23782D01*
X1108586Y23379D01*
X1108531Y22977D01*
X1108467Y22577D01*
X1108393Y22179D01*
X1108309Y21783D01*
X1108215Y21388D01*
X1108112Y20997D01*
X1107999Y20607D01*
X1107877Y20221D01*
X1107745Y19838D01*
X1107604Y19458D01*
X1107453Y19082D01*
X1107294Y18709D01*
X1107125Y18341D01*
X1106947Y17977D01*
X1106761Y17617D01*
X1106565Y17262D01*
X1106361Y16912D01*
X1106149Y16567D01*
X1105928Y16228D01*
X1105698Y15893D01*
X1105461Y15565D01*
X1105216Y15243D01*
X1104962Y14926D01*
X1104702Y14616D01*
X1104433Y14313D01*
X1104157Y14016D01*
X1103874Y13726D01*
X1103584Y13443D01*
X1103287Y13167D01*
X1102984Y12898D01*
X1102674Y12638D01*
X1102357Y12384D01*
X1102035Y12139D01*
X1101707Y11902D01*
X1101372Y11672D01*
X1101033Y11451D01*
X1100688Y11239D01*
X1100338Y11035D01*
X1099983Y10839D01*
X1099623Y10653D01*
X1099259Y10475D01*
X1098891Y10306D01*
X1098518Y10147D01*
X1098142Y9996D01*
X1097762Y9855D01*
X1097379Y9723D01*
X1096993Y9601D01*
X1096603Y9488D01*
X1096212Y9385D01*
X1095817Y9291D01*
X1095421Y9207D01*
X1095023Y9133D01*
X1094623Y9069D01*
X1094221Y9014D01*
X1093818Y8970D01*
X1093415Y8935D01*
X1093010Y8910D01*
X1092605Y8895D01*
X1092200Y8890D01*
X1091795Y8895D01*
X1091390Y8910D01*
X1090985Y8935D01*
X1090582Y8970D01*
X1090179Y9014D01*
X1089777Y9069D01*
X1089377Y9133D01*
X1088979Y9207D01*
X1088583Y9291D01*
X1088188Y9385D01*
X1087797Y9488D01*
X1087407Y9601D01*
X1087021Y9723D01*
X1086638Y9855D01*
X1086258Y9996D01*
X1085882Y10147D01*
X1085509Y10306D01*
X1085141Y10475D01*
X1084777Y10653D01*
X1084417Y10839D01*
X1084062Y11035D01*
X1083712Y11239D01*
X1083367Y11451D01*
X1083028Y11672D01*
X1082693Y11902D01*
X1082365Y12139D01*
X1082043Y12384D01*
X1081726Y12638D01*
X1081416Y12898D01*
X1081113Y13167D01*
X1080816Y13443D01*
X1080526Y13726D01*
X1080243Y14016D01*
X1079967Y14313D01*
X1079698Y14616D01*
X1079438Y14926D01*
X1079184Y15243D01*
X1078939Y15565D01*
X1078702Y15893D01*
X1078472Y16228D01*
X1078251Y16567D01*
X1078039Y16912D01*
X1077835Y17262D01*
X1077639Y17617D01*
X1077453Y17977D01*
X1077275Y18341D01*
X1077106Y18709D01*
X1076947Y19082D01*
X1076796Y19458D01*
X1076655Y19838D01*
X1076523Y20221D01*
X1076401Y20607D01*
X1076288Y20997D01*
X1076185Y21388D01*
X1076091Y21783D01*
X1076007Y22179D01*
X1075933Y22577D01*
X1075869Y22977D01*
X1075814Y23379D01*
X1075770Y23782D01*
X1075735Y24185D01*
X1075710Y24590D01*
X1075695Y24995D01*
X1075690Y25400D01*
X1075690Y787400D02*
X1075695Y787805D01*
X1075710Y788210D01*
X1075735Y788615D01*
X1075770Y789018D01*
X1075814Y789421D01*
X1075869Y789823D01*
X1075933Y790223D01*
X1076007Y790621D01*
X1076091Y791017D01*
X1076185Y791412D01*
X1076288Y791803D01*
X1076401Y792193D01*
X1076523Y792579D01*
X1076655Y792962D01*
X1076796Y793342D01*
X1076947Y793718D01*
X1077106Y794091D01*
X1077275Y794459D01*
X1077453Y794823D01*
X1077639Y795183D01*
X1077835Y795538D01*
X1078039Y795888D01*
X1078251Y796233D01*
X1078472Y796572D01*
X1078702Y796907D01*
X1078939Y797235D01*
X1079184Y797557D01*
X1079438Y797874D01*
X1079698Y798184D01*
X1079967Y798487D01*
X1080243Y798784D01*
X1080526Y799074D01*
X1080816Y799357D01*
X1081113Y799633D01*
X1081416Y799902D01*
X1081726Y800162D01*
X1082043Y800416D01*
X1082365Y800661D01*
X1082693Y800898D01*
X1083028Y801128D01*
X1083367Y801349D01*
X1083712Y801561D01*
X1084062Y801765D01*
X1084417Y801961D01*
X1084777Y802147D01*
X1085141Y802325D01*
X1085509Y802494D01*
X1085882Y802653D01*
X1086258Y802804D01*
X1086638Y802945D01*
X1087021Y803077D01*
X1087407Y803199D01*
X1087797Y803312D01*
X1088188Y803415D01*
X1088583Y803509D01*
X1088979Y803593D01*
X1089377Y803667D01*
X1089777Y803731D01*
X1090179Y803786D01*
X1090582Y803830D01*
X1090985Y803865D01*
X1091390Y803890D01*
X1091795Y803905D01*
X1092200Y803910D01*
X1092605Y803905D01*
X1093010Y803890D01*
X1093415Y803865D01*
X1093818Y803830D01*
X1094221Y803786D01*
X1094623Y803731D01*
X1095023Y803667D01*
X1095421Y803593D01*
X1095817Y803509D01*
X1096212Y803415D01*
X1096603Y803312D01*
X1096993Y803199D01*
X1097379Y803077D01*
X1097762Y802945D01*
X1098142Y802804D01*
X1098518Y802653D01*
X1098891Y802494D01*
X1099259Y802325D01*
X1099623Y802147D01*
X1099983Y801961D01*
X1100338Y801765D01*
X1100688Y801561D01*
X1101033Y801349D01*
X1101372Y801128D01*
X1101707Y800898D01*
X1102035Y800661D01*
X1102357Y800416D01*
X1102674Y800162D01*
X1102984Y799902D01*
X1103287Y799633D01*
X1103584Y799357D01*
X1103874Y799074D01*
X1104157Y798784D01*
X1104433Y798487D01*
X1104702Y798184D01*
X1104962Y797874D01*
X1105216Y797557D01*
X1105461Y797235D01*
X1105698Y796907D01*
X1105928Y796572D01*
X1106149Y796233D01*
X1106361Y795888D01*
X1106565Y795538D01*
X1106761Y795183D01*
X1106947Y794823D01*
X1107125Y794459D01*
X1107294Y794091D01*
X1107453Y793718D01*
X1107604Y793342D01*
X1107745Y792962D01*
X1107877Y792579D01*
X1107999Y792193D01*
X1108112Y791803D01*
X1108215Y791412D01*
X1108309Y791017D01*
X1108393Y790621D01*
X1108467Y790223D01*
X1108531Y789823D01*
X1108586Y789421D01*
X1108630Y789018D01*
X1108665Y788615D01*
X1108690Y788210D01*
X1108705Y787805D01*
X1108710Y787400D01*
X1108705Y786995D01*
X1108690Y786590D01*
X1108665Y786185D01*
X1108630Y785782D01*
X1108586Y785379D01*
X1108531Y784977D01*
X1108467Y784577D01*
X1108393Y784179D01*
X1108309Y783783D01*
X1108215Y783388D01*
X1108112Y782997D01*
X1107999Y782607D01*
X1107877Y782221D01*
X1107745Y781838D01*
X1107604Y781458D01*
X1107453Y781082D01*
X1107294Y780709D01*
X1107125Y780341D01*
X1106947Y779977D01*
X1106761Y779617D01*
X1106565Y779262D01*
X1106361Y778912D01*
X1106149Y778567D01*
X1105928Y778228D01*
X1105698Y777893D01*
X1105461Y777565D01*
X1105216Y777243D01*
X1104962Y776926D01*
X1104702Y776616D01*
X1104433Y776313D01*
X1104157Y776016D01*
X1103874Y775726D01*
X1103584Y775443D01*
X1103287Y775167D01*
X1102984Y774898D01*
X1102674Y774638D01*
X1102357Y774384D01*
X1102035Y774139D01*
X1101707Y773902D01*
X1101372Y773672D01*
X1101033Y773451D01*
X1100688Y773239D01*
X1100338Y773035D01*
X1099983Y772839D01*
X1099623Y772653D01*
X1099259Y772475D01*
X1098891Y772306D01*
X1098518Y772147D01*
X1098142Y771996D01*
X1097762Y771855D01*
X1097379Y771723D01*
X1096993Y771601D01*
X1096603Y771488D01*
X1096212Y771385D01*
X1095817Y771291D01*
X1095421Y771207D01*
X1095023Y771133D01*
X1094623Y771069D01*
X1094221Y771014D01*
X1093818Y770970D01*
X1093415Y770935D01*
X1093010Y770910D01*
X1092605Y770895D01*
X1092200Y770890D01*
X1091795Y770895D01*
X1091390Y770910D01*
X1090985Y770935D01*
X1090582Y770970D01*
X1090179Y771014D01*
X1089777Y771069D01*
X1089377Y771133D01*
X1088979Y771207D01*
X1088583Y771291D01*
X1088188Y771385D01*
X1087797Y771488D01*
X1087407Y771601D01*
X1087021Y771723D01*
X1086638Y771855D01*
X1086258Y771996D01*
X1085882Y772147D01*
X1085509Y772306D01*
X1085141Y772475D01*
X1084777Y772653D01*
X1084417Y772839D01*
X1084062Y773035D01*
X1083712Y773239D01*
X1083367Y773451D01*
X1083028Y773672D01*
X1082693Y773902D01*
X1082365Y774139D01*
X1082043Y774384D01*
X1081726Y774638D01*
X1081416Y774898D01*
X1081113Y775167D01*
X1080816Y775443D01*
X1080526Y775726D01*
X1080243Y776016D01*
X1079967Y776313D01*
X1079698Y776616D01*
X1079438Y776926D01*
X1079184Y777243D01*
X1078939Y777565D01*
X1078702Y777893D01*
X1078472Y778228D01*
X1078251Y778567D01*
X1078039Y778912D01*
X1077835Y779262D01*
X1077639Y779617D01*
X1077453Y779977D01*
X1077275Y780341D01*
X1077106Y780709D01*
X1076947Y781082D01*
X1076796Y781458D01*
X1076655Y781838D01*
X1076523Y782221D01*
X1076401Y782607D01*
X1076288Y782997D01*
X1076185Y783388D01*
X1076091Y783783D01*
X1076007Y784179D01*
X1075933Y784577D01*
X1075869Y784977D01*
X1075814Y785379D01*
X1075770Y785782D01*
X1075735Y786185D01*
X1075710Y786590D01*
X1075695Y786995D01*
X1075690Y787400D01*
X1456690Y25400D02*
X1456695Y25805D01*
X1456710Y26210D01*
X1456735Y26615D01*
X1456770Y27018D01*
X1456814Y27421D01*
X1456869Y27823D01*
X1456933Y28223D01*
X1457007Y28621D01*
X1457091Y29017D01*
X1457185Y29412D01*
X1457288Y29803D01*
X1457401Y30193D01*
X1457523Y30579D01*
X1457655Y30962D01*
X1457796Y31342D01*
X1457947Y31718D01*
X1458106Y32091D01*
X1458275Y32459D01*
X1458453Y32823D01*
X1458639Y33183D01*
X1458835Y33538D01*
X1459039Y33888D01*
X1459251Y34233D01*
X1459472Y34572D01*
X1459702Y34907D01*
X1459939Y35235D01*
X1460184Y35557D01*
X1460438Y35874D01*
X1460698Y36184D01*
X1460967Y36487D01*
X1461243Y36784D01*
X1461526Y37074D01*
X1461816Y37357D01*
X1462113Y37633D01*
X1462416Y37902D01*
X1462726Y38162D01*
X1463043Y38416D01*
X1463365Y38661D01*
X1463693Y38898D01*
X1464028Y39128D01*
X1464367Y39349D01*
X1464712Y39561D01*
X1465062Y39765D01*
X1465417Y39961D01*
X1465777Y40147D01*
X1466141Y40325D01*
X1466509Y40494D01*
X1466882Y40653D01*
X1467258Y40804D01*
X1467638Y40945D01*
X1468021Y41077D01*
X1468407Y41199D01*
X1468797Y41312D01*
X1469188Y41415D01*
X1469583Y41509D01*
X1469979Y41593D01*
X1470377Y41667D01*
X1470777Y41731D01*
X1471179Y41786D01*
X1471582Y41830D01*
X1471985Y41865D01*
X1472390Y41890D01*
X1472795Y41905D01*
X1473200Y41910D01*
X1473605Y41905D01*
X1474010Y41890D01*
X1474415Y41865D01*
X1474818Y41830D01*
X1475221Y41786D01*
X1475623Y41731D01*
X1476023Y41667D01*
X1476421Y41593D01*
X1476817Y41509D01*
X1477212Y41415D01*
X1477603Y41312D01*
X1477993Y41199D01*
X1478379Y41077D01*
X1478762Y40945D01*
X1479142Y40804D01*
X1479518Y40653D01*
X1479891Y40494D01*
X1480259Y40325D01*
X1480623Y40147D01*
X1480983Y39961D01*
X1481338Y39765D01*
X1481688Y39561D01*
X1482033Y39349D01*
X1482372Y39128D01*
X1482707Y38898D01*
X1483035Y38661D01*
X1483357Y38416D01*
X1483674Y38162D01*
X1483984Y37902D01*
X1484287Y37633D01*
X1484584Y37357D01*
X1484874Y37074D01*
X1485157Y36784D01*
X1485433Y36487D01*
X1485702Y36184D01*
X1485962Y35874D01*
X1486216Y35557D01*
X1486461Y35235D01*
X1486698Y34907D01*
X1486928Y34572D01*
X1487149Y34233D01*
X1487361Y33888D01*
X1487565Y33538D01*
X1487761Y33183D01*
X1487947Y32823D01*
X1488125Y32459D01*
X1488294Y32091D01*
X1488453Y31718D01*
X1488604Y31342D01*
X1488745Y30962D01*
X1488877Y30579D01*
X1488999Y30193D01*
X1489112Y29803D01*
X1489215Y29412D01*
X1489309Y29017D01*
X1489393Y28621D01*
X1489467Y28223D01*
X1489531Y27823D01*
X1489586Y27421D01*
X1489630Y27018D01*
X1489665Y26615D01*
X1489690Y26210D01*
X1489705Y25805D01*
X1489710Y25400D01*
X1489705Y24995D01*
X1489690Y24590D01*
X1489665Y24185D01*
X1489630Y23782D01*
X1489586Y23379D01*
X1489531Y22977D01*
X1489467Y22577D01*
X1489393Y22179D01*
X1489309Y21783D01*
X1489215Y21388D01*
X1489112Y20997D01*
X1488999Y20607D01*
X1488877Y20221D01*
X1488745Y19838D01*
X1488604Y19458D01*
X1488453Y19082D01*
X1488294Y18709D01*
X1488125Y18341D01*
X1487947Y17977D01*
X1487761Y17617D01*
X1487565Y17262D01*
X1487361Y16912D01*
X1487149Y16567D01*
X1486928Y16228D01*
X1486698Y15893D01*
X1486461Y15565D01*
X1486216Y15243D01*
X1485962Y14926D01*
X1485702Y14616D01*
X1485433Y14313D01*
X1485157Y14016D01*
X1484874Y13726D01*
X1484584Y13443D01*
X1484287Y13167D01*
X1483984Y12898D01*
X1483674Y12638D01*
X1483357Y12384D01*
X1483035Y12139D01*
X1482707Y11902D01*
X1482372Y11672D01*
X1482033Y11451D01*
X1481688Y11239D01*
X1481338Y11035D01*
X1480983Y10839D01*
X1480623Y10653D01*
X1480259Y10475D01*
X1479891Y10306D01*
X1479518Y10147D01*
X1479142Y9996D01*
X1478762Y9855D01*
X1478379Y9723D01*
X1477993Y9601D01*
X1477603Y9488D01*
X1477212Y9385D01*
X1476817Y9291D01*
X1476421Y9207D01*
X1476023Y9133D01*
X1475623Y9069D01*
X1475221Y9014D01*
X1474818Y8970D01*
X1474415Y8935D01*
X1474010Y8910D01*
X1473605Y8895D01*
X1473200Y8890D01*
X1472795Y8895D01*
X1472390Y8910D01*
X1471985Y8935D01*
X1471582Y8970D01*
X1471179Y9014D01*
X1470777Y9069D01*
X1470377Y9133D01*
X1469979Y9207D01*
X1469583Y9291D01*
X1469188Y9385D01*
X1468797Y9488D01*
X1468407Y9601D01*
X1468021Y9723D01*
X1467638Y9855D01*
X1467258Y9996D01*
X1466882Y10147D01*
X1466509Y10306D01*
X1466141Y10475D01*
X1465777Y10653D01*
X1465417Y10839D01*
X1465062Y11035D01*
X1464712Y11239D01*
X1464367Y11451D01*
X1464028Y11672D01*
X1463693Y11902D01*
X1463365Y12139D01*
X1463043Y12384D01*
X1462726Y12638D01*
X1462416Y12898D01*
X1462113Y13167D01*
X1461816Y13443D01*
X1461526Y13726D01*
X1461243Y14016D01*
X1460967Y14313D01*
X1460698Y14616D01*
X1460438Y14926D01*
X1460184Y15243D01*
X1459939Y15565D01*
X1459702Y15893D01*
X1459472Y16228D01*
X1459251Y16567D01*
X1459039Y16912D01*
X1458835Y17262D01*
X1458639Y17617D01*
X1458453Y17977D01*
X1458275Y18341D01*
X1458106Y18709D01*
X1457947Y19082D01*
X1457796Y19458D01*
X1457655Y19838D01*
X1457523Y20221D01*
X1457401Y20607D01*
X1457288Y20997D01*
X1457185Y21388D01*
X1457091Y21783D01*
X1457007Y22179D01*
X1456933Y22577D01*
X1456869Y22977D01*
X1456814Y23379D01*
X1456770Y23782D01*
X1456735Y24185D01*
X1456710Y24590D01*
X1456695Y24995D01*
X1456690Y25400D01*
X1456690Y787400D02*
X1456695Y787805D01*
X1456710Y788210D01*
X1456735Y788615D01*
X1456770Y789018D01*
X1456814Y789421D01*
X1456869Y789823D01*
X1456933Y790223D01*
X1457007Y790621D01*
X1457091Y791017D01*
X1457185Y791412D01*
X1457288Y791803D01*
X1457401Y792193D01*
X1457523Y792579D01*
X1457655Y792962D01*
X1457796Y793342D01*
X1457947Y793718D01*
X1458106Y794091D01*
X1458275Y794459D01*
X1458453Y794823D01*
X1458639Y795183D01*
X1458835Y795538D01*
X1459039Y795888D01*
X1459251Y796233D01*
X1459472Y796572D01*
X1459702Y796907D01*
X1459939Y797235D01*
X1460184Y797557D01*
X1460438Y797874D01*
X1460698Y798184D01*
X1460967Y798487D01*
X1461243Y798784D01*
X1461526Y799074D01*
X1461816Y799357D01*
X1462113Y799633D01*
X1462416Y799902D01*
X1462726Y800162D01*
X1463043Y800416D01*
X1463365Y800661D01*
X1463693Y800898D01*
X1464028Y801128D01*
X1464367Y801349D01*
X1464712Y801561D01*
X1465062Y801765D01*
X1465417Y801961D01*
X1465777Y802147D01*
X1466141Y802325D01*
X1466509Y802494D01*
X1466882Y802653D01*
X1467258Y802804D01*
X1467638Y802945D01*
X1468021Y803077D01*
X1468407Y803199D01*
X1468797Y803312D01*
X1469188Y803415D01*
X1469583Y803509D01*
X1469979Y803593D01*
X1470377Y803667D01*
X1470777Y803731D01*
X1471179Y803786D01*
X1471582Y803830D01*
X1471985Y803865D01*
X1472390Y803890D01*
X1472795Y803905D01*
X1473200Y803910D01*
X1473605Y803905D01*
X1474010Y803890D01*
X1474415Y803865D01*
X1474818Y803830D01*
X1475221Y803786D01*
X1475623Y803731D01*
X1476023Y803667D01*
X1476421Y803593D01*
X1476817Y803509D01*
X1477212Y803415D01*
X1477603Y803312D01*
X1477993Y803199D01*
X1478379Y803077D01*
X1478762Y802945D01*
X1479142Y802804D01*
X1479518Y802653D01*
X1479891Y802494D01*
X1480259Y802325D01*
X1480623Y802147D01*
X1480983Y801961D01*
X1481338Y801765D01*
X1481688Y801561D01*
X1482033Y801349D01*
X1482372Y801128D01*
X1482707Y800898D01*
X1483035Y800661D01*
X1483357Y800416D01*
X1483674Y800162D01*
X1483984Y799902D01*
X1484287Y799633D01*
X1484584Y799357D01*
X1484874Y799074D01*
X1485157Y798784D01*
X1485433Y798487D01*
X1485702Y798184D01*
X1485962Y797874D01*
X1486216Y797557D01*
X1486461Y797235D01*
X1486698Y796907D01*
X1486928Y796572D01*
X1487149Y796233D01*
X1487361Y795888D01*
X1487565Y795538D01*
X1487761Y795183D01*
X1487947Y794823D01*
X1488125Y794459D01*
X1488294Y794091D01*
X1488453Y793718D01*
X1488604Y793342D01*
X1488745Y792962D01*
X1488877Y792579D01*
X1488999Y792193D01*
X1489112Y791803D01*
X1489215Y791412D01*
X1489309Y791017D01*
X1489393Y790621D01*
X1489467Y790223D01*
X1489531Y789823D01*
X1489586Y789421D01*
X1489630Y789018D01*
X1489665Y788615D01*
X1489690Y788210D01*
X1489705Y787805D01*
X1489710Y787400D01*
X1489705Y786995D01*
X1489690Y786590D01*
X1489665Y786185D01*
X1489630Y785782D01*
X1489586Y785379D01*
X1489531Y784977D01*
X1489467Y784577D01*
X1489393Y784179D01*
X1489309Y783783D01*
X1489215Y783388D01*
X1489112Y782997D01*
X1488999Y782607D01*
X1488877Y782221D01*
X1488745Y781838D01*
X1488604Y781458D01*
X1488453Y781082D01*
X1488294Y780709D01*
X1488125Y780341D01*
X1487947Y779977D01*
X1487761Y779617D01*
X1487565Y779262D01*
X1487361Y778912D01*
X1487149Y778567D01*
X1486928Y778228D01*
X1486698Y777893D01*
X1486461Y777565D01*
X1486216Y777243D01*
X1485962Y776926D01*
X1485702Y776616D01*
X1485433Y776313D01*
X1485157Y776016D01*
X1484874Y775726D01*
X1484584Y775443D01*
X1484287Y775167D01*
X1483984Y774898D01*
X1483674Y774638D01*
X1483357Y774384D01*
X1483035Y774139D01*
X1482707Y773902D01*
X1482372Y773672D01*
X1482033Y773451D01*
X1481688Y773239D01*
X1481338Y773035D01*
X1480983Y772839D01*
X1480623Y772653D01*
X1480259Y772475D01*
X1479891Y772306D01*
X1479518Y772147D01*
X1479142Y771996D01*
X1478762Y771855D01*
X1478379Y771723D01*
X1477993Y771601D01*
X1477603Y771488D01*
X1477212Y771385D01*
X1476817Y771291D01*
X1476421Y771207D01*
X1476023Y771133D01*
X1475623Y771069D01*
X1475221Y771014D01*
X1474818Y770970D01*
X1474415Y770935D01*
X1474010Y770910D01*
X1473605Y770895D01*
X1473200Y770890D01*
X1472795Y770895D01*
X1472390Y770910D01*
X1471985Y770935D01*
X1471582Y770970D01*
X1471179Y771014D01*
X1470777Y771069D01*
X1470377Y771133D01*
X1469979Y771207D01*
X1469583Y771291D01*
X1469188Y771385D01*
X1468797Y771488D01*
X1468407Y771601D01*
X1468021Y771723D01*
X1467638Y771855D01*
X1467258Y771996D01*
X1466882Y772147D01*
X1466509Y772306D01*
X1466141Y772475D01*
X1465777Y772653D01*
X1465417Y772839D01*
X1465062Y773035D01*
X1464712Y773239D01*
X1464367Y773451D01*
X1464028Y773672D01*
X1463693Y773902D01*
X1463365Y774139D01*
X1463043Y774384D01*
X1462726Y774638D01*
X1462416Y774898D01*
X1462113Y775167D01*
X1461816Y775443D01*
X1461526Y775726D01*
X1461243Y776016D01*
X1460967Y776313D01*
X1460698Y776616D01*
X1460438Y776926D01*
X1460184Y777243D01*
X1459939Y777565D01*
X1459702Y777893D01*
X1459472Y778228D01*
X1459251Y778567D01*
X1459039Y778912D01*
X1458835Y779262D01*
X1458639Y779617D01*
X1458453Y779977D01*
X1458275Y780341D01*
X1458106Y780709D01*
X1457947Y781082D01*
X1457796Y781458D01*
X1457655Y781838D01*
X1457523Y782221D01*
X1457401Y782607D01*
X1457288Y782997D01*
X1457185Y783388D01*
X1457091Y783783D01*
X1457007Y784179D01*
X1456933Y784577D01*
X1456869Y784977D01*
X1456814Y785379D01*
X1456770Y785782D01*
X1456735Y786185D01*
X1456710Y786590D01*
X1456695Y786995D01*
X1456690Y787400D01*
X1112600Y435300D02*
X1112602Y435413D01*
X1112608Y435527D01*
X1112618Y435640D01*
X1112632Y435752D01*
X1112649Y435864D01*
X1112671Y435976D01*
X1112697Y436086D01*
X1112726Y436196D01*
X1112759Y436304D01*
X1112796Y436412D01*
X1112837Y436517D01*
X1112881Y436622D01*
X1112929Y436725D01*
X1112980Y436826D01*
X1113035Y436925D01*
X1113094Y437022D01*
X1113156Y437117D01*
X1113221Y437210D01*
X1113289Y437301D01*
X1113360Y437389D01*
X1113435Y437475D01*
X1113512Y437558D01*
X1113592Y437638D01*
X1113675Y437715D01*
X1113761Y437790D01*
X1113849Y437861D01*
X1113940Y437929D01*
X1114033Y437994D01*
X1114128Y438056D01*
X1114225Y438115D01*
X1114324Y438170D01*
X1114425Y438221D01*
X1114528Y438269D01*
X1114633Y438313D01*
X1114738Y438354D01*
X1114846Y438391D01*
X1114954Y438424D01*
X1115064Y438453D01*
X1115174Y438479D01*
X1115286Y438501D01*
X1115398Y438518D01*
X1115510Y438532D01*
X1115623Y438542D01*
X1115737Y438548D01*
X1115850Y438550D01*
X1115963Y438548D01*
X1116077Y438542D01*
X1116190Y438532D01*
X1116302Y438518D01*
X1116414Y438501D01*
X1116526Y438479D01*
X1116636Y438453D01*
X1116746Y438424D01*
X1116854Y438391D01*
X1116962Y438354D01*
X1117067Y438313D01*
X1117172Y438269D01*
X1117275Y438221D01*
X1117376Y438170D01*
X1117475Y438115D01*
X1117572Y438056D01*
X1117667Y437994D01*
X1117760Y437929D01*
X1117851Y437861D01*
X1117939Y437790D01*
X1118025Y437715D01*
X1118108Y437638D01*
X1118188Y437558D01*
X1118265Y437475D01*
X1118340Y437389D01*
X1118411Y437301D01*
X1118479Y437210D01*
X1118544Y437117D01*
X1118606Y437022D01*
X1118665Y436925D01*
X1118720Y436826D01*
X1118771Y436725D01*
X1118819Y436622D01*
X1118863Y436517D01*
X1118904Y436412D01*
X1118941Y436304D01*
X1118974Y436196D01*
X1119003Y436086D01*
X1119029Y435976D01*
X1119051Y435864D01*
X1119068Y435752D01*
X1119082Y435640D01*
X1119092Y435527D01*
X1119098Y435413D01*
X1119100Y435300D01*
X1119098Y435187D01*
X1119092Y435073D01*
X1119082Y434960D01*
X1119068Y434848D01*
X1119051Y434736D01*
X1119029Y434624D01*
X1119003Y434514D01*
X1118974Y434404D01*
X1118941Y434296D01*
X1118904Y434188D01*
X1118863Y434083D01*
X1118819Y433978D01*
X1118771Y433875D01*
X1118720Y433774D01*
X1118665Y433675D01*
X1118606Y433578D01*
X1118544Y433483D01*
X1118479Y433390D01*
X1118411Y433299D01*
X1118340Y433211D01*
X1118265Y433125D01*
X1118188Y433042D01*
X1118108Y432962D01*
X1118025Y432885D01*
X1117939Y432810D01*
X1117851Y432739D01*
X1117760Y432671D01*
X1117667Y432606D01*
X1117572Y432544D01*
X1117475Y432485D01*
X1117376Y432430D01*
X1117275Y432379D01*
X1117172Y432331D01*
X1117067Y432287D01*
X1116962Y432246D01*
X1116854Y432209D01*
X1116746Y432176D01*
X1116636Y432147D01*
X1116526Y432121D01*
X1116414Y432099D01*
X1116302Y432082D01*
X1116190Y432068D01*
X1116077Y432058D01*
X1115963Y432052D01*
X1115850Y432050D01*
X1115737Y432052D01*
X1115623Y432058D01*
X1115510Y432068D01*
X1115398Y432082D01*
X1115286Y432099D01*
X1115174Y432121D01*
X1115064Y432147D01*
X1114954Y432176D01*
X1114846Y432209D01*
X1114738Y432246D01*
X1114633Y432287D01*
X1114528Y432331D01*
X1114425Y432379D01*
X1114324Y432430D01*
X1114225Y432485D01*
X1114128Y432544D01*
X1114033Y432606D01*
X1113940Y432671D01*
X1113849Y432739D01*
X1113761Y432810D01*
X1113675Y432885D01*
X1113592Y432962D01*
X1113512Y433042D01*
X1113435Y433125D01*
X1113360Y433211D01*
X1113289Y433299D01*
X1113221Y433390D01*
X1113156Y433483D01*
X1113094Y433578D01*
X1113035Y433675D01*
X1112980Y433774D01*
X1112929Y433875D01*
X1112881Y433978D01*
X1112837Y434083D01*
X1112796Y434188D01*
X1112759Y434296D01*
X1112726Y434404D01*
X1112697Y434514D01*
X1112671Y434624D01*
X1112649Y434736D01*
X1112632Y434848D01*
X1112618Y434960D01*
X1112608Y435073D01*
X1112602Y435187D01*
X1112600Y435300D01*
X1112600Y377500D02*
X1112602Y377613D01*
X1112608Y377727D01*
X1112618Y377840D01*
X1112632Y377952D01*
X1112649Y378064D01*
X1112671Y378176D01*
X1112697Y378286D01*
X1112726Y378396D01*
X1112759Y378504D01*
X1112796Y378612D01*
X1112837Y378717D01*
X1112881Y378822D01*
X1112929Y378925D01*
X1112980Y379026D01*
X1113035Y379125D01*
X1113094Y379222D01*
X1113156Y379317D01*
X1113221Y379410D01*
X1113289Y379501D01*
X1113360Y379589D01*
X1113435Y379675D01*
X1113512Y379758D01*
X1113592Y379838D01*
X1113675Y379915D01*
X1113761Y379990D01*
X1113849Y380061D01*
X1113940Y380129D01*
X1114033Y380194D01*
X1114128Y380256D01*
X1114225Y380315D01*
X1114324Y380370D01*
X1114425Y380421D01*
X1114528Y380469D01*
X1114633Y380513D01*
X1114738Y380554D01*
X1114846Y380591D01*
X1114954Y380624D01*
X1115064Y380653D01*
X1115174Y380679D01*
X1115286Y380701D01*
X1115398Y380718D01*
X1115510Y380732D01*
X1115623Y380742D01*
X1115737Y380748D01*
X1115850Y380750D01*
X1115963Y380748D01*
X1116077Y380742D01*
X1116190Y380732D01*
X1116302Y380718D01*
X1116414Y380701D01*
X1116526Y380679D01*
X1116636Y380653D01*
X1116746Y380624D01*
X1116854Y380591D01*
X1116962Y380554D01*
X1117067Y380513D01*
X1117172Y380469D01*
X1117275Y380421D01*
X1117376Y380370D01*
X1117475Y380315D01*
X1117572Y380256D01*
X1117667Y380194D01*
X1117760Y380129D01*
X1117851Y380061D01*
X1117939Y379990D01*
X1118025Y379915D01*
X1118108Y379838D01*
X1118188Y379758D01*
X1118265Y379675D01*
X1118340Y379589D01*
X1118411Y379501D01*
X1118479Y379410D01*
X1118544Y379317D01*
X1118606Y379222D01*
X1118665Y379125D01*
X1118720Y379026D01*
X1118771Y378925D01*
X1118819Y378822D01*
X1118863Y378717D01*
X1118904Y378612D01*
X1118941Y378504D01*
X1118974Y378396D01*
X1119003Y378286D01*
X1119029Y378176D01*
X1119051Y378064D01*
X1119068Y377952D01*
X1119082Y377840D01*
X1119092Y377727D01*
X1119098Y377613D01*
X1119100Y377500D01*
X1119098Y377387D01*
X1119092Y377273D01*
X1119082Y377160D01*
X1119068Y377048D01*
X1119051Y376936D01*
X1119029Y376824D01*
X1119003Y376714D01*
X1118974Y376604D01*
X1118941Y376496D01*
X1118904Y376388D01*
X1118863Y376283D01*
X1118819Y376178D01*
X1118771Y376075D01*
X1118720Y375974D01*
X1118665Y375875D01*
X1118606Y375778D01*
X1118544Y375683D01*
X1118479Y375590D01*
X1118411Y375499D01*
X1118340Y375411D01*
X1118265Y375325D01*
X1118188Y375242D01*
X1118108Y375162D01*
X1118025Y375085D01*
X1117939Y375010D01*
X1117851Y374939D01*
X1117760Y374871D01*
X1117667Y374806D01*
X1117572Y374744D01*
X1117475Y374685D01*
X1117376Y374630D01*
X1117275Y374579D01*
X1117172Y374531D01*
X1117067Y374487D01*
X1116962Y374446D01*
X1116854Y374409D01*
X1116746Y374376D01*
X1116636Y374347D01*
X1116526Y374321D01*
X1116414Y374299D01*
X1116302Y374282D01*
X1116190Y374268D01*
X1116077Y374258D01*
X1115963Y374252D01*
X1115850Y374250D01*
X1115737Y374252D01*
X1115623Y374258D01*
X1115510Y374268D01*
X1115398Y374282D01*
X1115286Y374299D01*
X1115174Y374321D01*
X1115064Y374347D01*
X1114954Y374376D01*
X1114846Y374409D01*
X1114738Y374446D01*
X1114633Y374487D01*
X1114528Y374531D01*
X1114425Y374579D01*
X1114324Y374630D01*
X1114225Y374685D01*
X1114128Y374744D01*
X1114033Y374806D01*
X1113940Y374871D01*
X1113849Y374939D01*
X1113761Y375010D01*
X1113675Y375085D01*
X1113592Y375162D01*
X1113512Y375242D01*
X1113435Y375325D01*
X1113360Y375411D01*
X1113289Y375499D01*
X1113221Y375590D01*
X1113156Y375683D01*
X1113094Y375778D01*
X1113035Y375875D01*
X1112980Y375974D01*
X1112929Y376075D01*
X1112881Y376178D01*
X1112837Y376283D01*
X1112796Y376388D01*
X1112759Y376496D01*
X1112726Y376604D01*
X1112697Y376714D01*
X1112671Y376824D01*
X1112649Y376936D01*
X1112632Y377048D01*
X1112618Y377160D01*
X1112608Y377273D01*
X1112602Y377387D01*
X1112600Y377500D01*
D15*
X1115650Y449580D02*
X1126650Y449580D01*
X1126650Y363220D02*
X1115650Y363220D01*
X1082500Y449580D02*
X1076300Y449580D01*
X1076300Y363220D02*
X1082500Y363220D01*
M02*
