M48
;GenerationSoftware,Autodesk,EAGLE,9.6.2*%
;CreationDate,2021-04-17T02:31:37Z*%
FMAT,2
ICI,OFF
METRIC,TZ,000.000
T7C0.305
T6C0.350
T5C0.400
T4C0.650
T3C1.016
T2C2.311
T1C3.302
%
G90
M71
T1
X93980Y78740
X93980Y2540
X109220Y2540
X109220Y78740
X147320Y2540
X147320Y78740
X2540Y2540
X2540Y78740
X40640Y2540
X40640Y78740
X55880Y2540
X55880Y78740
T2
X40640Y42964
X40640Y73876
X40640Y60744
X93980Y25184
X93980Y38316
X93980Y7404
X93980Y20536
X40640Y20536
X40640Y7404
X147320Y60744
X147320Y73876
X147320Y42964
X40640Y38316
X40640Y25184
X147320Y56096
X147320Y38316
X93980Y73876
X147320Y20536
X147320Y7404
X147320Y25184
X93980Y60744
X93980Y42964
X93980Y56096
X40640Y56096
T3
X123190Y80010
X125730Y80010
X128270Y80010
X130810Y80010
X133350Y80010
X135890Y80010
X143510Y80010
X138430Y80010
X140970Y80010
X24130Y80010
X36830Y80010
X13970Y1270
X16510Y1270
X19050Y1270
X21590Y1270
X13970Y80010
X16510Y80010
X19050Y80010
X21590Y80010
X87630Y80010
X26670Y80010
X29210Y80010
X31750Y80010
X34290Y80010
X67310Y1270
X69850Y1270
X72390Y1270
X74930Y1270
X67310Y80010
X69850Y80010
X72390Y80010
X74930Y80010
X77470Y80010
X80010Y80010
X82550Y80010
X85090Y80010
X90170Y80010
X120650Y1270
X123190Y1270
X125730Y1270
X128270Y1270
X120650Y80010
T4
X4905Y37750
X4905Y43530
X111585Y37750
X111585Y43530
X58245Y37750
X58245Y43530
T5
X54595Y44958
X107935Y44958
X107935Y36322
X112115Y36322
X112115Y44958
X54595Y36322
X58775Y36322
X58775Y44958
X5435Y44958
X5435Y36322
X1255Y36322
X1255Y44958
T6
X68580Y13970
X66675Y73660
X60960Y13970
X6350Y10160
X9398Y77724
X7620Y13970
X59690Y10160
X116078Y77724
X15240Y13970
X113030Y10160
X121920Y13970
X114300Y13970
X62738Y77724
X120015Y73660
X13335Y73660
T7
X68580Y40640
X77470Y40767
X70612Y35179
X75057Y36703
X74549Y44450
X71882Y44577
X69850Y27051
X64262Y44196
X68580Y30734
X62230Y29083
X74930Y30734
X76200Y30734
X77470Y30734
X75565Y25781
X74549Y25400
X87376Y17399
X89789Y18669
X92075Y17526
X89789Y16256
X60706Y3556
X60706Y6477
X89789Y33909
X89789Y36576
X92202Y35306
X87376Y35306
X89789Y51689
X89789Y54356
X92075Y53086
X87503Y53086
X89789Y69596
X89789Y72009
X92075Y70866
X87503Y70866
X63754Y74676
X63754Y77724
X65405Y76200
X73279Y48387
X72390Y40640
X71120Y41910
X73660Y41910
X73660Y39370
X71120Y39370
X65151Y47117
X59298Y46074
X62230Y36576
X54991Y34290
X55118Y46990
X60940Y40600
X63881Y35560
X65151Y39370
X63881Y33020
X76200Y37846
X77470Y36449
X78740Y45339
X81280Y45339
X78740Y54229
X81280Y54229
X78740Y18669
X81280Y17399
X83820Y70739
X78740Y69850
X66929Y44196
X75565Y51181
X62992Y52070
X80010Y13970
X80010Y12700
X80010Y30226
X80010Y31750
X80010Y49530
X80010Y48006
X80010Y67310
X80010Y65786
X63500Y40640
X77343Y27940
X62992Y34290
X68453Y39802
X64770Y50800
X61341Y21590
X64770Y55880
X63730Y7620
X79989Y71141
X61531Y70549
X68326Y41478
X65659Y50800
X59690Y22860
X65659Y58420
X62730Y6350
X67348Y72390
X78740Y72390
X75629Y45212
X76454Y11430
X70447Y45974
X79083Y29210
X71120Y49530
X78740Y46990
X68786Y64770
X78359Y64770
X62230Y38862
X62230Y43053
X11811Y39370
X68072Y38100
X68072Y36830
X71501Y35814
X15240Y40640
X24130Y40767
X121920Y40640
X130810Y40767
X123952Y35179
X128397Y36703
X127889Y44450
X125222Y44577
X123190Y27051
X117602Y44196
X17272Y35179
X21717Y36703
X21209Y44450
X121920Y30734
X115570Y29083
X128270Y30734
X129540Y30734
X130810Y30734
X128905Y25781
X127889Y25400
X140716Y17399
X143129Y18669
X145415Y17526
X143129Y16256
X114046Y3556
X114046Y6477
X143129Y33909
X143129Y36576
X145542Y35306
X140716Y35306
X143129Y51689
X143129Y54356
X145415Y53086
X140843Y53086
X143129Y69596
X143129Y72009
X145415Y70866
X140843Y70866
X117094Y74676
X117094Y77724
X118745Y76200
X126619Y48387
X125730Y40640
X124460Y41910
X127000Y41910
X127000Y39370
X124460Y39370
X118491Y47117
X112638Y46074
X115570Y36576
X108331Y34290
X108458Y46990
X114280Y40600
X117221Y35560
X118491Y39370
X117221Y33020
X129540Y37846
X130810Y36449
X132080Y45339
X134620Y45339
X132080Y54229
X134620Y54229
X132080Y18669
X134620Y17399
X137160Y70739
X132080Y69850
X120269Y44196
X128905Y51181
X116332Y52070
X133350Y13970
X133350Y12700
X133350Y30226
X133350Y31750
X133350Y49530
X133350Y48006
X133350Y67310
X133350Y65786
X116840Y40640
X130683Y27940
X116332Y34290
X121793Y39802
X118110Y50800
X114681Y21590
X118110Y55880
X117070Y7620
X133329Y71141
X114871Y70549
X121666Y41478
X118999Y50800
X113030Y22860
X118999Y58420
X116070Y6350
X120688Y72390
X132080Y72390
X128968Y45212
X129794Y11430
X123787Y45974
X132423Y29210
X124460Y49530
X132080Y46990
X122126Y64770
X18542Y44577
X115570Y38862
X115570Y43053
X124714Y36703
X121412Y38100
X121412Y36830
X124841Y35814
X16510Y27051
X10922Y44196
X15240Y30734
X8890Y29083
X21590Y30734
X22860Y30734
X24130Y30734
X22225Y25781
X21209Y25400
X34036Y17399
X36449Y18669
X38735Y17526
X36449Y16256
X7366Y3556
X7366Y6477
X36449Y33909
X36449Y36576
X38862Y35306
X34036Y35306
X36449Y51689
X36449Y54356
X38735Y53086
X34163Y53086
X36449Y69596
X36449Y72009
X38735Y70866
X34163Y70866
X10414Y74676
X10414Y77724
X12065Y76200
X19939Y48387
X19050Y40640
X17780Y41910
X20320Y41910
X20320Y39370
X17780Y39370
X11811Y47117
X5958Y46074
X8890Y36576
X1651Y34290
X1778Y46990
X7600Y40600
X10541Y35560
X10541Y33020
X22860Y37846
X71374Y36703
X24130Y36449
X25400Y45339
X27940Y45339
X25400Y54229
X27940Y54229
X25400Y18669
X27940Y17399
X30480Y70739
X25400Y69850
X13589Y44196
X22225Y51181
X9652Y52070
X26670Y13970
X26670Y12700
X26670Y30226
X26670Y31750
X26670Y49530
X26670Y48006
X26670Y67310
X26670Y65786
X10160Y40640
X24003Y27940
X9652Y34290
X15113Y39802
X11430Y50800
X8001Y21590
X11430Y55880
X10390Y7620
X26649Y71141
X8191Y70549
X14986Y41478
X12319Y50800
X6350Y22860
X12319Y58420
X9390Y6350
X14008Y72390
X25400Y72390
X22288Y45212
X23114Y11430
X17107Y45974
X25743Y29210
X17780Y49530
X25400Y46990
X15446Y64770
X25019Y64770
X8890Y38862
X8890Y43053
X18034Y36703
X14732Y38100
X14732Y36830
X18161Y35814
X131699Y64770
M30